<svg height="660" width="660"
    xmlns="http://www.w3.org/2000/svg"
    xmlns:xlink="http://www.w3.org/1999/xlink"
    xmlns:ev="http://www.w3.org/2001/xml-events">
<title>Original Top Strand</title>
<rect x="0" y="0" width="660" height="660" fill="white" />
<text x="330" y="20" text-anchor="middle">Original Top Strand</text>
<line x1="80" y1="80" x2="80" y2="580" stroke="black" />
<line x1="80" y1="580" x2="580" y2="580" stroke="black" />
<text x="15" y="330" transform="rotate(270 15, 330)" text-anchor="middle" dominant-baseline="text-before-edge">CpG Methylation %</text>
<text x="330" y="620" text-anchor="middle">Position along mapped read (5'->3' of + strand)</text>
<line x1="80" y1="580" x2="80" y2="585" stroke="black" />
<text x="80" y="600" text-anchor="middle">0</text>
<line x1="120.000000" y1="80" x2="120.000000" y2="580" stroke-dasharray="5 5" stroke="grey" />
<line x1="120.000000" y1="580" x2="120.000000" y2="585" stroke="black" />
<text x="120.000000" y="600" text-anchor="middle">10</text>
<line x1="160.000000" y1="80" x2="160.000000" y2="580" stroke-dasharray="5 5" stroke="grey" />
<line x1="160.000000" y1="580" x2="160.000000" y2="585" stroke="black" />
<text x="160.000000" y="600" text-anchor="middle">20</text>
<line x1="200.000000" y1="80" x2="200.000000" y2="580" stroke-dasharray="5 5" stroke="grey" />
<line x1="200.000000" y1="580" x2="200.000000" y2="585" stroke="black" />
<text x="200.000000" y="600" text-anchor="middle">30</text>
<line x1="240.000000" y1="80" x2="240.000000" y2="580" stroke-dasharray="5 5" stroke="grey" />
<line x1="240.000000" y1="580" x2="240.000000" y2="585" stroke="black" />
<text x="240.000000" y="600" text-anchor="middle">40</text>
<line x1="280.000000" y1="80" x2="280.000000" y2="580" stroke-dasharray="5 5" stroke="grey" />
<line x1="280.000000" y1="580" x2="280.000000" y2="585" stroke="black" />
<text x="280.000000" y="600" text-anchor="middle">50</text>
<line x1="320.000000" y1="80" x2="320.000000" y2="580" stroke-dasharray="5 5" stroke="grey" />
<line x1="320.000000" y1="580" x2="320.000000" y2="585" stroke="black" />
<text x="320.000000" y="600" text-anchor="middle">60</text>
<line x1="360.000000" y1="80" x2="360.000000" y2="580" stroke-dasharray="5 5" stroke="grey" />
<line x1="360.000000" y1="580" x2="360.000000" y2="585" stroke="black" />
<text x="360.000000" y="600" text-anchor="middle">70</text>
<line x1="400.000000" y1="80" x2="400.000000" y2="580" stroke-dasharray="5 5" stroke="grey" />
<line x1="400.000000" y1="580" x2="400.000000" y2="585" stroke="black" />
<text x="400.000000" y="600" text-anchor="middle">80</text>
<line x1="440.000000" y1="80" x2="440.000000" y2="580" stroke-dasharray="5 5" stroke="grey" />
<line x1="440.000000" y1="580" x2="440.000000" y2="585" stroke="black" />
<text x="440.000000" y="600" text-anchor="middle">90</text>
<line x1="480.000000" y1="80" x2="480.000000" y2="580" stroke-dasharray="5 5" stroke="grey" />
<line x1="480.000000" y1="580" x2="480.000000" y2="585" stroke="black" />
<text x="480.000000" y="600" text-anchor="middle">100</text>
<line x1="520.000000" y1="80" x2="520.000000" y2="580" stroke-dasharray="5 5" stroke="grey" />
<line x1="520.000000" y1="580" x2="520.000000" y2="585" stroke="black" />
<text x="520.000000" y="600" text-anchor="middle">110</text>
<line x1="560.000000" y1="80" x2="560.000000" y2="580" stroke-dasharray="5 5" stroke="grey" />
<line x1="560.000000" y1="580" x2="560.000000" y2="585" stroke="black" />
<text x="560.000000" y="600" text-anchor="middle">120</text>
<line x1="80" y1="580.000000" x2="75" y2="580.000000" stroke="black" />
<text x="55" y="580.000000" text-anchor="middle" dominant-baseline="middle">0.00</text>
<line x1="80" y1="555.000000" x2="75" y2="555.000000" stroke="black" />
<text x="55" y="555.000000" text-anchor="middle" dominant-baseline="middle">0.05</text>
<line x1="80" y1="530.000000" x2="75" y2="530.000000" stroke="black" />
<text x="55" y="530.000000" text-anchor="middle" dominant-baseline="middle">0.10</text>
<line x1="80" y1="505.000000" x2="75" y2="505.000000" stroke="black" />
<text x="55" y="505.000000" text-anchor="middle" dominant-baseline="middle">0.15</text>
<line x1="80" y1="480.000000" x2="75" y2="480.000000" stroke="black" />
<text x="55" y="480.000000" text-anchor="middle" dominant-baseline="middle">0.20</text>
<line x1="80" y1="455.000000" x2="75" y2="455.000000" stroke="black" />
<text x="55" y="455.000000" text-anchor="middle" dominant-baseline="middle">0.25</text>
<line x1="80" y1="430.000000" x2="75" y2="430.000000" stroke="black" />
<text x="55" y="430.000000" text-anchor="middle" dominant-baseline="middle">0.30</text>
<line x1="80" y1="405.000000" x2="75" y2="405.000000" stroke="black" />
<text x="55" y="405.000000" text-anchor="middle" dominant-baseline="middle">0.35</text>
<line x1="80" y1="380.000000" x2="75" y2="380.000000" stroke="black" />
<text x="55" y="380.000000" text-anchor="middle" dominant-baseline="middle">0.40</text>
<line x1="80" y1="355.000000" x2="75" y2="355.000000" stroke="black" />
<text x="55" y="355.000000" text-anchor="middle" dominant-baseline="middle">0.45</text>
<line x1="80" y1="330.000000" x2="75" y2="330.000000" stroke="black" />
<text x="55" y="330.000000" text-anchor="middle" dominant-baseline="middle">0.50</text>
<line x1="80" y1="305.000000" x2="75" y2="305.000000" stroke="black" />
<text x="55" y="305.000000" text-anchor="middle" dominant-baseline="middle">0.55</text>
<line x1="80" y1="280.000000" x2="75" y2="280.000000" stroke="black" />
<text x="55" y="280.000000" text-anchor="middle" dominant-baseline="middle">0.60</text>
<line x1="80" y1="255.000000" x2="75" y2="255.000000" stroke="black" />
<text x="55" y="255.000000" text-anchor="middle" dominant-baseline="middle">0.65</text>
<line x1="80" y1="230.000000" x2="75" y2="230.000000" stroke="black" />
<text x="55" y="230.000000" text-anchor="middle" dominant-baseline="middle">0.70</text>
<line x1="80" y1="205.000000" x2="75" y2="205.000000" stroke="black" />
<text x="55" y="205.000000" text-anchor="middle" dominant-baseline="middle">0.75</text>
<line x1="80" y1="180.000000" x2="75" y2="180.000000" stroke="black" />
<text x="55" y="180.000000" text-anchor="middle" dominant-baseline="middle">0.80</text>
<line x1="80" y1="155.000000" x2="75" y2="155.000000" stroke="black" />
<text x="55" y="155.000000" text-anchor="middle" dominant-baseline="middle">0.85</text>
<line x1="80" y1="130.000000" x2="75" y2="130.000000" stroke="black" />
<text x="55" y="130.000000" text-anchor="middle" dominant-baseline="middle">0.90</text>
<line x1="80" y1="105.000000" x2="75" y2="105.000000" stroke="black" />
<text x="55" y="105.000000" text-anchor="middle" dominant-baseline="middle">0.95</text>
<line x1="80" y1="80.000000" x2="75" y2="80.000000" stroke="black" />
<text x="55" y="80.000000" text-anchor="middle" dominant-baseline="middle">1.00</text>
<path d="M 84.000000 210.654606
  L 88.000000 206.308972
  L 92.000000 232.878518
  L 96.000000 229.507730
  L 100.000000 215.038926
  L 104.000000 226.105233
  L 108.000000 227.787868
  L 112.000000 230.874382
  L 116.000000 230.036410
  L 120.000000 230.647806
  L 124.000000 230.137338
  L 128.000000 230.461862
  L 132.000000 230.488040
  L 136.000000 229.394939
  L 140.000000 230.978237
  L 144.000000 230.021486
  L 148.000000 230.228296
  L 152.000000 231.806818
  L 156.000000 232.320421
  L 160.000000 231.259588
  L 164.000000 231.391439
  L 168.000000 231.351385
  L 172.000000 231.553941
  L 176.000000 231.830295
  L 180.000000 231.577098
  L 184.000000 232.272924
  L 188.000000 233.336173
  L 192.000000 233.098265
  L 196.000000 233.555834
  L 200.000000 232.439404
  L 204.000000 231.963984
  L 208.000000 231.698298
  L 212.000000 232.621018
  L 216.000000 232.798055
  L 220.000000 232.617936
  L 224.000000 232.521471
  L 228.000000 233.111947
  L 232.000000 232.231709
  L 236.000000 233.327695
  L 240.000000 232.657757
  L 244.000000 232.668902
  L 248.000000 233.272501
  L 252.000000 232.846128
  L 256.000000 232.452616
  L 260.000000 232.823709
  L 264.000000 232.275256
  L 268.000000 233.165309
  L 272.000000 233.369874
  L 276.000000 233.226066
  L 280.000000 233.154325
  L 284.000000 234.224363
  L 288.000000 233.701928
  L 292.000000 233.146590
  L 296.000000 232.904148
  L 300.000000 233.597037
  L 304.000000 233.384326
  L 308.000000 233.692383
  L 312.000000 233.350433
  L 316.000000 234.054187
  L 320.000000 234.092979
  L 324.000000 234.098094
  L 328.000000 233.923394
  L 332.000000 233.195578
  L 336.000000 233.238710
  L 340.000000 233.969738
  L 344.000000 234.663372
  L 348.000000 234.552705
  L 352.000000 234.202288
  L 356.000000 234.468455
  L 360.000000 233.916174
  L 364.000000 234.288098
  L 368.000000 234.505419
  L 372.000000 234.862685
  L 376.000000 235.132164
  L 380.000000 234.545300
  L 384.000000 234.883940
  L 388.000000 234.951607
  L 392.000000 235.481335
  L 396.000000 235.183053
  L 400.000000 235.307912
  L 404.000000 235.240950
  L 408.000000 235.405060
  L 412.000000 235.803292
  L 416.000000 235.554568
  L 420.000000 236.198605
  L 424.000000 235.339888
  L 428.000000 235.822023
  L 432.000000 236.334816
  L 436.000000 235.930076
  L 440.000000 236.788501
  L 444.000000 237.116949
  L 448.000000 236.718041
  L 452.000000 236.705793
  L 456.000000 236.640621
  L 460.000000 236.785434
  L 464.000000 237.058979
  L 468.000000 237.950038
  L 472.000000 237.594226
  L 476.000000 237.812338
  L 480.000000 238.054608
  L 484.000000 238.739275
  L 488.000000 238.221262
  L 492.000000 238.545742
  L 496.000000 239.101517
  L 500.000000 238.531721
  L 504.000000 239.084743
  L 508.000000 238.914932
  L 512.000000 239.352234
  L 516.000000 239.826036
  L 520.000000 240.170568
  L 524.000000 240.264360
  L 528.000000 240.365973
  L 532.000000 240.775044
  L 536.000000 240.891578
  L 540.000000 241.112800
  L 544.000000 240.929861
  L 548.000000 241.141484
  L 552.000000 240.902960
  L 556.000000 241.963536
  L 560.000000 243.454192
  L 564.000000 245.073229
  L 568.000000 245.521747
  L 572.000000 247.189619
  L 576.000000 251.211689
  L 580.000000 255.713403
  L 580.000000 254.229154
  L 576.000000 249.783343
  L 572.000000 245.809169
  L 568.000000 244.160763
  L 564.000000 243.723066
  L 560.000000 242.107862
  L 556.000000 240.624577
  L 552.000000 239.572606
  L 548.000000 239.811992
  L 544.000000 239.600349
  L 540.000000 239.783392
  L 536.000000 239.566151
  L 532.000000 239.447256
  L 528.000000 239.043081
  L 524.000000 238.944671
  L 520.000000 238.849432
  L 516.000000 238.505786
  L 512.000000 238.035651
  L 508.000000 237.601380
  L 504.000000 237.771369
  L 500.000000 237.221112
  L 496.000000 237.786887
  L 492.000000 237.232672
  L 488.000000 236.911548
  L 484.000000 237.428806
  L 480.000000 236.745744
  L 476.000000 236.505960
  L 472.000000 236.287971
  L 468.000000 236.641539
  L 464.000000 235.757332
  L 460.000000 235.484924
  L 456.000000 235.341972
  L 452.000000 235.403168
  L 448.000000 235.414412
  L 444.000000 235.812634
  L 440.000000 235.485424
  L 436.000000 234.632194
  L 432.000000 235.036048
  L 428.000000 234.523170
  L 424.000000 234.044562
  L 420.000000 234.899117
  L 416.000000 234.255851
  L 412.000000 234.503326
  L 408.000000 234.108959
  L 404.000000 233.944870
  L 400.000000 234.009475
  L 396.000000 233.886750
  L 392.000000 234.182449
  L 388.000000 233.654853
  L 384.000000 233.590162
  L 380.000000 233.253034
  L 376.000000 233.835856
  L 372.000000 233.566810
  L 368.000000 233.212857
  L 364.000000 232.993866
  L 360.000000 232.628080
  L 356.000000 233.176117
  L 352.000000 232.909482
  L 348.000000 233.255525
  L 344.000000 233.365149
  L 340.000000 232.675458
  L 336.000000 231.952572
  L 332.000000 231.908760
  L 328.000000 232.635218
  L 324.000000 232.808255
  L 320.000000 232.801293
  L 316.000000 232.759220
  L 312.000000 232.060079
  L 308.000000 232.399726
  L 304.000000 232.097341
  L 300.000000 232.306872
  L 296.000000 231.618359
  L 292.000000 231.855264
  L 288.000000 232.407479
  L 284.000000 232.926712
  L 280.000000 231.865558
  L 276.000000 231.939756
  L 272.000000 232.074696
  L 268.000000 231.871188
  L 264.000000 230.990897
  L 260.000000 231.535780
  L 256.000000 231.164271
  L 252.000000 231.554786
  L 248.000000 231.978431
  L 244.000000 231.381043
  L 240.000000 231.372008
  L 236.000000 232.032576
  L 232.000000 230.945664
  L 228.000000 231.818273
  L 224.000000 231.229520
  L 220.000000 231.321792
  L 216.000000 231.499585
  L 212.000000 231.326785
  L 208.000000 230.415617
  L 204.000000 230.675797
  L 200.000000 231.147683
  L 196.000000 232.252707
  L 192.000000 231.796606
  L 188.000000 232.028829
  L 184.000000 230.976894
  L 180.000000 230.287410
  L 176.000000 230.531609
  L 172.000000 230.262122
  L 168.000000 230.058312
  L 164.000000 230.097581
  L 160.000000 229.966342
  L 156.000000 231.013551
  L 152.000000 230.501197
  L 148.000000 228.939288
  L 144.000000 228.731081
  L 140.000000 229.673227
  L 136.000000 228.101865
  L 132.000000 229.187016
  L 128.000000 229.162848
  L 124.000000 228.838912
  L 120.000000 229.356131
  L 116.000000 228.753528
  L 112.000000 229.566555
  L 108.000000 226.471968
  L 104.000000 224.861251
  L 100.000000 213.802059
  L 96.000000 228.227249
  L 92.000000 231.535206
  L 88.000000 204.948760
  L 84.000000 209.539795
Z" fill="rgb(248,118,109)" fill-opacity="0.2"/>
<path d="M 84.000000 151.534326
  L 88.000000 237.908663
  L 92.000000 236.290355
  L 96.000000 237.465846
  L 100.000000 235.576131
  L 104.000000 236.556929
  L 108.000000 236.253741
  L 112.000000 233.848698
  L 116.000000 235.841785
  L 120.000000 234.719435
  L 124.000000 236.449360
  L 128.000000 236.520535
  L 132.000000 234.880988
  L 136.000000 234.880525
  L 140.000000 237.550594
  L 144.000000 232.791674
  L 148.000000 236.121277
  L 152.000000 235.480453
  L 156.000000 235.804766
  L 160.000000 234.187755
  L 164.000000 236.556955
  L 168.000000 233.839837
  L 172.000000 235.300651
  L 176.000000 234.655493
  L 180.000000 235.265320
  L 184.000000 236.881319
  L 188.000000 234.863740
  L 192.000000 236.020252
  L 196.000000 234.713835
  L 200.000000 233.356892
  L 204.000000 233.424982
  L 208.000000 235.339981
  L 212.000000 234.767566
  L 216.000000 236.086442
  L 220.000000 234.286796
  L 224.000000 235.661071
  L 228.000000 234.191672
  L 232.000000 233.438643
  L 236.000000 234.680191
  L 240.000000 232.926489
  L 244.000000 235.435256
  L 248.000000 235.180999
  L 252.000000 234.188550
  L 256.000000 235.689935
  L 260.000000 234.741317
  L 264.000000 234.830940
  L 268.000000 234.771463
  L 272.000000 233.831472
  L 276.000000 234.532714
  L 280.000000 234.923663
  L 284.000000 235.329761
  L 288.000000 234.392940
  L 292.000000 234.458211
  L 296.000000 233.657961
  L 300.000000 234.108655
  L 304.000000 234.257410
  L 308.000000 235.510172
  L 312.000000 235.238424
  L 316.000000 235.341320
  L 320.000000 234.999901
  L 324.000000 235.068222
  L 328.000000 233.185765
  L 332.000000 235.284873
  L 336.000000 234.039629
  L 340.000000 235.881804
  L 344.000000 235.423942
  L 348.000000 235.631268
  L 352.000000 235.656303
  L 356.000000 234.395702
  L 360.000000 235.241795
  L 364.000000 235.685412
  L 368.000000 234.488916
  L 372.000000 236.075887
  L 376.000000 237.129913
  L 380.000000 235.821548
  L 384.000000 236.092205
  L 388.000000 236.599862
  L 392.000000 234.127243
  L 396.000000 236.119066
  L 400.000000 234.888735
  L 404.000000 236.559424
  L 408.000000 235.990561
  L 412.000000 236.384986
  L 416.000000 236.550534
  L 420.000000 237.229653
  L 424.000000 236.070015
  L 428.000000 237.806286
  L 432.000000 236.516658
  L 436.000000 237.345327
  L 440.000000 238.794137
  L 444.000000 237.594503
  L 448.000000 238.227046
  L 452.000000 237.755523
  L 456.000000 237.670864
  L 460.000000 239.418002
  L 464.000000 239.729001
  L 468.000000 240.802242
  L 472.000000 240.061419
  L 476.000000 239.062598
  L 480.000000 240.375071
  L 484.000000 239.527889
  L 488.000000 239.317368
  L 492.000000 240.239401
  L 496.000000 240.877529
  L 500.000000 242.362123
  L 504.000000 242.160425
  L 508.000000 242.459040
  L 512.000000 241.750376
  L 516.000000 242.286850
  L 520.000000 242.542826
  L 524.000000 242.814323
  L 528.000000 244.425765
  L 532.000000 246.105280
  L 536.000000 247.180185
  L 540.000000 248.472094
  L 544.000000 247.896133
  L 548.000000 248.837768
  L 552.000000 246.334982
  L 556.000000 246.832698
  L 560.000000 253.410449
  L 564.000000 267.671068
  L 568.000000 272.773157
  L 572.000000 320.972100
  L 576.000000 465.031190
  L 580.000000 557.020281
  L 580.000000 556.334021
  L 576.000000 463.988233
  L 572.000000 319.519985
  L 568.000000 271.242568
  L 564.000000 266.235749
  L 560.000000 252.032707
  L 556.000000 245.487659
  L 552.000000 244.993015
  L 548.000000 247.447133
  L 544.000000 246.532461
  L 540.000000 247.106828
  L 536.000000 245.814193
  L 532.000000 244.739776
  L 528.000000 243.063693
  L 524.000000 241.472126
  L 520.000000 241.197221
  L 516.000000 240.941300
  L 512.000000 240.411686
  L 508.000000 241.109220
  L 504.000000 240.816223
  L 500.000000 241.018145
  L 496.000000 239.547217
  L 492.000000 238.911704
  L 488.000000 237.998198
  L 484.000000 238.200710
  L 480.000000 239.050764
  L 476.000000 237.744200
  L 472.000000 238.736261
  L 468.000000 239.468862
  L 464.000000 238.409135
  L 460.000000 238.091718
  L 456.000000 236.364331
  L 452.000000 236.442423
  L 448.000000 236.913812
  L 444.000000 236.289855
  L 440.000000 237.476475
  L 436.000000 236.030729
  L 432.000000 235.214668
  L 428.000000 236.493718
  L 424.000000 234.778075
  L 420.000000 235.924385
  L 416.000000 235.248975
  L 412.000000 235.077947
  L 408.000000 234.686989
  L 404.000000 235.253203
  L 400.000000 233.597323
  L 396.000000 234.818673
  L 392.000000 232.844706
  L 388.000000 235.282164
  L 384.000000 234.796117
  L 380.000000 234.525941
  L 376.000000 235.815456
  L 372.000000 234.770256
  L 368.000000 233.203285
  L 364.000000 234.387384
  L 360.000000 233.949339
  L 356.000000 233.107559
  L 352.000000 234.352727
  L 348.000000 234.331798
  L 344.000000 234.125665
  L 340.000000 234.580015
  L 336.000000 232.749939
  L 332.000000 233.987091
  L 328.000000 231.906920
  L 324.000000 233.771910
  L 320.000000 233.711275
  L 316.000000 234.034875
  L 312.000000 233.942490
  L 308.000000 234.201882
  L 304.000000 232.972845
  L 300.000000 232.819589
  L 296.000000 232.379296
  L 292.000000 233.162159
  L 288.000000 233.096567
  L 284.000000 234.028241
  L 280.000000 233.624898
  L 276.000000 233.243017
  L 272.000000 232.553578
  L 268.000000 233.467613
  L 264.000000 233.536146
  L 260.000000 233.454455
  L 256.000000 234.386215
  L 252.000000 232.900238
  L 248.000000 233.878880
  L 244.000000 234.123460
  L 240.000000 231.660178
  L 236.000000 233.388166
  L 232.000000 232.147887
  L 228.000000 232.900549
  L 224.000000 234.353730
  L 220.000000 233.001746
  L 216.000000 234.777663
  L 212.000000 233.466886
  L 208.000000 234.044264
  L 204.000000 232.137959
  L 200.000000 232.082656
  L 196.000000 233.412883
  L 192.000000 234.713249
  L 188.000000 233.563538
  L 184.000000 235.569254
  L 180.000000 233.967838
  L 176.000000 233.368324
  L 172.000000 233.996781
  L 168.000000 232.547725
  L 164.000000 235.245320
  L 160.000000 232.896244
  L 156.000000 234.498374
  L 152.000000 234.177330
  L 148.000000 234.805961
  L 144.000000 231.521277
  L 140.000000 236.223190
  L 136.000000 233.587751
  L 132.000000 233.583597
  L 128.000000 235.202948
  L 124.000000 235.132024
  L 120.000000 233.425712
  L 116.000000 234.540925
  L 112.000000 232.558143
  L 108.000000 234.925498
  L 104.000000 235.274154
  L 100.000000 234.251473
  L 96.000000 236.135366
  L 92.000000 234.962863
  L 88.000000 236.585598
  L 84.000000 150.601174
Z" fill="rgb(0,191,196)" fill-opacity="0.2"/>
<path d="M 84.000000 210.096426
  L 88.000000 205.627643
  L 92.000000 232.206029
  L 96.000000 228.866696
  L 100.000000 214.419593
  L 104.000000 225.482458
  L 108.000000 227.129060
  L 112.000000 230.219657
  L 116.000000 229.394179
  L 120.000000 230.001174
  L 124.000000 229.487316
  L 128.000000 229.811549
  L 132.000000 229.836720
  L 136.000000 228.747592
  L 140.000000 230.324925
  L 144.000000 229.375484
  L 148.000000 229.582996
  L 152.000000 231.153209
  L 156.000000 231.666191
  L 160.000000 230.612175
  L 164.000000 230.743721
  L 168.000000 230.704060
  L 172.000000 230.907246
  L 176.000000 231.180162
  L 180.000000 230.931472
  L 184.000000 231.624127
  L 188.000000 232.681717
  L 192.000000 232.446656
  L 196.000000 232.903494
  L 200.000000 231.792769
  L 204.000000 231.319115
  L 208.000000 231.056186
  L 212.000000 231.973126
  L 216.000000 232.148041
  L 220.000000 231.969085
  L 224.000000 231.874721
  L 228.000000 232.464340
  L 232.000000 231.587916
  L 236.000000 232.679366
  L 240.000000 232.014117
  L 244.000000 232.024205
  L 248.000000 232.624697
  L 252.000000 232.199687
  L 256.000000 231.807673
  L 260.000000 232.178978
  L 264.000000 231.632308
  L 268.000000 232.517479
  L 272.000000 232.721515
  L 276.000000 232.582151
  L 280.000000 232.509178
  L 284.000000 233.574775
  L 288.000000 233.053939
  L 292.000000 232.500160
  L 296.000000 232.260491
  L 300.000000 232.951194
  L 304.000000 232.740074
  L 308.000000 233.045292
  L 312.000000 232.704492
  L 316.000000 233.405942
  L 320.000000 233.446379
  L 324.000000 233.452419
  L 328.000000 233.278551
  L 332.000000 232.551408
  L 336.000000 232.594881
  L 340.000000 233.321836
  L 344.000000 234.013502
  L 348.000000 233.903356
  L 352.000000 233.555128
  L 356.000000 233.821532
  L 360.000000 233.271372
  L 364.000000 233.640223
  L 368.000000 233.858384
  L 372.000000 234.213993
  L 376.000000 234.483258
  L 380.000000 233.898414
  L 384.000000 234.236299
  L 388.000000 234.302476
  L 392.000000 234.831141
  L 396.000000 234.534150
  L 400.000000 234.657941
  L 404.000000 234.592160
  L 408.000000 234.756261
  L 412.000000 235.152560
  L 416.000000 234.904459
  L 420.000000 235.548117
  L 424.000000 234.691476
  L 428.000000 235.171849
  L 432.000000 235.684690
  L 436.000000 235.280390
  L 440.000000 236.136221
  L 444.000000 236.464052
  L 448.000000 236.065483
  L 452.000000 236.053738
  L 456.000000 235.990558
  L 460.000000 236.134440
  L 464.000000 236.407417
  L 468.000000 237.295052
  L 472.000000 236.940361
  L 476.000000 237.158414
  L 480.000000 237.399441
  L 484.000000 238.083310
  L 488.000000 237.565670
  L 492.000000 237.888472
  L 496.000000 238.443471
  L 500.000000 237.875684
  L 504.000000 238.427326
  L 508.000000 238.257425
  L 512.000000 238.693212
  L 516.000000 239.165181
  L 520.000000 239.509273
  L 524.000000 239.603791
  L 528.000000 239.703800
  L 532.000000 240.110422
  L 536.000000 240.228141
  L 540.000000 240.447370
  L 544.000000 240.264377
  L 548.000000 240.476012
  L 552.000000 240.237054
  L 556.000000 241.293329
  L 560.000000 242.780307
  L 564.000000 244.397440
  L 568.000000 244.840541
  L 572.000000 246.498677
  L 576.000000 250.496794
  L 580.000000 254.970551
" stroke="rgb(248,118,109)" stroke-width="2" fill-opacity="0"/>
<path d="M 84.000000 151.066472
  L 88.000000 237.246377
  L 92.000000 235.625833
  L 96.000000 236.799840
  L 100.000000 234.913021
  L 104.000000 235.914820
  L 108.000000 235.588843
  L 112.000000 233.202662
  L 116.000000 235.190605
  L 120.000000 234.071820
  L 124.000000 235.789930
  L 128.000000 235.860980
  L 132.000000 234.231537
  L 136.000000 234.233388
  L 140.000000 236.886130
  L 144.000000 232.155730
  L 148.000000 235.462855
  L 152.000000 234.828135
  L 156.000000 235.150814
  L 160.000000 233.541243
  L 164.000000 235.900383
  L 168.000000 233.193021
  L 172.000000 234.647957
  L 176.000000 234.011162
  L 180.000000 234.615827
  L 184.000000 236.224535
  L 188.000000 234.212879
  L 192.000000 235.365996
  L 196.000000 234.062597
  L 200.000000 232.719029
  L 204.000000 232.780712
  L 208.000000 234.691373
  L 212.000000 234.116465
  L 216.000000 235.431297
  L 220.000000 233.643523
  L 224.000000 235.006642
  L 228.000000 233.545355
  L 232.000000 232.792502
  L 236.000000 234.033427
  L 240.000000 232.292594
  L 244.000000 234.778591
  L 248.000000 234.529182
  L 252.000000 233.543642
  L 256.000000 235.037321
  L 260.000000 234.097141
  L 264.000000 234.182790
  L 268.000000 234.118773
  L 272.000000 233.191781
  L 276.000000 233.887115
  L 280.000000 234.273524
  L 284.000000 234.678245
  L 288.000000 233.743994
  L 292.000000 233.809427
  L 296.000000 233.017882
  L 300.000000 233.463368
  L 304.000000 233.614380
  L 308.000000 234.855266
  L 312.000000 234.589707
  L 316.000000 234.687336
  L 320.000000 234.354844
  L 324.000000 234.419313
  L 328.000000 232.545591
  L 332.000000 234.635230
  L 336.000000 233.394029
  L 340.000000 235.230159
  L 344.000000 234.774053
  L 348.000000 234.980783
  L 352.000000 235.003760
  L 356.000000 233.750881
  L 360.000000 234.594821
  L 364.000000 235.035650
  L 368.000000 233.845355
  L 372.000000 235.422319
  L 376.000000 236.471933
  L 380.000000 235.173001
  L 384.000000 235.443420
  L 388.000000 235.940252
  L 392.000000 233.485228
  L 396.000000 235.468124
  L 400.000000 234.242280
  L 404.000000 235.905565
  L 408.000000 235.338024
  L 412.000000 235.730716
  L 416.000000 235.899012
  L 420.000000 236.576279
  L 424.000000 235.423308
  L 428.000000 237.149259
  L 432.000000 235.864919
  L 436.000000 236.687278
  L 440.000000 238.134568
  L 444.000000 236.941444
  L 448.000000 237.569690
  L 452.000000 237.098230
  L 456.000000 237.016861
  L 460.000000 238.754120
  L 464.000000 239.068338
  L 468.000000 240.134818
  L 472.000000 239.398107
  L 476.000000 238.402664
  L 480.000000 239.712189
  L 484.000000 238.863559
  L 488.000000 238.657049
  L 492.000000 239.574819
  L 496.000000 240.211643
  L 500.000000 241.689405
  L 504.000000 241.487593
  L 508.000000 241.783395
  L 512.000000 241.080301
  L 516.000000 241.613343
  L 520.000000 241.869295
  L 524.000000 242.142502
  L 528.000000 243.744003
  L 532.000000 245.421816
  L 536.000000 246.496487
  L 540.000000 247.788774
  L 544.000000 247.213606
  L 548.000000 248.141742
  L 552.000000 245.663313
  L 556.000000 246.159495
  L 560.000000 252.720929
  L 564.000000 266.952854
  L 568.000000 272.007288
  L 572.000000 320.245960
  L 576.000000 464.510535
  L 580.000000 556.679552
" stroke="rgb(0,191,196)" stroke-width="2" fill-opacity="0"/>
<text x="650" y="650" text-anchor="end">--OT 3,0,2,120</text>
<line x1="92.000000" y1="580" x2="92.000000" y2="80" stroke-dasharray="5 1" stroke="rgb(248,118,109)" stroke-width="1" />
<line x1="88.000000" y1="580" x2="88.000000" y2="80" stroke-dasharray="5 1" stroke="rgb(0,191,196)" stroke-width="1" />
<line x1="560.000000" y1="580" x2="560.000000" y2="80" stroke-dasharray="5 1" stroke="rgb(0,191,196)" stroke-width="1" />
<rect x="590" y="310" width="20" height="20" fill="rgb(248,118,109)" />
<text x="615" y="320" text-anchor="start" dominant-baseline="middle">#1</text>
<rect x="590" y="330" width="20" height="20" fill="rgb(0,191,196)" />
<text x="615" y="340" text-anchor="start" dominant-baseline="middle">#2</text>
</svg>
