<svg height="660" width="660"
    xmlns="http://www.w3.org/2000/svg"
    xmlns:xlink="http://www.w3.org/1999/xlink"
    xmlns:ev="http://www.w3.org/2001/xml-events">
<title>Original Top Strand</title>
<rect x="0" y="0" width="660" height="660" fill="white" />
<text x="330" y="20" text-anchor="middle">Original Top Strand</text>
<line x1="80" y1="80" x2="80" y2="580" stroke="black" />
<line x1="80" y1="580" x2="580" y2="580" stroke="black" />
<text x="15" y="330" transform="rotate(270 15, 330)" text-anchor="middle" dominant-baseline="text-before-edge">CpG Methylation %</text>
<text x="330" y="620" text-anchor="middle">Position along mapped read (5'->3' of + strand)</text>
<line x1="80" y1="580" x2="80" y2="585" stroke="black" />
<text x="80" y="600" text-anchor="middle">0</text>
<line x1="120.000000" y1="80" x2="120.000000" y2="580" stroke-dasharray="5 5" stroke="grey" />
<line x1="120.000000" y1="580" x2="120.000000" y2="585" stroke="black" />
<text x="120.000000" y="600" text-anchor="middle">10</text>
<line x1="160.000000" y1="80" x2="160.000000" y2="580" stroke-dasharray="5 5" stroke="grey" />
<line x1="160.000000" y1="580" x2="160.000000" y2="585" stroke="black" />
<text x="160.000000" y="600" text-anchor="middle">20</text>
<line x1="200.000000" y1="80" x2="200.000000" y2="580" stroke-dasharray="5 5" stroke="grey" />
<line x1="200.000000" y1="580" x2="200.000000" y2="585" stroke="black" />
<text x="200.000000" y="600" text-anchor="middle">30</text>
<line x1="240.000000" y1="80" x2="240.000000" y2="580" stroke-dasharray="5 5" stroke="grey" />
<line x1="240.000000" y1="580" x2="240.000000" y2="585" stroke="black" />
<text x="240.000000" y="600" text-anchor="middle">40</text>
<line x1="280.000000" y1="80" x2="280.000000" y2="580" stroke-dasharray="5 5" stroke="grey" />
<line x1="280.000000" y1="580" x2="280.000000" y2="585" stroke="black" />
<text x="280.000000" y="600" text-anchor="middle">50</text>
<line x1="320.000000" y1="80" x2="320.000000" y2="580" stroke-dasharray="5 5" stroke="grey" />
<line x1="320.000000" y1="580" x2="320.000000" y2="585" stroke="black" />
<text x="320.000000" y="600" text-anchor="middle">60</text>
<line x1="360.000000" y1="80" x2="360.000000" y2="580" stroke-dasharray="5 5" stroke="grey" />
<line x1="360.000000" y1="580" x2="360.000000" y2="585" stroke="black" />
<text x="360.000000" y="600" text-anchor="middle">70</text>
<line x1="400.000000" y1="80" x2="400.000000" y2="580" stroke-dasharray="5 5" stroke="grey" />
<line x1="400.000000" y1="580" x2="400.000000" y2="585" stroke="black" />
<text x="400.000000" y="600" text-anchor="middle">80</text>
<line x1="440.000000" y1="80" x2="440.000000" y2="580" stroke-dasharray="5 5" stroke="grey" />
<line x1="440.000000" y1="580" x2="440.000000" y2="585" stroke="black" />
<text x="440.000000" y="600" text-anchor="middle">90</text>
<line x1="480.000000" y1="80" x2="480.000000" y2="580" stroke-dasharray="5 5" stroke="grey" />
<line x1="480.000000" y1="580" x2="480.000000" y2="585" stroke="black" />
<text x="480.000000" y="600" text-anchor="middle">100</text>
<line x1="520.000000" y1="80" x2="520.000000" y2="580" stroke-dasharray="5 5" stroke="grey" />
<line x1="520.000000" y1="580" x2="520.000000" y2="585" stroke="black" />
<text x="520.000000" y="600" text-anchor="middle">110</text>
<line x1="560.000000" y1="80" x2="560.000000" y2="580" stroke-dasharray="5 5" stroke="grey" />
<line x1="560.000000" y1="580" x2="560.000000" y2="585" stroke="black" />
<text x="560.000000" y="600" text-anchor="middle">120</text>
<line x1="80" y1="580.000000" x2="75" y2="580.000000" stroke="black" />
<text x="55" y="580.000000" text-anchor="middle" dominant-baseline="middle">0.00</text>
<line x1="80" y1="555.000000" x2="75" y2="555.000000" stroke="black" />
<text x="55" y="555.000000" text-anchor="middle" dominant-baseline="middle">0.05</text>
<line x1="80" y1="530.000000" x2="75" y2="530.000000" stroke="black" />
<text x="55" y="530.000000" text-anchor="middle" dominant-baseline="middle">0.10</text>
<line x1="80" y1="505.000000" x2="75" y2="505.000000" stroke="black" />
<text x="55" y="505.000000" text-anchor="middle" dominant-baseline="middle">0.15</text>
<line x1="80" y1="480.000000" x2="75" y2="480.000000" stroke="black" />
<text x="55" y="480.000000" text-anchor="middle" dominant-baseline="middle">0.20</text>
<line x1="80" y1="455.000000" x2="75" y2="455.000000" stroke="black" />
<text x="55" y="455.000000" text-anchor="middle" dominant-baseline="middle">0.25</text>
<line x1="80" y1="430.000000" x2="75" y2="430.000000" stroke="black" />
<text x="55" y="430.000000" text-anchor="middle" dominant-baseline="middle">0.30</text>
<line x1="80" y1="405.000000" x2="75" y2="405.000000" stroke="black" />
<text x="55" y="405.000000" text-anchor="middle" dominant-baseline="middle">0.35</text>
<line x1="80" y1="380.000000" x2="75" y2="380.000000" stroke="black" />
<text x="55" y="380.000000" text-anchor="middle" dominant-baseline="middle">0.40</text>
<line x1="80" y1="355.000000" x2="75" y2="355.000000" stroke="black" />
<text x="55" y="355.000000" text-anchor="middle" dominant-baseline="middle">0.45</text>
<line x1="80" y1="330.000000" x2="75" y2="330.000000" stroke="black" />
<text x="55" y="330.000000" text-anchor="middle" dominant-baseline="middle">0.50</text>
<line x1="80" y1="305.000000" x2="75" y2="305.000000" stroke="black" />
<text x="55" y="305.000000" text-anchor="middle" dominant-baseline="middle">0.55</text>
<line x1="80" y1="280.000000" x2="75" y2="280.000000" stroke="black" />
<text x="55" y="280.000000" text-anchor="middle" dominant-baseline="middle">0.60</text>
<line x1="80" y1="255.000000" x2="75" y2="255.000000" stroke="black" />
<text x="55" y="255.000000" text-anchor="middle" dominant-baseline="middle">0.65</text>
<line x1="80" y1="230.000000" x2="75" y2="230.000000" stroke="black" />
<text x="55" y="230.000000" text-anchor="middle" dominant-baseline="middle">0.70</text>
<line x1="80" y1="205.000000" x2="75" y2="205.000000" stroke="black" />
<text x="55" y="205.000000" text-anchor="middle" dominant-baseline="middle">0.75</text>
<line x1="80" y1="180.000000" x2="75" y2="180.000000" stroke="black" />
<text x="55" y="180.000000" text-anchor="middle" dominant-baseline="middle">0.80</text>
<line x1="80" y1="155.000000" x2="75" y2="155.000000" stroke="black" />
<text x="55" y="155.000000" text-anchor="middle" dominant-baseline="middle">0.85</text>
<line x1="80" y1="130.000000" x2="75" y2="130.000000" stroke="black" />
<text x="55" y="130.000000" text-anchor="middle" dominant-baseline="middle">0.90</text>
<line x1="80" y1="105.000000" x2="75" y2="105.000000" stroke="black" />
<text x="55" y="105.000000" text-anchor="middle" dominant-baseline="middle">0.95</text>
<line x1="80" y1="80.000000" x2="75" y2="80.000000" stroke="black" />
<text x="55" y="80.000000" text-anchor="middle" dominant-baseline="middle">1.00</text>
<path d="M 84.000000 221.634242
  L 88.000000 226.855956
  L 92.000000 250.878259
  L 96.000000 244.476710
  L 100.000000 230.174184
  L 104.000000 242.940860
  L 108.000000 244.214676
  L 112.000000 247.565345
  L 116.000000 246.823844
  L 120.000000 248.276270
  L 124.000000 248.380164
  L 128.000000 246.895246
  L 132.000000 246.969618
  L 136.000000 246.116522
  L 140.000000 247.912174
  L 144.000000 247.343292
  L 148.000000 247.431673
  L 152.000000 249.362991
  L 156.000000 250.094336
  L 160.000000 249.033209
  L 164.000000 248.914784
  L 168.000000 249.034598
  L 172.000000 248.151141
  L 176.000000 249.031159
  L 180.000000 248.171335
  L 184.000000 249.767190
  L 188.000000 251.107999
  L 192.000000 251.120409
  L 196.000000 251.246788
  L 200.000000 250.997915
  L 204.000000 249.623031
  L 208.000000 249.120131
  L 212.000000 249.981366
  L 216.000000 250.098987
  L 220.000000 250.043489
  L 224.000000 250.134163
  L 228.000000 250.260599
  L 232.000000 250.357536
  L 236.000000 251.008130
  L 240.000000 250.773006
  L 244.000000 250.614793
  L 248.000000 251.465188
  L 252.000000 250.692396
  L 256.000000 250.365364
  L 260.000000 250.142174
  L 264.000000 250.265973
  L 268.000000 251.318915
  L 272.000000 251.889622
  L 276.000000 251.624436
  L 280.000000 251.861070
  L 284.000000 251.862837
  L 288.000000 252.450821
  L 292.000000 251.499130
  L 296.000000 250.876690
  L 300.000000 251.002362
  L 304.000000 251.420365
  L 308.000000 251.649156
  L 312.000000 252.052984
  L 316.000000 252.743856
  L 320.000000 253.224855
  L 324.000000 253.185190
  L 328.000000 252.345376
  L 332.000000 251.437732
  L 336.000000 251.622470
  L 340.000000 251.824289
  L 344.000000 252.986372
  L 348.000000 252.501674
  L 352.000000 252.904676
  L 356.000000 252.916735
  L 360.000000 253.979967
  L 364.000000 253.230762
  L 368.000000 253.194599
  L 372.000000 253.119936
  L 376.000000 253.378717
  L 380.000000 253.200761
  L 384.000000 252.493083
  L 388.000000 252.818029
  L 392.000000 253.552964
  L 396.000000 253.705437
  L 400.000000 253.509220
  L 404.000000 253.734530
  L 408.000000 253.349321
  L 412.000000 253.932843
  L 416.000000 253.865645
  L 420.000000 253.494279
  L 424.000000 253.338343
  L 428.000000 253.526330
  L 432.000000 254.029558
  L 436.000000 254.723876
  L 440.000000 255.489540
  L 444.000000 255.204916
  L 448.000000 254.754564
  L 452.000000 254.955924
  L 456.000000 253.842297
  L 460.000000 254.482563
  L 464.000000 254.202511
  L 468.000000 255.377452
  L 472.000000 255.242652
  L 476.000000 255.472810
  L 480.000000 256.414744
  L 484.000000 257.044406
  L 488.000000 256.538705
  L 492.000000 256.667618
  L 496.000000 256.474205
  L 500.000000 256.622958
  L 504.000000 256.577802
  L 508.000000 256.531923
  L 512.000000 256.991027
  L 516.000000 257.814563
  L 520.000000 258.682359
  L 524.000000 258.695598
  L 528.000000 259.349195
  L 532.000000 259.283383
  L 536.000000 259.622962
  L 540.000000 258.647402
  L 544.000000 258.869817
  L 548.000000 259.388519
  L 552.000000 259.071953
  L 556.000000 259.787777
  L 560.000000 262.107844
  L 564.000000 263.241745
  L 568.000000 263.574343
  L 572.000000 266.206130
  L 576.000000 270.449391
  L 580.000000 274.882621
  L 580.000000 273.361447
  L 576.000000 268.987301
  L 572.000000 264.788792
  L 568.000000 262.169924
  L 564.000000 261.859889
  L 560.000000 260.730033
  L 556.000000 258.419931
  L 552.000000 257.711483
  L 548.000000 258.030173
  L 544.000000 257.511067
  L 540.000000 257.293698
  L 536.000000 258.268649
  L 532.000000 257.930166
  L 528.000000 257.998864
  L 524.000000 257.346899
  L 520.000000 257.333022
  L 516.000000 256.468187
  L 512.000000 255.646671
  L 508.000000 255.190464
  L 504.000000 255.237848
  L 500.000000 255.284841
  L 496.000000 255.133497
  L 492.000000 255.326453
  L 488.000000 255.200773
  L 484.000000 255.704848
  L 480.000000 255.079653
  L 476.000000 254.140961
  L 472.000000 253.910569
  L 468.000000 254.043452
  L 464.000000 252.875243
  L 460.000000 253.156791
  L 456.000000 252.518788
  L 452.000000 253.626779
  L 448.000000 253.427269
  L 444.000000 253.874658
  L 440.000000 254.159875
  L 436.000000 253.396857
  L 432.000000 252.705558
  L 428.000000 252.200688
  L 424.000000 252.016221
  L 420.000000 252.171208
  L 416.000000 252.542085
  L 412.000000 252.605184
  L 408.000000 252.027140
  L 404.000000 252.410409
  L 400.000000 252.184593
  L 396.000000 252.380988
  L 392.000000 252.227811
  L 388.000000 251.494171
  L 384.000000 251.173424
  L 380.000000 251.879242
  L 376.000000 252.055746
  L 372.000000 251.798857
  L 368.000000 251.872898
  L 364.000000 251.905901
  L 360.000000 252.646402
  L 356.000000 251.595793
  L 352.000000 251.583919
  L 348.000000 251.178753
  L 344.000000 251.658462
  L 340.000000 250.502608
  L 336.000000 250.306772
  L 332.000000 250.123924
  L 328.000000 251.027970
  L 324.000000 251.864331
  L 320.000000 251.903440
  L 316.000000 251.422111
  L 312.000000 250.732389
  L 308.000000 250.330317
  L 304.000000 250.104109
  L 300.000000 249.688021
  L 296.000000 249.563056
  L 292.000000 250.180061
  L 288.000000 251.126317
  L 284.000000 250.538981
  L 280.000000 250.543231
  L 276.000000 250.311406
  L 272.000000 250.567553
  L 268.000000 249.992953
  L 264.000000 248.951575
  L 260.000000 248.826460
  L 256.000000 249.047088
  L 252.000000 249.371896
  L 248.000000 250.142351
  L 244.000000 249.298934
  L 240.000000 249.460625
  L 236.000000 249.690147
  L 232.000000 249.040711
  L 228.000000 248.937224
  L 224.000000 248.813990
  L 220.000000 248.725752
  L 216.000000 248.777491
  L 212.000000 248.663434
  L 208.000000 247.811549
  L 204.000000 248.309023
  L 200.000000 249.675398
  L 196.000000 249.918885
  L 192.000000 249.792599
  L 188.000000 249.778584
  L 184.000000 248.445287
  L 180.000000 246.859976
  L 176.000000 247.710273
  L 172.000000 246.840748
  L 168.000000 247.715974
  L 164.000000 247.597701
  L 160.000000 247.711772
  L 156.000000 248.762645
  L 152.000000 248.032069
  L 148.000000 246.120368
  L 144.000000 246.027324
  L 140.000000 246.585227
  L 136.000000 244.797568
  L 132.000000 245.645074
  L 128.000000 245.572633
  L 124.000000 247.056198
  L 120.000000 246.964992
  L 116.000000 245.519268
  L 112.000000 246.230123
  L 108.000000 242.859290
  L 104.000000 241.653590
  L 100.000000 228.895771
  L 96.000000 243.171084
  L 92.000000 249.489753
  L 88.000000 225.381716
  L 84.000000 220.505870
Z" fill="rgb(248,118,109)" fill-opacity="0.2"/>
<path d="M 84.000000 163.645428
  L 88.000000 256.267434
  L 92.000000 254.618094
  L 96.000000 256.059992
  L 100.000000 255.416545
  L 104.000000 255.167641
  L 108.000000 252.707257
  L 112.000000 252.221442
  L 116.000000 253.935768
  L 120.000000 252.902869
  L 124.000000 254.634821
  L 128.000000 254.172787
  L 132.000000 253.767781
  L 136.000000 253.654948
  L 140.000000 255.204633
  L 144.000000 251.433439
  L 148.000000 253.868824
  L 152.000000 253.540329
  L 156.000000 253.891825
  L 160.000000 252.673727
  L 164.000000 255.051771
  L 168.000000 253.061769
  L 172.000000 253.734523
  L 176.000000 253.403402
  L 180.000000 253.126992
  L 184.000000 255.536597
  L 188.000000 252.433405
  L 192.000000 253.249804
  L 196.000000 252.931572
  L 200.000000 251.036245
  L 204.000000 251.060866
  L 208.000000 254.240088
  L 212.000000 252.812337
  L 216.000000 254.971112
  L 220.000000 252.104406
  L 224.000000 254.380339
  L 228.000000 251.898795
  L 232.000000 251.033566
  L 236.000000 252.663609
  L 240.000000 251.001705
  L 244.000000 253.194484
  L 248.000000 253.313059
  L 252.000000 252.344728
  L 256.000000 254.504530
  L 260.000000 252.803802
  L 264.000000 252.668081
  L 268.000000 252.338508
  L 272.000000 251.527407
  L 276.000000 252.152729
  L 280.000000 253.193420
  L 284.000000 253.388043
  L 288.000000 252.545532
  L 292.000000 252.649726
  L 296.000000 252.123136
  L 300.000000 252.933678
  L 304.000000 252.413399
  L 308.000000 253.274315
  L 312.000000 252.992301
  L 316.000000 253.111886
  L 320.000000 252.919012
  L 324.000000 252.220849
  L 328.000000 251.369211
  L 332.000000 253.542714
  L 336.000000 252.605123
  L 340.000000 254.248521
  L 344.000000 253.267339
  L 348.000000 253.946312
  L 352.000000 253.143369
  L 356.000000 252.017617
  L 360.000000 253.338130
  L 364.000000 253.154649
  L 368.000000 252.939767
  L 372.000000 254.486910
  L 376.000000 255.623376
  L 380.000000 254.713006
  L 384.000000 253.774309
  L 388.000000 255.478226
  L 392.000000 252.698951
  L 396.000000 253.670825
  L 400.000000 253.873345
  L 404.000000 255.772348
  L 408.000000 255.146832
  L 412.000000 255.620732
  L 416.000000 255.610787
  L 420.000000 256.348952
  L 424.000000 254.584689
  L 428.000000 256.567749
  L 432.000000 256.229053
  L 436.000000 256.422592
  L 440.000000 256.917463
  L 444.000000 256.946671
  L 448.000000 257.305069
  L 452.000000 257.635535
  L 456.000000 257.622878
  L 460.000000 259.891351
  L 464.000000 260.211950
  L 468.000000 260.655434
  L 472.000000 260.619490
  L 476.000000 259.560395
  L 480.000000 260.193546
  L 484.000000 260.893126
  L 488.000000 260.889449
  L 492.000000 261.827164
  L 496.000000 262.767685
  L 500.000000 264.714192
  L 504.000000 265.239887
  L 508.000000 265.340258
  L 512.000000 265.345573
  L 516.000000 266.300822
  L 520.000000 266.268706
  L 524.000000 267.544992
  L 528.000000 270.046852
  L 532.000000 271.704405
  L 536.000000 274.063936
  L 540.000000 275.001999
  L 544.000000 274.127262
  L 548.000000 274.010354
  L 552.000000 271.582951
  L 556.000000 273.301628
  L 560.000000 283.009609
  L 564.000000 298.938050
  L 568.000000 305.148020
  L 572.000000 346.358393
  L 576.000000 469.852225
  L 580.000000 556.054628
  L 580.000000 555.334493
  L 576.000000 468.813365
  L 572.000000 344.901281
  L 568.000000 303.566953
  L 564.000000 297.470034
  L 560.000000 281.590588
  L 556.000000 271.909035
  L 552.000000 270.193275
  L 548.000000 272.581163
  L 544.000000 272.730903
  L 540.000000 273.603942
  L 536.000000 272.667361
  L 532.000000 270.309095
  L 528.000000 268.653447
  L 524.000000 266.172619
  L 520.000000 264.892892
  L 516.000000 264.924010
  L 512.000000 263.976830
  L 508.000000 263.962398
  L 504.000000 263.866297
  L 500.000000 263.341923
  L 496.000000 261.410084
  L 492.000000 260.470311
  L 488.000000 259.545087
  L 484.000000 259.541192
  L 480.000000 258.844617
  L 476.000000 258.211967
  L 472.000000 259.271149
  L 468.000000 259.299010
  L 464.000000 258.865344
  L 460.000000 258.536113
  L 456.000000 256.290349
  L 452.000000 256.294526
  L 448.000000 255.967595
  L 444.000000 255.616537
  L 440.000000 255.576836
  L 436.000000 255.083102
  L 432.000000 254.899202
  L 428.000000 255.228015
  L 424.000000 253.267559
  L 420.000000 255.019955
  L 416.000000 254.281037
  L 412.000000 254.283272
  L 408.000000 253.812986
  L 404.000000 254.437274
  L 400.000000 252.551022
  L 396.000000 252.342349
  L 392.000000 251.387601
  L 388.000000 254.132302
  L 384.000000 252.453024
  L 380.000000 253.391310
  L 376.000000 254.282807
  L 372.000000 253.154803
  L 368.000000 251.628131
  L 364.000000 251.829671
  L 360.000000 252.018293
  L 356.000000 250.704946
  L 352.000000 251.815105
  L 348.000000 252.620053
  L 344.000000 251.943537
  L 340.000000 252.920446
  L 336.000000 251.287754
  L 332.000000 252.218313
  L 328.000000 250.064396
  L 324.000000 250.899518
  L 320.000000 251.602954
  L 316.000000 251.781255
  L 312.000000 251.672297
  L 308.000000 251.942271
  L 304.000000 251.101452
  L 300.000000 251.614509
  L 296.000000 250.816723
  L 292.000000 251.323639
  L 288.000000 251.222760
  L 284.000000 252.061787
  L 280.000000 251.867784
  L 276.000000 250.838799
  L 272.000000 250.222703
  L 268.000000 251.011235
  L 264.000000 251.346826
  L 260.000000 251.491346
  L 256.000000 253.171191
  L 252.000000 251.028538
  L 248.000000 251.985765
  L 244.000000 251.856246
  L 240.000000 249.710132
  L 236.000000 251.345218
  L 232.000000 249.716477
  L 228.000000 250.582661
  L 224.000000 253.047303
  L 220.000000 250.794807
  L 216.000000 253.634397
  L 212.000000 251.485674
  L 208.000000 252.918503
  L 204.000000 249.748615
  L 200.000000 249.736234
  L 196.000000 251.603232
  L 192.000000 251.916614
  L 188.000000 251.108018
  L 184.000000 254.197638
  L 180.000000 251.805705
  L 176.000000 252.087459
  L 172.000000 252.403141
  L 168.000000 251.739769
  L 164.000000 253.711367
  L 160.000000 251.354075
  L 156.000000 252.558519
  L 152.000000 252.207719
  L 148.000000 252.527090
  L 144.000000 250.134680
  L 140.000000 253.849607
  L 136.000000 252.332693
  L 132.000000 252.442928
  L 128.000000 252.827627
  L 124.000000 253.291682
  L 120.000000 251.582463
  L 116.000000 252.606159
  L 112.000000 250.903740
  L 108.000000 251.357173
  L 104.000000 253.857757
  L 100.000000 254.058767
  L 96.000000 254.700603
  L 92.000000 253.260088
  L 88.000000 254.915844
  L 84.000000 162.641530
Z" fill="rgb(0,191,196)" fill-opacity="0.2"/>
<path d="M 84.000000 221.069372
  L 88.000000 226.117744
  L 92.000000 250.183321
  L 96.000000 243.823231
  L 100.000000 229.534194
  L 104.000000 242.296562
  L 108.000000 243.536262
  L 112.000000 246.897068
  L 116.000000 246.170913
  L 120.000000 247.619995
  L 124.000000 247.717534
  L 128.000000 246.233279
  L 132.000000 246.306684
  L 136.000000 245.456381
  L 140.000000 247.248046
  L 144.000000 246.684659
  L 148.000000 246.775377
  L 152.000000 248.696886
  L 156.000000 249.427853
  L 160.000000 248.371853
  L 164.000000 248.255607
  L 168.000000 248.374651
  L 172.000000 247.495309
  L 176.000000 248.370078
  L 180.000000 247.515019
  L 184.000000 249.105607
  L 188.000000 250.442666
  L 192.000000 250.455880
  L 196.000000 250.582213
  L 200.000000 250.336036
  L 204.000000 248.965402
  L 208.000000 248.465215
  L 212.000000 249.321775
  L 216.000000 249.437611
  L 220.000000 249.383996
  L 224.000000 249.473450
  L 228.000000 249.598284
  L 232.000000 249.698502
  L 236.000000 250.348523
  L 240.000000 250.116203
  L 244.000000 249.956246
  L 248.000000 250.803153
  L 252.000000 250.031524
  L 256.000000 249.705603
  L 260.000000 249.483695
  L 264.000000 249.608154
  L 268.000000 250.655313
  L 272.000000 251.227976
  L 276.000000 250.967315
  L 280.000000 251.201543
  L 284.000000 251.200296
  L 288.000000 251.787960
  L 292.000000 250.838983
  L 296.000000 250.219260
  L 300.000000 250.344579
  L 304.000000 250.761626
  L 308.000000 250.989126
  L 312.000000 251.392078
  L 316.000000 252.082381
  L 320.000000 252.563549
  L 324.000000 252.524162
  L 328.000000 251.686070
  L 332.000000 250.780220
  L 336.000000 250.964013
  L 340.000000 251.162837
  L 344.000000 252.321810
  L 348.000000 251.839607
  L 352.000000 252.243697
  L 356.000000 252.255664
  L 360.000000 253.312582
  L 364.000000 252.567730
  L 368.000000 252.533150
  L 372.000000 252.458797
  L 376.000000 252.716633
  L 380.000000 252.539403
  L 384.000000 251.832650
  L 388.000000 252.155495
  L 392.000000 252.889789
  L 396.000000 253.042616
  L 400.000000 252.846308
  L 404.000000 253.071874
  L 408.000000 252.687633
  L 412.000000 253.268416
  L 416.000000 253.203271
  L 420.000000 252.832146
  L 424.000000 252.676684
  L 428.000000 252.862910
  L 432.000000 253.366965
  L 436.000000 254.059777
  L 440.000000 254.824123
  L 444.000000 254.539200
  L 448.000000 254.090327
  L 452.000000 254.290763
  L 456.000000 253.179948
  L 460.000000 253.819087
  L 464.000000 253.538283
  L 468.000000 254.709862
  L 472.000000 254.576022
  L 476.000000 254.806299
  L 480.000000 255.746618
  L 484.000000 256.374048
  L 488.000000 255.869157
  L 492.000000 255.996452
  L 496.000000 255.803266
  L 500.000000 255.953318
  L 504.000000 255.907242
  L 508.000000 255.860609
  L 512.000000 256.318266
  L 516.000000 257.140798
  L 520.000000 258.007119
  L 524.000000 258.020678
  L 528.000000 258.673463
  L 532.000000 258.606205
  L 536.000000 258.945238
  L 540.000000 257.969974
  L 544.000000 258.189864
  L 548.000000 258.708773
  L 552.000000 258.391140
  L 556.000000 259.103277
  L 560.000000 261.418375
  L 564.000000 262.550262
  L 568.000000 262.871563
  L 572.000000 265.496906
  L 576.000000 269.717799
  L 580.000000 274.121490
" stroke="rgb(248,118,109)" stroke-width="2" fill-opacity="0"/>
<path d="M 84.000000 163.142266
  L 88.000000 255.591042
  L 92.000000 253.938473
  L 96.000000 255.379692
  L 100.000000 254.737046
  L 104.000000 254.512129
  L 108.000000 252.031585
  L 112.000000 251.561987
  L 116.000000 253.270364
  L 120.000000 252.242065
  L 124.000000 253.962647
  L 128.000000 253.499596
  L 132.000000 253.104758
  L 136.000000 252.993226
  L 140.000000 254.526510
  L 144.000000 250.783465
  L 148.000000 253.197347
  L 152.000000 252.873418
  L 156.000000 253.224570
  L 160.000000 252.013299
  L 164.000000 254.380971
  L 168.000000 252.400169
  L 172.000000 253.068229
  L 176.000000 252.744839
  L 180.000000 252.465750
  L 184.000000 254.866525
  L 188.000000 251.770102
  L 192.000000 252.582600
  L 196.000000 252.266794
  L 200.000000 250.385641
  L 204.000000 250.404130
  L 208.000000 253.578707
  L 212.000000 252.148399
  L 216.000000 254.302159
  L 220.000000 251.449008
  L 224.000000 253.713223
  L 228.000000 251.240122
  L 232.000000 250.374407
  L 236.000000 252.003813
  L 240.000000 250.355327
  L 244.000000 252.524751
  L 248.000000 252.648809
  L 252.000000 251.686031
  L 256.000000 253.837264
  L 260.000000 252.146980
  L 264.000000 252.006850
  L 268.000000 251.674260
  L 272.000000 250.874456
  L 276.000000 251.495163
  L 280.000000 252.530000
  L 284.000000 252.724314
  L 288.000000 251.883540
  L 292.000000 251.986075
  L 296.000000 251.469334
  L 300.000000 252.273495
  L 304.000000 251.756828
  L 308.000000 252.607685
  L 312.000000 252.331700
  L 316.000000 252.445963
  L 320.000000 252.260387
  L 324.000000 251.559576
  L 328.000000 250.716203
  L 332.000000 252.879915
  L 336.000000 251.945838
  L 340.000000 253.583889
  L 344.000000 252.604838
  L 348.000000 253.282587
  L 352.000000 252.478631
  L 356.000000 251.360680
  L 360.000000 252.677615
  L 364.000000 252.491558
  L 368.000000 252.283357
  L 372.000000 253.820260
  L 376.000000 254.952499
  L 380.000000 254.051573
  L 384.000000 253.113073
  L 388.000000 254.804665
  L 392.000000 252.042682
  L 396.000000 253.005986
  L 400.000000 253.211591
  L 404.000000 255.104225
  L 408.000000 254.479317
  L 412.000000 254.951411
  L 416.000000 254.945328
  L 420.000000 255.683878
  L 424.000000 253.925542
  L 428.000000 255.897299
  L 432.000000 255.563550
  L 436.000000 255.752262
  L 440.000000 256.246569
  L 444.000000 256.281033
  L 448.000000 256.635758
  L 452.000000 256.964456
  L 456.000000 256.956046
  L 460.000000 259.213167
  L 464.000000 259.538091
  L 468.000000 259.976663
  L 472.000000 259.944767
  L 476.000000 258.885619
  L 480.000000 259.518525
  L 484.000000 260.216606
  L 488.000000 260.216721
  L 492.000000 261.148189
  L 496.000000 262.088344
  L 500.000000 264.027523
  L 504.000000 264.552561
  L 508.000000 264.650795
  L 512.000000 264.660676
  L 516.000000 265.611893
  L 520.000000 265.580276
  L 524.000000 266.858297
  L 528.000000 269.349649
  L 532.000000 271.006264
  L 536.000000 273.365183
  L 540.000000 274.302512
  L 544.000000 273.428618
  L 548.000000 273.295270
  L 552.000000 270.887629
  L 556.000000 272.604862
  L 560.000000 282.299700
  L 564.000000 298.203763
  L 568.000000 304.357227
  L 572.000000 345.629971
  L 576.000000 469.333667
  L 580.000000 555.697091
" stroke="rgb(0,191,196)" stroke-width="2" fill-opacity="0"/>
<text x="650" y="650" text-anchor="end">--OT 3,0,2,119</text>
<line x1="92.000000" y1="580" x2="92.000000" y2="80" stroke-dasharray="5 1" stroke="rgb(248,118,109)" stroke-width="1" />
<line x1="88.000000" y1="580" x2="88.000000" y2="80" stroke-dasharray="5 1" stroke="rgb(0,191,196)" stroke-width="1" />
<line x1="556.000000" y1="580" x2="556.000000" y2="80" stroke-dasharray="5 1" stroke="rgb(0,191,196)" stroke-width="1" />
<rect x="590" y="310" width="20" height="20" fill="rgb(248,118,109)" />
<text x="615" y="320" text-anchor="start" dominant-baseline="middle">#1</text>
<rect x="590" y="330" width="20" height="20" fill="rgb(0,191,196)" />
<text x="615" y="340" text-anchor="start" dominant-baseline="middle">#2</text>
</svg>
