<svg height="660" width="660"
    xmlns="http://www.w3.org/2000/svg"
    xmlns:xlink="http://www.w3.org/1999/xlink"
    xmlns:ev="http://www.w3.org/2001/xml-events">
<title>Original Bottom Strand</title>
<rect x="0" y="0" width="660" height="660" fill="white" />
<text x="330" y="20" text-anchor="middle">Original Bottom Strand</text>
<line x1="80" y1="80" x2="80" y2="580" stroke="black" />
<line x1="80" y1="580" x2="580" y2="580" stroke="black" />
<text x="15" y="330" transform="rotate(270 15, 330)" text-anchor="middle" dominant-baseline="text-before-edge">CpG Methylation %</text>
<text x="330" y="620" text-anchor="middle">Position along mapped read (5'->3' of + strand)</text>
<line x1="80" y1="580" x2="80" y2="585" stroke="black" />
<text x="80" y="600" text-anchor="middle">0</text>
<line x1="120.000000" y1="80" x2="120.000000" y2="580" stroke-dasharray="5 5" stroke="grey" />
<line x1="120.000000" y1="580" x2="120.000000" y2="585" stroke="black" />
<text x="120.000000" y="600" text-anchor="middle">10</text>
<line x1="160.000000" y1="80" x2="160.000000" y2="580" stroke-dasharray="5 5" stroke="grey" />
<line x1="160.000000" y1="580" x2="160.000000" y2="585" stroke="black" />
<text x="160.000000" y="600" text-anchor="middle">20</text>
<line x1="200.000000" y1="80" x2="200.000000" y2="580" stroke-dasharray="5 5" stroke="grey" />
<line x1="200.000000" y1="580" x2="200.000000" y2="585" stroke="black" />
<text x="200.000000" y="600" text-anchor="middle">30</text>
<line x1="240.000000" y1="80" x2="240.000000" y2="580" stroke-dasharray="5 5" stroke="grey" />
<line x1="240.000000" y1="580" x2="240.000000" y2="585" stroke="black" />
<text x="240.000000" y="600" text-anchor="middle">40</text>
<line x1="280.000000" y1="80" x2="280.000000" y2="580" stroke-dasharray="5 5" stroke="grey" />
<line x1="280.000000" y1="580" x2="280.000000" y2="585" stroke="black" />
<text x="280.000000" y="600" text-anchor="middle">50</text>
<line x1="320.000000" y1="80" x2="320.000000" y2="580" stroke-dasharray="5 5" stroke="grey" />
<line x1="320.000000" y1="580" x2="320.000000" y2="585" stroke="black" />
<text x="320.000000" y="600" text-anchor="middle">60</text>
<line x1="360.000000" y1="80" x2="360.000000" y2="580" stroke-dasharray="5 5" stroke="grey" />
<line x1="360.000000" y1="580" x2="360.000000" y2="585" stroke="black" />
<text x="360.000000" y="600" text-anchor="middle">70</text>
<line x1="400.000000" y1="80" x2="400.000000" y2="580" stroke-dasharray="5 5" stroke="grey" />
<line x1="400.000000" y1="580" x2="400.000000" y2="585" stroke="black" />
<text x="400.000000" y="600" text-anchor="middle">80</text>
<line x1="440.000000" y1="80" x2="440.000000" y2="580" stroke-dasharray="5 5" stroke="grey" />
<line x1="440.000000" y1="580" x2="440.000000" y2="585" stroke="black" />
<text x="440.000000" y="600" text-anchor="middle">90</text>
<line x1="480.000000" y1="80" x2="480.000000" y2="580" stroke-dasharray="5 5" stroke="grey" />
<line x1="480.000000" y1="580" x2="480.000000" y2="585" stroke="black" />
<text x="480.000000" y="600" text-anchor="middle">100</text>
<line x1="520.000000" y1="80" x2="520.000000" y2="580" stroke-dasharray="5 5" stroke="grey" />
<line x1="520.000000" y1="580" x2="520.000000" y2="585" stroke="black" />
<text x="520.000000" y="600" text-anchor="middle">110</text>
<line x1="560.000000" y1="80" x2="560.000000" y2="580" stroke-dasharray="5 5" stroke="grey" />
<line x1="560.000000" y1="580" x2="560.000000" y2="585" stroke="black" />
<text x="560.000000" y="600" text-anchor="middle">120</text>
<line x1="80" y1="580.000000" x2="75" y2="580.000000" stroke="black" />
<text x="55" y="580.000000" text-anchor="middle" dominant-baseline="middle">0.00</text>
<line x1="80" y1="555.000000" x2="75" y2="555.000000" stroke="black" />
<text x="55" y="555.000000" text-anchor="middle" dominant-baseline="middle">0.05</text>
<line x1="80" y1="530.000000" x2="75" y2="530.000000" stroke="black" />
<text x="55" y="530.000000" text-anchor="middle" dominant-baseline="middle">0.10</text>
<line x1="80" y1="505.000000" x2="75" y2="505.000000" stroke="black" />
<text x="55" y="505.000000" text-anchor="middle" dominant-baseline="middle">0.15</text>
<line x1="80" y1="480.000000" x2="75" y2="480.000000" stroke="black" />
<text x="55" y="480.000000" text-anchor="middle" dominant-baseline="middle">0.20</text>
<line x1="80" y1="455.000000" x2="75" y2="455.000000" stroke="black" />
<text x="55" y="455.000000" text-anchor="middle" dominant-baseline="middle">0.25</text>
<line x1="80" y1="430.000000" x2="75" y2="430.000000" stroke="black" />
<text x="55" y="430.000000" text-anchor="middle" dominant-baseline="middle">0.30</text>
<line x1="80" y1="405.000000" x2="75" y2="405.000000" stroke="black" />
<text x="55" y="405.000000" text-anchor="middle" dominant-baseline="middle">0.35</text>
<line x1="80" y1="380.000000" x2="75" y2="380.000000" stroke="black" />
<text x="55" y="380.000000" text-anchor="middle" dominant-baseline="middle">0.40</text>
<line x1="80" y1="355.000000" x2="75" y2="355.000000" stroke="black" />
<text x="55" y="355.000000" text-anchor="middle" dominant-baseline="middle">0.45</text>
<line x1="80" y1="330.000000" x2="75" y2="330.000000" stroke="black" />
<text x="55" y="330.000000" text-anchor="middle" dominant-baseline="middle">0.50</text>
<line x1="80" y1="305.000000" x2="75" y2="305.000000" stroke="black" />
<text x="55" y="305.000000" text-anchor="middle" dominant-baseline="middle">0.55</text>
<line x1="80" y1="280.000000" x2="75" y2="280.000000" stroke="black" />
<text x="55" y="280.000000" text-anchor="middle" dominant-baseline="middle">0.60</text>
<line x1="80" y1="255.000000" x2="75" y2="255.000000" stroke="black" />
<text x="55" y="255.000000" text-anchor="middle" dominant-baseline="middle">0.65</text>
<line x1="80" y1="230.000000" x2="75" y2="230.000000" stroke="black" />
<text x="55" y="230.000000" text-anchor="middle" dominant-baseline="middle">0.70</text>
<line x1="80" y1="205.000000" x2="75" y2="205.000000" stroke="black" />
<text x="55" y="205.000000" text-anchor="middle" dominant-baseline="middle">0.75</text>
<line x1="80" y1="180.000000" x2="75" y2="180.000000" stroke="black" />
<text x="55" y="180.000000" text-anchor="middle" dominant-baseline="middle">0.80</text>
<line x1="80" y1="155.000000" x2="75" y2="155.000000" stroke="black" />
<text x="55" y="155.000000" text-anchor="middle" dominant-baseline="middle">0.85</text>
<line x1="80" y1="130.000000" x2="75" y2="130.000000" stroke="black" />
<text x="55" y="130.000000" text-anchor="middle" dominant-baseline="middle">0.90</text>
<line x1="80" y1="105.000000" x2="75" y2="105.000000" stroke="black" />
<text x="55" y="105.000000" text-anchor="middle" dominant-baseline="middle">0.95</text>
<line x1="80" y1="80.000000" x2="75" y2="80.000000" stroke="black" />
<text x="55" y="80.000000" text-anchor="middle" dominant-baseline="middle">1.00</text>
<path d="M 84.000000 278.714019
  L 88.000000 245.163448
  L 92.000000 240.721185
  L 96.000000 242.828947
  L 100.000000 249.470720
  L 104.000000 245.297164
  L 108.000000 242.751702
  L 112.000000 244.874712
  L 116.000000 241.499427
  L 120.000000 238.885603
  L 124.000000 241.436116
  L 128.000000 243.225737
  L 132.000000 242.411163
  L 136.000000 240.519969
  L 140.000000 241.564419
  L 144.000000 241.645478
  L 148.000000 238.619425
  L 152.000000 241.473787
  L 156.000000 238.901869
  L 160.000000 239.546739
  L 164.000000 239.490684
  L 168.000000 241.057379
  L 172.000000 237.483668
  L 176.000000 237.816814
  L 180.000000 237.263127
  L 184.000000 239.306173
  L 188.000000 240.204035
  L 192.000000 236.771258
  L 196.000000 238.637187
  L 200.000000 237.982516
  L 204.000000 237.609981
  L 208.000000 236.255884
  L 212.000000 238.497715
  L 216.000000 233.221873
  L 220.000000 241.527357
  L 224.000000 236.296464
  L 228.000000 237.178980
  L 232.000000 238.041164
  L 236.000000 234.623733
  L 240.000000 234.858725
  L 244.000000 235.417826
  L 248.000000 238.379124
  L 252.000000 237.093288
  L 256.000000 236.896388
  L 260.000000 236.706558
  L 264.000000 234.119412
  L 268.000000 237.133052
  L 272.000000 235.814768
  L 276.000000 232.737377
  L 280.000000 235.934842
  L 284.000000 235.795979
  L 288.000000 235.079941
  L 292.000000 234.579868
  L 296.000000 235.611855
  L 300.000000 234.947880
  L 304.000000 233.517390
  L 308.000000 235.905636
  L 312.000000 235.246315
  L 316.000000 236.266062
  L 320.000000 233.872732
  L 324.000000 234.769153
  L 328.000000 234.393805
  L 332.000000 232.622417
  L 336.000000 233.380600
  L 340.000000 234.656495
  L 344.000000 234.393414
  L 348.000000 235.988057
  L 352.000000 234.192797
  L 356.000000 234.574714
  L 360.000000 232.819993
  L 364.000000 234.475651
  L 368.000000 232.032770
  L 372.000000 232.726025
  L 376.000000 234.484398
  L 380.000000 236.147870
  L 384.000000 234.170110
  L 388.000000 233.986144
  L 392.000000 234.382599
  L 396.000000 232.129804
  L 400.000000 234.748835
  L 404.000000 232.108198
  L 408.000000 233.221129
  L 412.000000 233.548582
  L 416.000000 234.172422
  L 420.000000 232.634517
  L 424.000000 234.353582
  L 428.000000 233.162422
  L 432.000000 233.794544
  L 436.000000 233.625049
  L 440.000000 232.580036
  L 444.000000 234.076693
  L 448.000000 234.455024
  L 452.000000 232.443540
  L 456.000000 232.573012
  L 460.000000 231.744761
  L 464.000000 234.082163
  L 468.000000 233.873068
  L 472.000000 234.821418
  L 476.000000 233.813611
  L 480.000000 232.057474
  L 484.000000 233.121936
  L 488.000000 232.638318
  L 492.000000 231.151540
  L 496.000000 232.213550
  L 500.000000 231.938823
  L 504.000000 232.263359
  L 508.000000 233.316670
  L 512.000000 231.760458
  L 516.000000 230.208390
  L 520.000000 229.920102
  L 524.000000 230.311058
  L 528.000000 229.451701
  L 532.000000 231.616653
  L 536.000000 230.405602
  L 540.000000 230.717801
  L 544.000000 231.377191
  L 548.000000 229.312006
  L 552.000000 229.498876
  L 556.000000 225.974710
  L 560.000000 224.302567
  L 564.000000 220.769410
  L 568.000000 228.419320
  L 572.000000 223.829523
  L 576.000000 207.622618
  L 580.000000 214.642100
  L 580.000000 213.152212
  L 576.000000 206.226282
  L 572.000000 222.447334
  L 568.000000 227.093734
  L 564.000000 219.488041
  L 560.000000 223.031729
  L 556.000000 224.680379
  L 552.000000 228.178705
  L 548.000000 228.018480
  L 544.000000 230.069915
  L 540.000000 229.404497
  L 536.000000 229.104383
  L 532.000000 230.302614
  L 528.000000 228.158908
  L 524.000000 229.007180
  L 520.000000 228.626603
  L 516.000000 228.911116
  L 512.000000 230.451502
  L 508.000000 232.002752
  L 504.000000 230.957684
  L 500.000000 230.638166
  L 496.000000 230.908371
  L 492.000000 229.859876
  L 488.000000 231.333656
  L 484.000000 231.821109
  L 480.000000 230.756734
  L 476.000000 232.503561
  L 472.000000 233.509237
  L 468.000000 232.564736
  L 464.000000 232.772112
  L 460.000000 230.459662
  L 456.000000 231.275492
  L 452.000000 231.152326
  L 448.000000 233.156911
  L 444.000000 232.770202
  L 440.000000 231.284397
  L 436.000000 232.327170
  L 432.000000 232.494752
  L 428.000000 231.871576
  L 424.000000 233.056929
  L 420.000000 231.343230
  L 416.000000 232.867430
  L 412.000000 232.251487
  L 408.000000 231.926066
  L 404.000000 230.828426
  L 400.000000 233.441729
  L 396.000000 230.844625
  L 392.000000 233.082321
  L 388.000000 232.699711
  L 384.000000 232.874491
  L 380.000000 234.828315
  L 376.000000 233.186450
  L 372.000000 231.443119
  L 368.000000 230.759482
  L 364.000000 233.179630
  L 360.000000 231.536140
  L 356.000000 233.272056
  L 352.000000 232.907311
  L 348.000000 234.680517
  L 344.000000 233.095825
  L 340.000000 233.358271
  L 336.000000 232.098574
  L 332.000000 231.341650
  L 328.000000 233.103321
  L 324.000000 233.474208
  L 320.000000 232.578316
  L 316.000000 234.959410
  L 312.000000 233.947103
  L 308.000000 234.606509
  L 304.000000 232.248772
  L 300.000000 233.655518
  L 296.000000 234.307989
  L 292.000000 233.294796
  L 288.000000 233.781353
  L 284.000000 234.490868
  L 280.000000 234.639169
  L 276.000000 231.473186
  L 272.000000 234.509121
  L 268.000000 235.823415
  L 264.000000 232.842925
  L 260.000000 235.396601
  L 256.000000 235.590670
  L 252.000000 235.779753
  L 248.000000 237.055623
  L 244.000000 234.137161
  L 240.000000 233.571166
  L 236.000000 233.338344
  L 232.000000 236.723470
  L 228.000000 235.875531
  L 224.000000 235.008996
  L 220.000000 240.184026
  L 216.000000 231.953414
  L 212.000000 237.189790
  L 208.000000 234.967940
  L 204.000000 236.309294
  L 200.000000 236.671414
  L 196.000000 237.327805
  L 192.000000 235.473852
  L 188.000000 238.876916
  L 184.000000 237.997741
  L 180.000000 235.979615
  L 176.000000 236.515069
  L 172.000000 236.193666
  L 168.000000 239.729032
  L 164.000000 238.183286
  L 160.000000 238.242243
  L 156.000000 237.591151
  L 152.000000 240.141691
  L 148.000000 237.338210
  L 144.000000 240.320431
  L 140.000000 240.245715
  L 136.000000 239.213176
  L 132.000000 241.084242
  L 128.000000 241.888210
  L 124.000000 240.113559
  L 120.000000 237.600604
  L 116.000000 240.183656
  L 112.000000 243.528387
  L 108.000000 241.448459
  L 104.000000 243.942973
  L 100.000000 248.106421
  L 96.000000 241.494208
  L 92.000000 239.422863
  L 88.000000 243.962460
  L 84.000000 277.337804
Z" fill="rgb(248,118,109)" fill-opacity="0.2"/>
<path d="M 84.000000 557.076671
  L 88.000000 340.649019
  L 92.000000 257.806485
  L 96.000000 268.887381
  L 100.000000 257.358931
  L 104.000000 244.171689
  L 108.000000 246.607776
  L 112.000000 246.818807
  L 116.000000 249.571112
  L 120.000000 248.488666
  L 124.000000 247.905855
  L 128.000000 246.626305
  L 132.000000 245.436290
  L 136.000000 244.635660
  L 140.000000 243.330888
  L 144.000000 244.328992
  L 148.000000 242.322819
  L 152.000000 242.437934
  L 156.000000 243.358186
  L 160.000000 243.004378
  L 164.000000 241.543568
  L 168.000000 240.898597
  L 172.000000 240.684784
  L 176.000000 239.616353
  L 180.000000 240.203710
  L 184.000000 239.703414
  L 188.000000 240.495238
  L 192.000000 241.031160
  L 196.000000 240.512991
  L 200.000000 240.458839
  L 204.000000 239.382076
  L 208.000000 238.554266
  L 212.000000 237.730067
  L 216.000000 238.990731
  L 220.000000 238.403363
  L 224.000000 238.493492
  L 228.000000 237.758174
  L 232.000000 238.236762
  L 236.000000 236.856374
  L 240.000000 237.686745
  L 244.000000 237.023427
  L 248.000000 237.094531
  L 252.000000 237.229194
  L 256.000000 236.989036
  L 260.000000 236.097563
  L 264.000000 236.436353
  L 268.000000 235.986062
  L 272.000000 237.090413
  L 276.000000 236.839743
  L 280.000000 236.684699
  L 284.000000 236.032454
  L 288.000000 236.880890
  L 292.000000 236.540458
  L 296.000000 236.163769
  L 300.000000 235.846744
  L 304.000000 236.280010
  L 308.000000 235.330496
  L 312.000000 236.092387
  L 316.000000 235.739091
  L 320.000000 235.914211
  L 324.000000 236.209542
  L 328.000000 235.964092
  L 332.000000 236.002925
  L 336.000000 235.514926
  L 340.000000 235.509883
  L 344.000000 236.034806
  L 348.000000 235.929161
  L 352.000000 236.044008
  L 356.000000 235.514038
  L 360.000000 235.235068
  L 364.000000 235.245322
  L 368.000000 235.248024
  L 372.000000 235.745480
  L 376.000000 235.558500
  L 380.000000 235.370540
  L 384.000000 235.154125
  L 388.000000 235.061231
  L 392.000000 235.469783
  L 396.000000 235.716844
  L 400.000000 235.376521
  L 404.000000 235.516814
  L 408.000000 235.517723
  L 412.000000 235.371183
  L 416.000000 235.297043
  L 420.000000 234.903045
  L 424.000000 235.843027
  L 428.000000 235.259766
  L 432.000000 235.326195
  L 436.000000 235.153688
  L 440.000000 235.312770
  L 444.000000 236.199913
  L 448.000000 235.845108
  L 452.000000 236.028378
  L 456.000000 235.408552
  L 460.000000 235.185313
  L 464.000000 234.911965
  L 468.000000 235.373108
  L 472.000000 235.866468
  L 476.000000 235.996720
  L 480.000000 235.508722
  L 484.000000 236.209334
  L 488.000000 235.860344
  L 492.000000 235.821118
  L 496.000000 235.623482
  L 500.000000 235.806183
  L 504.000000 235.482778
  L 508.000000 235.240943
  L 512.000000 235.099425
  L 516.000000 235.560538
  L 520.000000 235.639744
  L 524.000000 235.818897
  L 528.000000 235.838843
  L 532.000000 235.503500
  L 536.000000 235.828155
  L 540.000000 235.283946
  L 544.000000 235.521445
  L 548.000000 235.045168
  L 552.000000 234.714207
  L 556.000000 234.712010
  L 560.000000 234.979094
  L 564.000000 235.129347
  L 568.000000 235.143790
  L 572.000000 234.420495
  L 576.000000 232.275534
  L 580.000000 80.008343
  L 580.000000 80.000000
  L 576.000000 230.918672
  L 572.000000 233.082811
  L 568.000000 233.815267
  L 564.000000 233.806277
  L 560.000000 233.659979
  L 556.000000 233.398524
  L 552.000000 233.401158
  L 548.000000 233.731452
  L 544.000000 234.205292
  L 540.000000 233.972950
  L 536.000000 234.512074
  L 532.000000 234.192046
  L 528.000000 234.529024
  L 524.000000 234.507521
  L 520.000000 234.329007
  L 516.000000 234.249766
  L 512.000000 233.792538
  L 508.000000 233.933191
  L 504.000000 234.176352
  L 500.000000 234.495945
  L 496.000000 234.314881
  L 492.000000 234.514502
  L 488.000000 234.554724
  L 484.000000 234.901876
  L 480.000000 234.203719
  L 476.000000 234.689900
  L 472.000000 234.560352
  L 468.000000 234.070994
  L 464.000000 233.612835
  L 460.000000 233.886558
  L 456.000000 234.106635
  L 452.000000 234.722904
  L 448.000000 234.540932
  L 444.000000 234.894672
  L 440.000000 234.013618
  L 436.000000 233.853593
  L 432.000000 234.027346
  L 428.000000 233.960513
  L 424.000000 234.543263
  L 420.000000 233.607113
  L 416.000000 233.998021
  L 412.000000 234.075776
  L 408.000000 234.220296
  L 404.000000 234.215757
  L 400.000000 234.077084
  L 396.000000 234.418060
  L 392.000000 234.169697
  L 388.000000 233.765660
  L 384.000000 233.857276
  L 380.000000 234.072479
  L 376.000000 234.261536
  L 372.000000 234.449008
  L 368.000000 233.951022
  L 364.000000 233.954009
  L 360.000000 233.940668
  L 356.000000 234.216412
  L 352.000000 234.741996
  L 348.000000 234.626167
  L 344.000000 234.732392
  L 340.000000 234.212231
  L 336.000000 234.219682
  L 332.000000 234.707127
  L 328.000000 234.666407
  L 324.000000 234.909196
  L 320.000000 234.612881
  L 316.000000 234.441870
  L 312.000000 234.793526
  L 308.000000 234.034013
  L 304.000000 234.979766
  L 300.000000 234.549059
  L 296.000000 234.862993
  L 292.000000 235.235723
  L 288.000000 235.575595
  L 284.000000 234.733976
  L 280.000000 235.385470
  L 276.000000 235.533437
  L 272.000000 235.785279
  L 268.000000 234.691312
  L 264.000000 235.135119
  L 260.000000 234.797437
  L 256.000000 235.684464
  L 252.000000 235.922854
  L 248.000000 235.795074
  L 244.000000 235.724167
  L 240.000000 236.376846
  L 236.000000 235.559859
  L 232.000000 236.927447
  L 228.000000 236.451315
  L 224.000000 237.180635
  L 220.000000 237.088622
  L 216.000000 237.677078
  L 212.000000 236.425123
  L 208.000000 237.245492
  L 204.000000 238.067729
  L 200.000000 239.135024
  L 196.000000 239.189235
  L 192.000000 239.700689
  L 188.000000 239.174837
  L 184.000000 238.387490
  L 180.000000 238.876463
  L 176.000000 238.297218
  L 172.000000 239.361076
  L 168.000000 239.573094
  L 164.000000 240.213282
  L 160.000000 241.660907
  L 156.000000 242.014732
  L 152.000000 241.104886
  L 148.000000 240.984829
  L 144.000000 242.976983
  L 140.000000 241.990846
  L 136.000000 243.280818
  L 132.000000 244.083036
  L 128.000000 245.269305
  L 124.000000 246.548693
  L 120.000000 247.137437
  L 116.000000 248.194742
  L 112.000000 245.438249
  L 108.000000 245.305761
  L 104.000000 242.825805
  L 100.000000 255.978368
  L 96.000000 267.431602
  L 92.000000 256.236473
  L 88.000000 339.358099
  L 84.000000 556.610340
Z" fill="rgb(0,191,196)" fill-opacity="0.2"/>
<path d="M 84.000000 278.025500
  L 88.000000 244.562396
  L 92.000000 240.071328
  L 96.000000 242.160863
  L 100.000000 248.787894
  L 104.000000 244.619360
  L 108.000000 242.099399
  L 112.000000 244.200844
  L 116.000000 240.840834
  L 120.000000 238.242403
  L 124.000000 240.774122
  L 128.000000 242.556261
  L 132.000000 241.746993
  L 136.000000 239.865864
  L 140.000000 240.904357
  L 144.000000 240.982239
  L 148.000000 237.978119
  L 152.000000 240.807013
  L 156.000000 238.245781
  L 160.000000 238.893776
  L 164.000000 238.836266
  L 168.000000 240.392480
  L 172.000000 236.837947
  L 176.000000 237.165212
  L 180.000000 236.620656
  L 184.000000 238.651235
  L 188.000000 239.539742
  L 192.000000 236.121820
  L 196.000000 237.981766
  L 200.000000 237.326226
  L 204.000000 236.958907
  L 208.000000 235.611182
  L 212.000000 237.843023
  L 216.000000 232.586904
  L 220.000000 240.854954
  L 224.000000 235.652001
  L 228.000000 236.526517
  L 232.000000 237.381571
  L 236.000000 233.980294
  L 240.000000 234.214201
  L 244.000000 234.776763
  L 248.000000 237.716625
  L 252.000000 236.435770
  L 256.000000 236.242785
  L 260.000000 236.050828
  L 264.000000 233.480430
  L 268.000000 236.477487
  L 272.000000 235.161189
  L 276.000000 232.104543
  L 280.000000 235.286263
  L 284.000000 235.142668
  L 288.000000 234.429892
  L 292.000000 233.936588
  L 296.000000 234.959166
  L 300.000000 234.300950
  L 304.000000 232.882345
  L 308.000000 235.255325
  L 312.000000 234.595955
  L 316.000000 235.611984
  L 320.000000 233.224761
  L 324.000000 234.120927
  L 328.000000 233.747811
  L 332.000000 231.981273
  L 336.000000 232.738834
  L 340.000000 234.006624
  L 344.000000 233.743858
  L 348.000000 235.333531
  L 352.000000 233.549305
  L 356.000000 233.922620
  L 360.000000 232.177305
  L 364.000000 233.826882
  L 368.000000 231.395369
  L 372.000000 232.083811
  L 376.000000 233.834663
  L 380.000000 235.487324
  L 384.000000 233.521539
  L 388.000000 233.342175
  L 392.000000 233.731696
  L 396.000000 231.486444
  L 400.000000 234.094513
  L 404.000000 231.467548
  L 408.000000 232.572827
  L 412.000000 232.899265
  L 416.000000 233.519154
  L 420.000000 231.988101
  L 424.000000 233.704495
  L 428.000000 232.516232
  L 432.000000 233.143878
  L 436.000000 232.975340
  L 440.000000 231.931438
  L 444.000000 233.422673
  L 448.000000 233.805206
  L 452.000000 231.797159
  L 456.000000 231.923471
  L 460.000000 231.101437
  L 464.000000 233.426358
  L 468.000000 233.218122
  L 472.000000 234.164554
  L 476.000000 233.157804
  L 480.000000 231.406314
  L 484.000000 232.470744
  L 488.000000 231.985199
  L 492.000000 230.504919
  L 496.000000 231.560167
  L 500.000000 231.287703
  L 504.000000 231.609728
  L 508.000000 232.658919
  L 512.000000 231.105176
  L 516.000000 229.558947
  L 520.000000 229.272548
  L 524.000000 229.658305
  L 528.000000 228.804496
  L 532.000000 230.958822
  L 536.000000 229.754184
  L 540.000000 230.060329
  L 544.000000 230.722748
  L 548.000000 228.664431
  L 552.000000 228.837947
  L 556.000000 225.326694
  L 560.000000 223.666309
  L 564.000000 220.127831
  L 568.000000 227.755664
  L 572.000000 223.137429
  L 576.000000 206.923183
  L 580.000000 213.895842
" stroke="rgb(248,118,109)" stroke-width="2" fill-opacity="0"/>
<path d="M 84.000000 556.844623
  L 88.000000 340.003626
  L 92.000000 257.020692
  L 96.000000 268.158933
  L 100.000000 256.668038
  L 104.000000 243.498035
  L 108.000000 245.956126
  L 112.000000 246.127808
  L 116.000000 248.882240
  L 120.000000 247.812379
  L 124.000000 247.226589
  L 128.000000 245.947107
  L 132.000000 244.758956
  L 136.000000 243.957522
  L 140.000000 242.660152
  L 144.000000 243.652270
  L 148.000000 241.653101
  L 152.000000 241.770694
  L 156.000000 242.685741
  L 160.000000 242.331921
  L 164.000000 240.877703
  L 168.000000 240.235121
  L 172.000000 240.022205
  L 176.000000 238.956055
  L 180.000000 239.539353
  L 184.000000 239.044726
  L 188.000000 239.834315
  L 192.000000 240.365196
  L 196.000000 239.850387
  L 200.000000 239.796205
  L 204.000000 238.724174
  L 208.000000 237.899149
  L 212.000000 237.076860
  L 216.000000 238.333174
  L 220.000000 237.745254
  L 224.000000 237.836328
  L 228.000000 237.104008
  L 232.000000 237.581370
  L 236.000000 236.207382
  L 240.000000 237.031055
  L 244.000000 236.373062
  L 248.000000 236.444068
  L 252.000000 236.575283
  L 256.000000 236.336008
  L 260.000000 235.446754
  L 264.000000 235.784993
  L 268.000000 235.337946
  L 272.000000 236.437105
  L 276.000000 236.185845
  L 280.000000 236.034346
  L 284.000000 235.382470
  L 288.000000 236.227499
  L 292.000000 235.887344
  L 296.000000 235.512635
  L 300.000000 235.197156
  L 304.000000 235.629144
  L 308.000000 234.681505
  L 312.000000 235.442212
  L 316.000000 235.089734
  L 320.000000 235.262796
  L 324.000000 235.558624
  L 328.000000 235.314505
  L 332.000000 235.354284
  L 336.000000 234.866558
  L 340.000000 234.860307
  L 344.000000 235.382850
  L 348.000000 235.276913
  L 352.000000 235.392253
  L 356.000000 234.864476
  L 360.000000 234.587120
  L 364.000000 234.598921
  L 368.000000 234.598772
  L 372.000000 235.096499
  L 376.000000 234.909270
  L 380.000000 234.720758
  L 384.000000 234.504949
  L 388.000000 234.412694
  L 392.000000 234.818988
  L 396.000000 235.066704
  L 400.000000 234.726050
  L 404.000000 234.865532
  L 408.000000 234.868261
  L 412.000000 234.722731
  L 416.000000 234.646779
  L 420.000000 234.254325
  L 424.000000 235.192397
  L 428.000000 234.609386
  L 432.000000 234.676018
  L 436.000000 234.502884
  L 440.000000 234.662441
  L 444.000000 235.546541
  L 448.000000 235.192267
  L 452.000000 235.374888
  L 456.000000 234.756838
  L 460.000000 234.535182
  L 464.000000 234.261642
  L 468.000000 234.721295
  L 472.000000 235.212654
  L 476.000000 235.342555
  L 480.000000 234.855462
  L 484.000000 235.554852
  L 488.000000 235.206779
  L 492.000000 235.167054
  L 496.000000 234.968421
  L 500.000000 235.150303
  L 504.000000 234.828805
  L 508.000000 234.586303
  L 512.000000 234.445217
  L 516.000000 234.904388
  L 520.000000 234.983612
  L 524.000000 235.162447
  L 528.000000 235.183174
  L 532.000000 234.847008
  L 536.000000 235.169347
  L 540.000000 234.627680
  L 544.000000 234.862598
  L 548.000000 234.387537
  L 552.000000 234.056907
  L 556.000000 234.054490
  L 560.000000 234.318756
  L 564.000000 234.467029
  L 568.000000 234.478739
  L 572.000000 233.750844
  L 576.000000 231.596246
  L 580.000000 80.000000
" stroke="rgb(0,191,196)" stroke-width="2" fill-opacity="0"/>
<text x="650" y="650" text-anchor="end">--OB 2,123,5,124</text>
<line x1="88.000000" y1="580" x2="88.000000" y2="80" stroke-dasharray="5 1" stroke="rgb(248,118,109)" stroke-width="1" />
<line x1="572.000000" y1="580" x2="572.000000" y2="80" stroke-dasharray="5 1" stroke="rgb(248,118,109)" stroke-width="1" />
<line x1="100.000000" y1="580" x2="100.000000" y2="80" stroke-dasharray="5 1" stroke="rgb(0,191,196)" stroke-width="1" />
<line x1="576.000000" y1="580" x2="576.000000" y2="80" stroke-dasharray="5 1" stroke="rgb(0,191,196)" stroke-width="1" />
<rect x="590" y="310" width="20" height="20" fill="rgb(248,118,109)" />
<text x="615" y="320" text-anchor="start" dominant-baseline="middle">#1</text>
<rect x="590" y="330" width="20" height="20" fill="rgb(0,191,196)" />
<text x="615" y="340" text-anchor="start" dominant-baseline="middle">#2</text>
</svg>
