<svg height="660" width="660"
    xmlns="http://www.w3.org/2000/svg"
    xmlns:xlink="http://www.w3.org/1999/xlink"
    xmlns:ev="http://www.w3.org/2001/xml-events">
<title>Original Top Strand</title>
<rect x="0" y="0" width="660" height="660" fill="white" />
<text x="330" y="20" text-anchor="middle">Original Top Strand</text>
<line x1="80" y1="80" x2="80" y2="580" stroke="black" />
<line x1="80" y1="580" x2="580" y2="580" stroke="black" />
<text x="15" y="330" transform="rotate(270 15, 330)" text-anchor="middle" dominant-baseline="text-before-edge">CpG Methylation %</text>
<text x="330" y="620" text-anchor="middle">Position along mapped read (5'->3' of + strand)</text>
<line x1="80" y1="580" x2="80" y2="585" stroke="black" />
<text x="80" y="600" text-anchor="middle">0</text>
<line x1="120.000000" y1="80" x2="120.000000" y2="580" stroke-dasharray="5 5" stroke="grey" />
<line x1="120.000000" y1="580" x2="120.000000" y2="585" stroke="black" />
<text x="120.000000" y="600" text-anchor="middle">10</text>
<line x1="160.000000" y1="80" x2="160.000000" y2="580" stroke-dasharray="5 5" stroke="grey" />
<line x1="160.000000" y1="580" x2="160.000000" y2="585" stroke="black" />
<text x="160.000000" y="600" text-anchor="middle">20</text>
<line x1="200.000000" y1="80" x2="200.000000" y2="580" stroke-dasharray="5 5" stroke="grey" />
<line x1="200.000000" y1="580" x2="200.000000" y2="585" stroke="black" />
<text x="200.000000" y="600" text-anchor="middle">30</text>
<line x1="240.000000" y1="80" x2="240.000000" y2="580" stroke-dasharray="5 5" stroke="grey" />
<line x1="240.000000" y1="580" x2="240.000000" y2="585" stroke="black" />
<text x="240.000000" y="600" text-anchor="middle">40</text>
<line x1="280.000000" y1="80" x2="280.000000" y2="580" stroke-dasharray="5 5" stroke="grey" />
<line x1="280.000000" y1="580" x2="280.000000" y2="585" stroke="black" />
<text x="280.000000" y="600" text-anchor="middle">50</text>
<line x1="320.000000" y1="80" x2="320.000000" y2="580" stroke-dasharray="5 5" stroke="grey" />
<line x1="320.000000" y1="580" x2="320.000000" y2="585" stroke="black" />
<text x="320.000000" y="600" text-anchor="middle">60</text>
<line x1="360.000000" y1="80" x2="360.000000" y2="580" stroke-dasharray="5 5" stroke="grey" />
<line x1="360.000000" y1="580" x2="360.000000" y2="585" stroke="black" />
<text x="360.000000" y="600" text-anchor="middle">70</text>
<line x1="400.000000" y1="80" x2="400.000000" y2="580" stroke-dasharray="5 5" stroke="grey" />
<line x1="400.000000" y1="580" x2="400.000000" y2="585" stroke="black" />
<text x="400.000000" y="600" text-anchor="middle">80</text>
<line x1="440.000000" y1="80" x2="440.000000" y2="580" stroke-dasharray="5 5" stroke="grey" />
<line x1="440.000000" y1="580" x2="440.000000" y2="585" stroke="black" />
<text x="440.000000" y="600" text-anchor="middle">90</text>
<line x1="480.000000" y1="80" x2="480.000000" y2="580" stroke-dasharray="5 5" stroke="grey" />
<line x1="480.000000" y1="580" x2="480.000000" y2="585" stroke="black" />
<text x="480.000000" y="600" text-anchor="middle">100</text>
<line x1="520.000000" y1="80" x2="520.000000" y2="580" stroke-dasharray="5 5" stroke="grey" />
<line x1="520.000000" y1="580" x2="520.000000" y2="585" stroke="black" />
<text x="520.000000" y="600" text-anchor="middle">110</text>
<line x1="560.000000" y1="80" x2="560.000000" y2="580" stroke-dasharray="5 5" stroke="grey" />
<line x1="560.000000" y1="580" x2="560.000000" y2="585" stroke="black" />
<text x="560.000000" y="600" text-anchor="middle">120</text>
<line x1="80" y1="580.000000" x2="75" y2="580.000000" stroke="black" />
<text x="55" y="580.000000" text-anchor="middle" dominant-baseline="middle">0.00</text>
<line x1="80" y1="555.000000" x2="75" y2="555.000000" stroke="black" />
<text x="55" y="555.000000" text-anchor="middle" dominant-baseline="middle">0.05</text>
<line x1="80" y1="530.000000" x2="75" y2="530.000000" stroke="black" />
<text x="55" y="530.000000" text-anchor="middle" dominant-baseline="middle">0.10</text>
<line x1="80" y1="505.000000" x2="75" y2="505.000000" stroke="black" />
<text x="55" y="505.000000" text-anchor="middle" dominant-baseline="middle">0.15</text>
<line x1="80" y1="480.000000" x2="75" y2="480.000000" stroke="black" />
<text x="55" y="480.000000" text-anchor="middle" dominant-baseline="middle">0.20</text>
<line x1="80" y1="455.000000" x2="75" y2="455.000000" stroke="black" />
<text x="55" y="455.000000" text-anchor="middle" dominant-baseline="middle">0.25</text>
<line x1="80" y1="430.000000" x2="75" y2="430.000000" stroke="black" />
<text x="55" y="430.000000" text-anchor="middle" dominant-baseline="middle">0.30</text>
<line x1="80" y1="405.000000" x2="75" y2="405.000000" stroke="black" />
<text x="55" y="405.000000" text-anchor="middle" dominant-baseline="middle">0.35</text>
<line x1="80" y1="380.000000" x2="75" y2="380.000000" stroke="black" />
<text x="55" y="380.000000" text-anchor="middle" dominant-baseline="middle">0.40</text>
<line x1="80" y1="355.000000" x2="75" y2="355.000000" stroke="black" />
<text x="55" y="355.000000" text-anchor="middle" dominant-baseline="middle">0.45</text>
<line x1="80" y1="330.000000" x2="75" y2="330.000000" stroke="black" />
<text x="55" y="330.000000" text-anchor="middle" dominant-baseline="middle">0.50</text>
<line x1="80" y1="305.000000" x2="75" y2="305.000000" stroke="black" />
<text x="55" y="305.000000" text-anchor="middle" dominant-baseline="middle">0.55</text>
<line x1="80" y1="280.000000" x2="75" y2="280.000000" stroke="black" />
<text x="55" y="280.000000" text-anchor="middle" dominant-baseline="middle">0.60</text>
<line x1="80" y1="255.000000" x2="75" y2="255.000000" stroke="black" />
<text x="55" y="255.000000" text-anchor="middle" dominant-baseline="middle">0.65</text>
<line x1="80" y1="230.000000" x2="75" y2="230.000000" stroke="black" />
<text x="55" y="230.000000" text-anchor="middle" dominant-baseline="middle">0.70</text>
<line x1="80" y1="205.000000" x2="75" y2="205.000000" stroke="black" />
<text x="55" y="205.000000" text-anchor="middle" dominant-baseline="middle">0.75</text>
<line x1="80" y1="180.000000" x2="75" y2="180.000000" stroke="black" />
<text x="55" y="180.000000" text-anchor="middle" dominant-baseline="middle">0.80</text>
<line x1="80" y1="155.000000" x2="75" y2="155.000000" stroke="black" />
<text x="55" y="155.000000" text-anchor="middle" dominant-baseline="middle">0.85</text>
<line x1="80" y1="130.000000" x2="75" y2="130.000000" stroke="black" />
<text x="55" y="130.000000" text-anchor="middle" dominant-baseline="middle">0.90</text>
<line x1="80" y1="105.000000" x2="75" y2="105.000000" stroke="black" />
<text x="55" y="105.000000" text-anchor="middle" dominant-baseline="middle">0.95</text>
<line x1="80" y1="80.000000" x2="75" y2="80.000000" stroke="black" />
<text x="55" y="80.000000" text-anchor="middle" dominant-baseline="middle">1.00</text>
<path d="M 84.000000 169.801336
  L 88.000000 195.523918
  L 92.000000 201.503007
  L 96.000000 192.506373
  L 100.000000 186.630300
  L 104.000000 195.949668
  L 108.000000 198.613069
  L 112.000000 199.337044
  L 116.000000 197.796664
  L 120.000000 197.596927
  L 124.000000 197.652284
  L 128.000000 197.183872
  L 132.000000 196.570364
  L 136.000000 196.749568
  L 140.000000 197.437748
  L 144.000000 197.109450
  L 148.000000 196.538107
  L 152.000000 198.684593
  L 156.000000 198.925851
  L 160.000000 198.164920
  L 164.000000 197.612443
  L 168.000000 197.754705
  L 172.000000 195.488440
  L 176.000000 197.920170
  L 180.000000 197.181323
  L 184.000000 198.670428
  L 188.000000 197.783832
  L 192.000000 199.337910
  L 196.000000 199.743053
  L 200.000000 199.152765
  L 204.000000 198.696581
  L 208.000000 197.746475
  L 212.000000 197.137215
  L 216.000000 198.450062
  L 220.000000 196.513163
  L 224.000000 198.285468
  L 228.000000 199.392261
  L 232.000000 199.310791
  L 236.000000 199.306617
  L 240.000000 199.804544
  L 244.000000 199.965254
  L 248.000000 199.117687
  L 252.000000 199.220205
  L 256.000000 199.075024
  L 260.000000 199.202404
  L 264.000000 199.462865
  L 268.000000 199.845847
  L 272.000000 199.899569
  L 276.000000 200.256190
  L 280.000000 201.038956
  L 284.000000 201.261633
  L 288.000000 200.547503
  L 292.000000 199.797950
  L 296.000000 200.093950
  L 300.000000 199.663725
  L 304.000000 200.319030
  L 308.000000 200.745282
  L 312.000000 201.368963
  L 316.000000 200.950215
  L 320.000000 201.799617
  L 324.000000 201.793404
  L 328.000000 200.879048
  L 332.000000 200.327024
  L 336.000000 200.661092
  L 340.000000 201.290820
  L 344.000000 201.883765
  L 348.000000 201.699849
  L 352.000000 202.264988
  L 356.000000 203.154804
  L 360.000000 202.666884
  L 364.000000 202.815957
  L 368.000000 202.145927
  L 372.000000 201.815841
  L 376.000000 201.974111
  L 380.000000 201.903721
  L 384.000000 202.062652
  L 388.000000 202.951115
  L 392.000000 203.759618
  L 396.000000 203.475220
  L 400.000000 203.825939
  L 404.000000 203.315839
  L 408.000000 203.690121
  L 412.000000 203.590327
  L 416.000000 203.657393
  L 420.000000 203.198638
  L 424.000000 203.440122
  L 428.000000 203.120410
  L 432.000000 204.083179
  L 436.000000 204.408687
  L 440.000000 204.652782
  L 444.000000 205.072220
  L 448.000000 205.153549
  L 452.000000 205.108233
  L 456.000000 205.013602
  L 460.000000 204.395146
  L 464.000000 204.895309
  L 468.000000 205.347406
  L 472.000000 204.999950
  L 476.000000 205.260153
  L 480.000000 206.734554
  L 484.000000 206.844679
  L 488.000000 206.965603
  L 492.000000 207.276413
  L 496.000000 206.895867
  L 500.000000 206.101974
  L 504.000000 206.507643
  L 508.000000 207.044721
  L 512.000000 207.821881
  L 516.000000 207.941164
  L 520.000000 208.160511
  L 524.000000 208.838179
  L 528.000000 208.871315
  L 532.000000 208.349680
  L 536.000000 208.859165
  L 540.000000 208.915380
  L 544.000000 209.309507
  L 548.000000 208.740824
  L 552.000000 209.212043
  L 556.000000 209.355889
  L 560.000000 211.101219
  L 564.000000 211.340126
  L 568.000000 211.779039
  L 572.000000 213.387872
  L 576.000000 216.226049
  L 580.000000 218.260097
  L 580.000000 216.890189
  L 576.000000 214.908679
  L 572.000000 212.111532
  L 568.000000 210.523323
  L 564.000000 210.097610
  L 560.000000 209.860091
  L 556.000000 208.122035
  L 552.000000 207.981879
  L 548.000000 207.516971
  L 544.000000 208.081639
  L 540.000000 207.688516
  L 536.000000 207.634719
  L 532.000000 207.128513
  L 528.000000 207.651524
  L 524.000000 207.616676
  L 520.000000 206.940570
  L 516.000000 206.724247
  L 512.000000 206.604540
  L 508.000000 205.832449
  L 504.000000 205.299918
  L 500.000000 204.897122
  L 496.000000 205.683520
  L 492.000000 206.060781
  L 488.000000 205.753995
  L 484.000000 205.635258
  L 480.000000 205.528521
  L 476.000000 204.060277
  L 472.000000 203.801737
  L 468.000000 204.143872
  L 464.000000 203.696245
  L 460.000000 203.200063
  L 456.000000 203.817506
  L 452.000000 203.908301
  L 448.000000 203.957094
  L 444.000000 203.874615
  L 440.000000 203.457125
  L 436.000000 203.213899
  L 432.000000 202.888670
  L 428.000000 201.928434
  L 424.000000 202.248489
  L 420.000000 202.009630
  L 416.000000 202.465316
  L 412.000000 202.396577
  L 408.000000 202.501312
  L 404.000000 202.125573
  L 400.000000 202.632461
  L 396.000000 202.282233
  L 392.000000 202.563543
  L 388.000000 201.758338
  L 384.000000 200.878026
  L 380.000000 200.716675
  L 376.000000 200.785310
  L 372.000000 200.632595
  L 368.000000 200.960277
  L 364.000000 201.624425
  L 360.000000 201.479317
  L 356.000000 201.962205
  L 352.000000 201.080195
  L 348.000000 200.518230
  L 344.000000 200.692987
  L 340.000000 200.106261
  L 336.000000 199.483683
  L 332.000000 199.152250
  L 328.000000 199.699668
  L 324.000000 200.612828
  L 320.000000 200.615502
  L 316.000000 199.772800
  L 312.000000 200.185578
  L 308.000000 199.567639
  L 304.000000 199.139916
  L 300.000000 198.491970
  L 296.000000 198.916674
  L 292.000000 198.619336
  L 288.000000 199.368112
  L 284.000000 200.074410
  L 280.000000 199.858974
  L 276.000000 199.084218
  L 272.000000 198.725480
  L 268.000000 198.663723
  L 264.000000 198.287533
  L 260.000000 198.028417
  L 256.000000 197.899910
  L 252.000000 198.045513
  L 248.000000 197.940892
  L 244.000000 198.789918
  L 240.000000 198.634989
  L 236.000000 198.141584
  L 232.000000 198.139110
  L 228.000000 198.212002
  L 224.000000 197.116671
  L 220.000000 195.363880
  L 216.000000 197.275596
  L 212.000000 195.976675
  L 208.000000 196.583311
  L 204.000000 197.523862
  L 200.000000 197.975056
  L 196.000000 198.563403
  L 192.000000 198.160547
  L 188.000000 196.617812
  L 184.000000 197.491546
  L 180.000000 196.019462
  L 176.000000 196.747858
  L 172.000000 194.342300
  L 168.000000 196.586256
  L 164.000000 196.439273
  L 160.000000 196.991309
  L 156.000000 197.749048
  L 152.000000 197.504704
  L 148.000000 195.378385
  L 144.000000 195.941015
  L 140.000000 196.262843
  L 136.000000 195.574639
  L 132.000000 195.398306
  L 128.000000 196.011215
  L 124.000000 196.478640
  L 120.000000 196.435864
  L 116.000000 196.632237
  L 112.000000 198.122167
  L 108.000000 197.355000
  L 104.000000 194.762400
  L 100.000000 185.481021
  L 96.000000 191.379466
  L 92.000000 200.277897
  L 88.000000 194.113194
  L 84.000000 168.880535
Z" fill="rgb(248,118,109)" fill-opacity="0.2"/>
<path d="M 84.000000 134.597734
  L 88.000000 207.815485
  L 92.000000 204.911600
  L 96.000000 206.482979
  L 100.000000 205.691402
  L 104.000000 204.806166
  L 108.000000 204.123440
  L 112.000000 202.201515
  L 116.000000 204.190228
  L 120.000000 203.411965
  L 124.000000 205.348271
  L 128.000000 205.209829
  L 132.000000 203.763937
  L 136.000000 204.054748
  L 140.000000 206.383935
  L 144.000000 201.606145
  L 148.000000 204.801673
  L 152.000000 204.095366
  L 156.000000 204.469720
  L 160.000000 202.762858
  L 164.000000 205.632508
  L 168.000000 203.787930
  L 172.000000 204.233677
  L 176.000000 204.145136
  L 180.000000 203.627775
  L 184.000000 205.167124
  L 188.000000 203.586934
  L 192.000000 204.500541
  L 196.000000 203.663627
  L 200.000000 202.073877
  L 204.000000 202.359181
  L 208.000000 204.404456
  L 212.000000 204.082031
  L 216.000000 204.913860
  L 220.000000 202.363448
  L 224.000000 204.215588
  L 228.000000 203.242339
  L 232.000000 202.593501
  L 236.000000 202.387505
  L 240.000000 200.834771
  L 244.000000 204.117793
  L 248.000000 204.392705
  L 252.000000 203.104569
  L 256.000000 204.637677
  L 260.000000 202.993295
  L 264.000000 204.240384
  L 268.000000 204.166764
  L 272.000000 202.443474
  L 276.000000 202.508707
  L 280.000000 203.264780
  L 284.000000 203.423994
  L 288.000000 203.031673
  L 292.000000 203.814310
  L 296.000000 202.803738
  L 300.000000 203.799301
  L 304.000000 203.203466
  L 308.000000 203.952373
  L 312.000000 203.064757
  L 316.000000 203.226520
  L 320.000000 203.067473
  L 324.000000 203.197647
  L 328.000000 201.536845
  L 332.000000 204.568297
  L 336.000000 203.408545
  L 340.000000 204.328067
  L 344.000000 203.952513
  L 348.000000 204.185711
  L 352.000000 203.951233
  L 356.000000 202.159012
  L 360.000000 203.685063
  L 364.000000 203.319205
  L 368.000000 202.810069
  L 372.000000 204.559885
  L 376.000000 205.677156
  L 380.000000 205.049820
  L 384.000000 204.258639
  L 388.000000 206.153304
  L 392.000000 203.937113
  L 396.000000 204.523844
  L 400.000000 204.280178
  L 404.000000 205.758423
  L 408.000000 205.731923
  L 412.000000 206.071283
  L 416.000000 206.567438
  L 420.000000 207.003035
  L 424.000000 205.740264
  L 428.000000 208.637986
  L 432.000000 207.397244
  L 436.000000 206.878611
  L 440.000000 207.922148
  L 444.000000 207.978593
  L 448.000000 208.263400
  L 452.000000 210.145708
  L 456.000000 209.825118
  L 460.000000 212.932208
  L 464.000000 212.678578
  L 468.000000 213.569633
  L 472.000000 212.766956
  L 476.000000 213.739459
  L 480.000000 214.887396
  L 484.000000 215.311562
  L 488.000000 215.533828
  L 492.000000 217.937756
  L 496.000000 218.834793
  L 500.000000 221.661429
  L 504.000000 222.682227
  L 508.000000 224.458069
  L 512.000000 224.043438
  L 516.000000 225.988906
  L 520.000000 227.607459
  L 524.000000 229.370436
  L 528.000000 232.867345
  L 532.000000 236.253317
  L 536.000000 238.797352
  L 540.000000 241.131808
  L 544.000000 241.290669
  L 548.000000 242.301468
  L 552.000000 241.144687
  L 556.000000 245.926043
  L 560.000000 258.238710
  L 564.000000 274.982275
  L 568.000000 287.692044
  L 572.000000 324.991167
  L 576.000000 429.493403
  L 580.000000 528.904956
  L 580.000000 527.803215
  L 576.000000 428.324108
  L 572.000000 323.557292
  L 568.000000 286.130544
  L 564.000000 273.578220
  L 560.000000 256.872476
  L 556.000000 244.566107
  L 552.000000 239.776983
  L 548.000000 240.903530
  L 544.000000 239.952892
  L 540.000000 239.804178
  L 536.000000 237.479266
  L 532.000000 234.938592
  L 528.000000 231.564713
  L 524.000000 228.092079
  L 520.000000 226.324345
  L 516.000000 224.713276
  L 512.000000 222.776609
  L 508.000000 223.181094
  L 504.000000 221.416410
  L 500.000000 220.395514
  L 496.000000 217.587794
  L 492.000000 216.692579
  L 488.000000 214.315210
  L 484.000000 214.080457
  L 480.000000 213.659025
  L 476.000000 212.509175
  L 472.000000 211.546348
  L 468.000000 212.338510
  L 464.000000 211.458872
  L 460.000000 211.695826
  L 456.000000 208.614504
  L 452.000000 208.928591
  L 448.000000 207.059561
  L 444.000000 206.781525
  L 440.000000 206.720777
  L 436.000000 205.680308
  L 432.000000 206.197678
  L 428.000000 207.424225
  L 424.000000 204.559549
  L 420.000000 205.806569
  L 416.000000 205.365987
  L 412.000000 204.864484
  L 408.000000 204.527945
  L 404.000000 204.555105
  L 400.000000 203.090982
  L 396.000000 203.327986
  L 392.000000 202.753743
  L 388.000000 204.940915
  L 384.000000 203.074135
  L 380.000000 203.858497
  L 376.000000 204.466295
  L 372.000000 203.361208
  L 368.000000 201.632503
  L 364.000000 202.125549
  L 360.000000 202.495446
  L 356.000000 200.982142
  L 352.000000 202.754706
  L 348.000000 202.992514
  L 344.000000 202.760663
  L 340.000000 203.131475
  L 336.000000 202.223194
  L 332.000000 203.371435
  L 328.000000 200.367708
  L 324.000000 202.008438
  L 320.000000 201.883282
  L 316.000000 202.028292
  L 312.000000 201.878949
  L 308.000000 202.753026
  L 304.000000 202.019699
  L 300.000000 202.605263
  L 296.000000 201.625027
  L 292.000000 202.618013
  L 288.000000 201.841122
  L 284.000000 202.230471
  L 280.000000 202.069352
  L 276.000000 201.323384
  L 272.000000 201.267077
  L 268.000000 202.963512
  L 264.000000 203.045016
  L 260.000000 201.810556
  L 256.000000 203.435281
  L 252.000000 201.918723
  L 248.000000 203.194323
  L 244.000000 202.911901
  L 240.000000 199.677693
  L 236.000000 201.203037
  L 232.000000 201.404832
  L 228.000000 202.055544
  L 224.000000 203.012953
  L 220.000000 201.186621
  L 216.000000 203.710374
  L 212.000000 202.887007
  L 208.000000 203.214798
  L 204.000000 201.176136
  L 200.000000 200.903930
  L 196.000000 202.465676
  L 192.000000 203.299787
  L 188.000000 202.393713
  L 184.000000 203.959194
  L 180.000000 202.438699
  L 176.000000 202.956849
  L 172.000000 203.031853
  L 168.000000 202.592841
  L 164.000000 204.418623
  L 160.000000 201.577157
  L 156.000000 203.266121
  L 152.000000 202.893756
  L 148.000000 203.587744
  L 144.000000 200.441049
  L 140.000000 205.155698
  L 136.000000 202.860311
  L 132.000000 202.568693
  L 128.000000 203.998525
  L 124.000000 204.133156
  L 120.000000 202.220792
  L 116.000000 202.990130
  L 112.000000 201.018258
  L 108.000000 202.905732
  L 104.000000 203.625403
  L 100.000000 204.463379
  L 96.000000 205.260029
  L 92.000000 203.685411
  L 88.000000 206.589708
  L 84.000000 133.793824
Z" fill="rgb(0,191,196)" fill-opacity="0.2"/>
<path d="M 84.000000 169.340008
  L 88.000000 194.817035
  L 92.000000 200.889395
  L 96.000000 191.941910
  L 100.000000 186.054523
  L 104.000000 195.354964
  L 108.000000 197.982876
  L 112.000000 198.728536
  L 116.000000 197.213448
  L 120.000000 197.015395
  L 124.000000 197.064441
  L 128.000000 196.596518
  L 132.000000 195.983302
  L 136.000000 196.161067
  L 140.000000 196.849269
  L 144.000000 196.524213
  L 148.000000 195.957234
  L 152.000000 198.093631
  L 156.000000 198.336440
  L 160.000000 197.577101
  L 164.000000 197.024837
  L 168.000000 197.169470
  L 172.000000 194.914368
  L 176.000000 197.332999
  L 180.000000 196.599385
  L 184.000000 198.079970
  L 188.000000 197.199816
  L 192.000000 198.748224
  L 196.000000 199.152225
  L 200.000000 198.562903
  L 204.000000 198.109216
  L 208.000000 197.163892
  L 212.000000 196.555939
  L 216.000000 197.861817
  L 220.000000 195.937527
  L 224.000000 197.700065
  L 228.000000 198.801122
  L 232.000000 198.723955
  L 236.000000 198.723116
  L 240.000000 199.218782
  L 244.000000 199.376593
  L 248.000000 198.528283
  L 252.000000 198.631857
  L 256.000000 198.486463
  L 260.000000 198.614410
  L 264.000000 198.874199
  L 268.000000 199.253779
  L 272.000000 199.311533
  L 276.000000 199.669221
  L 280.000000 200.447978
  L 284.000000 200.667026
  L 288.000000 199.956815
  L 292.000000 199.207642
  L 296.000000 199.504318
  L 300.000000 199.076857
  L 304.000000 199.728479
  L 308.000000 200.155474
  L 312.000000 200.776282
  L 316.000000 200.360524
  L 320.000000 201.206576
  L 324.000000 201.202138
  L 328.000000 200.288370
  L 332.000000 199.738650
  L 336.000000 200.071400
  L 340.000000 200.697550
  L 344.000000 201.287383
  L 348.000000 201.108059
  L 352.000000 201.671613
  L 356.000000 202.557525
  L 360.000000 202.072123
  L 364.000000 202.219209
  L 368.000000 201.552121
  L 372.000000 201.223236
  L 376.000000 201.378722
  L 380.000000 201.309211
  L 384.000000 201.469359
  L 388.000000 202.353744
  L 392.000000 203.160603
  L 396.000000 202.877750
  L 400.000000 203.228228
  L 404.000000 202.719732
  L 408.000000 203.094750
  L 412.000000 202.992476
  L 416.000000 203.060382
  L 420.000000 202.603161
  L 424.000000 202.843331
  L 428.000000 202.523443
  L 432.000000 203.484954
  L 436.000000 203.810326
  L 440.000000 204.053988
  L 444.000000 204.472454
  L 448.000000 204.554362
  L 452.000000 204.507300
  L 456.000000 204.414593
  L 460.000000 203.796637
  L 464.000000 204.294809
  L 468.000000 204.744670
  L 472.000000 204.399879
  L 476.000000 204.659251
  L 480.000000 206.130582
  L 484.000000 206.239009
  L 488.000000 206.358838
  L 492.000000 206.667634
  L 496.000000 206.288730
  L 500.000000 205.498586
  L 504.000000 205.902820
  L 508.000000 206.437624
  L 512.000000 207.212251
  L 516.000000 207.331748
  L 520.000000 207.549581
  L 524.000000 208.226475
  L 528.000000 208.260470
  L 532.000000 207.738138
  L 536.000000 208.245985
  L 540.000000 208.300988
  L 544.000000 208.694616
  L 548.000000 208.127940
  L 552.000000 208.595999
  L 556.000000 208.737997
  L 560.000000 210.479700
  L 564.000000 210.717914
  L 568.000000 211.150212
  L 572.000000 212.748723
  L 576.000000 215.566359
  L 580.000000 217.574085
" stroke="rgb(248,118,109)" stroke-width="2" fill-opacity="0"/>
<path d="M 84.000000 134.194470
  L 88.000000 207.201624
  L 92.000000 204.297494
  L 96.000000 205.870518
  L 100.000000 205.076386
  L 104.000000 204.214845
  L 108.000000 203.513578
  L 112.000000 201.608910
  L 116.000000 203.589201
  L 120.000000 202.815405
  L 124.000000 204.739726
  L 128.000000 204.603194
  L 132.000000 203.165339
  L 136.000000 203.456558
  L 140.000000 205.768821
  L 144.000000 201.022643
  L 148.000000 204.193715
  L 152.000000 203.493579
  L 156.000000 203.866940
  L 160.000000 202.169034
  L 164.000000 205.024584
  L 168.000000 203.189410
  L 172.000000 203.631784
  L 176.000000 203.550033
  L 180.000000 203.032269
  L 184.000000 204.562181
  L 188.000000 202.989348
  L 192.000000 203.899189
  L 196.000000 203.063670
  L 200.000000 201.487947
  L 204.000000 201.766684
  L 208.000000 203.808669
  L 212.000000 203.483547
  L 216.000000 204.311143
  L 220.000000 201.774070
  L 224.000000 203.613288
  L 228.000000 202.647973
  L 232.000000 201.998186
  L 236.000000 201.794295
  L 240.000000 200.255281
  L 244.000000 203.513858
  L 248.000000 203.792541
  L 252.000000 202.510677
  L 256.000000 204.035503
  L 260.000000 202.400960
  L 264.000000 203.641730
  L 268.000000 203.564154
  L 272.000000 201.854313
  L 276.000000 201.915069
  L 280.000000 202.666083
  L 284.000000 202.826255
  L 288.000000 202.435420
  L 292.000000 203.215184
  L 296.000000 202.213421
  L 300.000000 203.201309
  L 304.000000 202.610618
  L 308.000000 203.351719
  L 312.000000 202.470884
  L 316.000000 202.626418
  L 320.000000 202.474411
  L 324.000000 202.602069
  L 328.000000 200.951315
  L 332.000000 203.968898
  L 336.000000 202.814905
  L 340.000000 203.728800
  L 344.000000 203.355620
  L 348.000000 203.588146
  L 352.000000 203.351994
  L 356.000000 201.569610
  L 360.000000 203.089286
  L 364.000000 202.721398
  L 368.000000 202.220327
  L 372.000000 203.959575
  L 376.000000 205.070749
  L 380.000000 204.453205
  L 384.000000 203.665435
  L 388.000000 205.546137
  L 392.000000 203.344473
  L 396.000000 203.924948
  L 400.000000 203.684620
  L 404.000000 205.155801
  L 408.000000 205.128969
  L 412.000000 205.466919
  L 416.000000 205.965762
  L 420.000000 206.403865
  L 424.000000 205.148979
  L 428.000000 208.030162
  L 432.000000 206.796524
  L 436.000000 206.278518
  L 440.000000 207.320529
  L 444.000000 207.379133
  L 448.000000 207.660548
  L 452.000000 209.536220
  L 456.000000 209.218887
  L 460.000000 212.313092
  L 464.000000 212.067823
  L 468.000000 212.953163
  L 472.000000 212.155749
  L 476.000000 213.123411
  L 480.000000 214.272322
  L 484.000000 214.695121
  L 488.000000 214.923651
  L 492.000000 217.314290
  L 496.000000 218.210425
  L 500.000000 221.027609
  L 504.000000 222.048468
  L 508.000000 223.818737
  L 512.000000 223.409187
  L 516.000000 225.350265
  L 520.000000 226.965084
  L 524.000000 228.730466
  L 528.000000 232.215246
  L 532.000000 235.595193
  L 536.000000 238.137571
  L 540.000000 240.467269
  L 544.000000 240.621047
  L 548.000000 241.601710
  L 552.000000 240.460067
  L 556.000000 245.245366
  L 560.000000 257.555003
  L 564.000000 274.279785
  L 568.000000 286.910861
  L 572.000000 324.274183
  L 576.000000 428.909397
  L 580.000000 528.356685
" stroke="rgb(0,191,196)" stroke-width="2" fill-opacity="0"/>
<text x="650" y="650" text-anchor="end">--OT 2,0,2,111</text>
<line x1="88.000000" y1="580" x2="88.000000" y2="80" stroke-dasharray="5 1" stroke="rgb(248,118,109)" stroke-width="1" />
<line x1="88.000000" y1="580" x2="88.000000" y2="80" stroke-dasharray="5 1" stroke="rgb(0,191,196)" stroke-width="1" />
<line x1="524.000000" y1="580" x2="524.000000" y2="80" stroke-dasharray="5 1" stroke="rgb(0,191,196)" stroke-width="1" />
<rect x="590" y="310" width="20" height="20" fill="rgb(248,118,109)" />
<text x="615" y="320" text-anchor="start" dominant-baseline="middle">#1</text>
<rect x="590" y="330" width="20" height="20" fill="rgb(0,191,196)" />
<text x="615" y="340" text-anchor="start" dominant-baseline="middle">#2</text>
</svg>
