<svg height="660" width="660"
    xmlns="http://www.w3.org/2000/svg"
    xmlns:xlink="http://www.w3.org/1999/xlink"
    xmlns:ev="http://www.w3.org/2001/xml-events">
<title>Original Bottom Strand</title>
<rect x="0" y="0" width="660" height="660" fill="white" />
<text x="330" y="20" text-anchor="middle">Original Bottom Strand</text>
<line x1="80" y1="80" x2="80" y2="580" stroke="black" />
<line x1="80" y1="580" x2="580" y2="580" stroke="black" />
<text x="15" y="330" transform="rotate(270 15, 330)" text-anchor="middle" dominant-baseline="text-before-edge">CpG Methylation %</text>
<text x="330" y="620" text-anchor="middle">Position along mapped read (5'->3' of + strand)</text>
<line x1="80" y1="580" x2="80" y2="585" stroke="black" />
<text x="80" y="600" text-anchor="middle">0</text>
<line x1="120.000000" y1="80" x2="120.000000" y2="580" stroke-dasharray="5 5" stroke="grey" />
<line x1="120.000000" y1="580" x2="120.000000" y2="585" stroke="black" />
<text x="120.000000" y="600" text-anchor="middle">10</text>
<line x1="160.000000" y1="80" x2="160.000000" y2="580" stroke-dasharray="5 5" stroke="grey" />
<line x1="160.000000" y1="580" x2="160.000000" y2="585" stroke="black" />
<text x="160.000000" y="600" text-anchor="middle">20</text>
<line x1="200.000000" y1="80" x2="200.000000" y2="580" stroke-dasharray="5 5" stroke="grey" />
<line x1="200.000000" y1="580" x2="200.000000" y2="585" stroke="black" />
<text x="200.000000" y="600" text-anchor="middle">30</text>
<line x1="240.000000" y1="80" x2="240.000000" y2="580" stroke-dasharray="5 5" stroke="grey" />
<line x1="240.000000" y1="580" x2="240.000000" y2="585" stroke="black" />
<text x="240.000000" y="600" text-anchor="middle">40</text>
<line x1="280.000000" y1="80" x2="280.000000" y2="580" stroke-dasharray="5 5" stroke="grey" />
<line x1="280.000000" y1="580" x2="280.000000" y2="585" stroke="black" />
<text x="280.000000" y="600" text-anchor="middle">50</text>
<line x1="320.000000" y1="80" x2="320.000000" y2="580" stroke-dasharray="5 5" stroke="grey" />
<line x1="320.000000" y1="580" x2="320.000000" y2="585" stroke="black" />
<text x="320.000000" y="600" text-anchor="middle">60</text>
<line x1="360.000000" y1="80" x2="360.000000" y2="580" stroke-dasharray="5 5" stroke="grey" />
<line x1="360.000000" y1="580" x2="360.000000" y2="585" stroke="black" />
<text x="360.000000" y="600" text-anchor="middle">70</text>
<line x1="400.000000" y1="80" x2="400.000000" y2="580" stroke-dasharray="5 5" stroke="grey" />
<line x1="400.000000" y1="580" x2="400.000000" y2="585" stroke="black" />
<text x="400.000000" y="600" text-anchor="middle">80</text>
<line x1="440.000000" y1="80" x2="440.000000" y2="580" stroke-dasharray="5 5" stroke="grey" />
<line x1="440.000000" y1="580" x2="440.000000" y2="585" stroke="black" />
<text x="440.000000" y="600" text-anchor="middle">90</text>
<line x1="480.000000" y1="80" x2="480.000000" y2="580" stroke-dasharray="5 5" stroke="grey" />
<line x1="480.000000" y1="580" x2="480.000000" y2="585" stroke="black" />
<text x="480.000000" y="600" text-anchor="middle">100</text>
<line x1="520.000000" y1="80" x2="520.000000" y2="580" stroke-dasharray="5 5" stroke="grey" />
<line x1="520.000000" y1="580" x2="520.000000" y2="585" stroke="black" />
<text x="520.000000" y="600" text-anchor="middle">110</text>
<line x1="560.000000" y1="80" x2="560.000000" y2="580" stroke-dasharray="5 5" stroke="grey" />
<line x1="560.000000" y1="580" x2="560.000000" y2="585" stroke="black" />
<text x="560.000000" y="600" text-anchor="middle">120</text>
<line x1="80" y1="580.000000" x2="75" y2="580.000000" stroke="black" />
<text x="55" y="580.000000" text-anchor="middle" dominant-baseline="middle">0.00</text>
<line x1="80" y1="555.000000" x2="75" y2="555.000000" stroke="black" />
<text x="55" y="555.000000" text-anchor="middle" dominant-baseline="middle">0.05</text>
<line x1="80" y1="530.000000" x2="75" y2="530.000000" stroke="black" />
<text x="55" y="530.000000" text-anchor="middle" dominant-baseline="middle">0.10</text>
<line x1="80" y1="505.000000" x2="75" y2="505.000000" stroke="black" />
<text x="55" y="505.000000" text-anchor="middle" dominant-baseline="middle">0.15</text>
<line x1="80" y1="480.000000" x2="75" y2="480.000000" stroke="black" />
<text x="55" y="480.000000" text-anchor="middle" dominant-baseline="middle">0.20</text>
<line x1="80" y1="455.000000" x2="75" y2="455.000000" stroke="black" />
<text x="55" y="455.000000" text-anchor="middle" dominant-baseline="middle">0.25</text>
<line x1="80" y1="430.000000" x2="75" y2="430.000000" stroke="black" />
<text x="55" y="430.000000" text-anchor="middle" dominant-baseline="middle">0.30</text>
<line x1="80" y1="405.000000" x2="75" y2="405.000000" stroke="black" />
<text x="55" y="405.000000" text-anchor="middle" dominant-baseline="middle">0.35</text>
<line x1="80" y1="380.000000" x2="75" y2="380.000000" stroke="black" />
<text x="55" y="380.000000" text-anchor="middle" dominant-baseline="middle">0.40</text>
<line x1="80" y1="355.000000" x2="75" y2="355.000000" stroke="black" />
<text x="55" y="355.000000" text-anchor="middle" dominant-baseline="middle">0.45</text>
<line x1="80" y1="330.000000" x2="75" y2="330.000000" stroke="black" />
<text x="55" y="330.000000" text-anchor="middle" dominant-baseline="middle">0.50</text>
<line x1="80" y1="305.000000" x2="75" y2="305.000000" stroke="black" />
<text x="55" y="305.000000" text-anchor="middle" dominant-baseline="middle">0.55</text>
<line x1="80" y1="280.000000" x2="75" y2="280.000000" stroke="black" />
<text x="55" y="280.000000" text-anchor="middle" dominant-baseline="middle">0.60</text>
<line x1="80" y1="255.000000" x2="75" y2="255.000000" stroke="black" />
<text x="55" y="255.000000" text-anchor="middle" dominant-baseline="middle">0.65</text>
<line x1="80" y1="230.000000" x2="75" y2="230.000000" stroke="black" />
<text x="55" y="230.000000" text-anchor="middle" dominant-baseline="middle">0.70</text>
<line x1="80" y1="205.000000" x2="75" y2="205.000000" stroke="black" />
<text x="55" y="205.000000" text-anchor="middle" dominant-baseline="middle">0.75</text>
<line x1="80" y1="180.000000" x2="75" y2="180.000000" stroke="black" />
<text x="55" y="180.000000" text-anchor="middle" dominant-baseline="middle">0.80</text>
<line x1="80" y1="155.000000" x2="75" y2="155.000000" stroke="black" />
<text x="55" y="155.000000" text-anchor="middle" dominant-baseline="middle">0.85</text>
<line x1="80" y1="130.000000" x2="75" y2="130.000000" stroke="black" />
<text x="55" y="130.000000" text-anchor="middle" dominant-baseline="middle">0.90</text>
<line x1="80" y1="105.000000" x2="75" y2="105.000000" stroke="black" />
<text x="55" y="105.000000" text-anchor="middle" dominant-baseline="middle">0.95</text>
<line x1="80" y1="80.000000" x2="75" y2="80.000000" stroke="black" />
<text x="55" y="80.000000" text-anchor="middle" dominant-baseline="middle">1.00</text>
<path d="M 84.000000 233.866112
  L 88.000000 208.411265
  L 92.000000 206.152743
  L 96.000000 207.244556
  L 100.000000 212.494309
  L 104.000000 208.676483
  L 108.000000 204.750061
  L 112.000000 208.899812
  L 116.000000 204.767119
  L 120.000000 202.387899
  L 124.000000 205.816942
  L 128.000000 207.836658
  L 132.000000 206.161205
  L 136.000000 204.840242
  L 140.000000 206.236722
  L 144.000000 205.795948
  L 148.000000 201.944244
  L 152.000000 206.056811
  L 156.000000 203.478127
  L 160.000000 203.865375
  L 164.000000 203.793377
  L 168.000000 206.031520
  L 172.000000 203.123889
  L 176.000000 203.646066
  L 180.000000 202.841149
  L 184.000000 203.731898
  L 188.000000 204.687344
  L 192.000000 201.042377
  L 196.000000 203.177448
  L 200.000000 203.120476
  L 204.000000 203.199902
  L 208.000000 202.417816
  L 212.000000 204.495162
  L 216.000000 198.688034
  L 220.000000 207.023319
  L 224.000000 201.547573
  L 228.000000 202.465790
  L 232.000000 203.832962
  L 236.000000 200.274612
  L 240.000000 199.884312
  L 244.000000 201.629516
  L 248.000000 204.723287
  L 252.000000 203.771064
  L 256.000000 203.359042
  L 260.000000 203.468462
  L 264.000000 199.001070
  L 268.000000 203.997202
  L 272.000000 202.188988
  L 276.000000 198.434070
  L 280.000000 201.302943
  L 284.000000 201.090143
  L 288.000000 201.016492
  L 292.000000 201.109125
  L 296.000000 202.793919
  L 300.000000 201.766517
  L 304.000000 200.053478
  L 308.000000 201.941540
  L 312.000000 201.040736
  L 316.000000 201.716761
  L 320.000000 199.574718
  L 324.000000 200.440786
  L 328.000000 200.886532
  L 332.000000 199.475376
  L 336.000000 199.574198
  L 340.000000 201.372499
  L 344.000000 200.500269
  L 348.000000 201.565768
  L 352.000000 199.730690
  L 356.000000 200.002864
  L 360.000000 198.509085
  L 364.000000 200.570113
  L 368.000000 198.429016
  L 372.000000 199.046779
  L 376.000000 200.651905
  L 380.000000 202.183860
  L 384.000000 200.452345
  L 388.000000 199.808690
  L 392.000000 199.536316
  L 396.000000 198.479083
  L 400.000000 200.376519
  L 404.000000 198.131185
  L 408.000000 198.891454
  L 412.000000 200.080668
  L 416.000000 200.222951
  L 420.000000 198.444417
  L 424.000000 199.843731
  L 428.000000 198.453856
  L 432.000000 199.373364
  L 436.000000 198.646575
  L 440.000000 196.813502
  L 444.000000 197.249089
  L 448.000000 198.755282
  L 452.000000 196.933526
  L 456.000000 198.086271
  L 460.000000 197.917480
  L 464.000000 200.214724
  L 468.000000 198.869677
  L 472.000000 200.333394
  L 476.000000 197.369715
  L 480.000000 196.620332
  L 484.000000 197.574768
  L 488.000000 196.903152
  L 492.000000 194.904157
  L 496.000000 198.216267
  L 500.000000 197.168416
  L 504.000000 198.174078
  L 508.000000 199.012011
  L 512.000000 197.170529
  L 516.000000 195.335461
  L 520.000000 194.965892
  L 524.000000 196.034597
  L 528.000000 194.508552
  L 532.000000 196.953196
  L 536.000000 196.675533
  L 540.000000 197.204076
  L 544.000000 198.435151
  L 548.000000 196.031926
  L 552.000000 197.114600
  L 556.000000 195.411449
  L 560.000000 192.762805
  L 564.000000 189.344010
  L 568.000000 193.118923
  L 572.000000 195.002389
  L 576.000000 181.340342
  L 580.000000 174.629953
  L 580.000000 173.434554
  L 576.000000 180.081274
  L 572.000000 193.768916
  L 568.000000 191.969897
  L 564.000000 188.215206
  L 560.000000 191.624496
  L 556.000000 194.240586
  L 552.000000 195.942490
  L 548.000000 194.904365
  L 544.000000 197.298803
  L 540.000000 196.069219
  L 536.000000 195.552177
  L 532.000000 195.823608
  L 528.000000 193.395501
  L 524.000000 194.910015
  L 520.000000 193.855151
  L 516.000000 194.225373
  L 512.000000 196.046797
  L 508.000000 197.877130
  L 504.000000 197.041550
  L 500.000000 196.045328
  L 496.000000 197.085522
  L 492.000000 193.803784
  L 488.000000 195.783253
  L 484.000000 196.455864
  L 480.000000 195.497752
  L 476.000000 196.248061
  L 472.000000 199.196198
  L 468.000000 197.736877
  L 464.000000 199.070752
  L 460.000000 196.799679
  L 456.000000 196.957946
  L 452.000000 195.822340
  L 448.000000 197.636597
  L 444.000000 196.130881
  L 440.000000 195.699669
  L 436.000000 197.518922
  L 432.000000 198.239323
  L 428.000000 197.339185
  L 424.000000 198.720079
  L 420.000000 197.321136
  L 416.000000 199.078885
  L 412.000000 198.943986
  L 408.000000 197.760919
  L 404.000000 197.013849
  L 400.000000 199.232724
  L 396.000000 197.352448
  L 392.000000 198.406827
  L 388.000000 198.690606
  L 384.000000 199.321645
  L 380.000000 201.026751
  L 376.000000 199.515279
  L 372.000000 197.926369
  L 368.000000 197.318135
  L 364.000000 199.435115
  L 360.000000 197.389789
  L 356.000000 198.867989
  L 352.000000 198.614340
  L 348.000000 200.425058
  L 344.000000 199.367142
  L 340.000000 200.237118
  L 336.000000 198.454615
  L 332.000000 198.358352
  L 328.000000 199.759672
  L 324.000000 199.310486
  L 320.000000 198.448189
  L 316.000000 200.579376
  L 312.000000 199.909556
  L 308.000000 200.804196
  L 304.000000 198.944990
  L 300.000000 200.630816
  L 296.000000 201.645979
  L 292.000000 199.988815
  L 288.000000 199.885062
  L 284.000000 199.952440
  L 280.000000 200.174046
  L 276.000000 197.334381
  L 272.000000 201.046949
  L 268.000000 202.847992
  L 264.000000 197.899037
  L 260.000000 202.322658
  L 256.000000 202.214691
  L 252.000000 202.616467
  L 248.000000 203.562359
  L 244.000000 200.510347
  L 240.000000 198.769440
  L 236.000000 199.152576
  L 232.000000 202.685120
  L 228.000000 201.330598
  L 224.000000 200.431887
  L 220.000000 205.845982
  L 216.000000 197.592957
  L 212.000000 203.354062
  L 208.000000 201.298462
  L 204.000000 202.062779
  L 200.000000 201.978785
  L 196.000000 202.043016
  L 192.000000 199.927121
  L 188.000000 203.534193
  L 184.000000 202.598590
  L 180.000000 201.723922
  L 176.000000 202.512665
  L 172.000000 202.003064
  L 168.000000 204.871836
  L 164.000000 202.658589
  L 160.000000 202.734595
  L 156.000000 202.341092
  L 152.000000 204.896381
  L 148.000000 200.840666
  L 144.000000 204.644032
  L 140.000000 205.086268
  L 136.000000 203.710990
  L 132.000000 205.015517
  L 128.000000 206.675393
  L 124.000000 204.669908
  L 120.000000 201.280746
  L 116.000000 203.631118
  L 112.000000 207.728604
  L 108.000000 203.632096
  L 104.000000 207.502534
  L 100.000000 211.314251
  L 96.000000 206.093156
  L 92.000000 205.031610
  L 88.000000 207.394200
  L 84.000000 232.644505
Z" fill="rgb(248,118,109)" fill-opacity="0.2"/>
<path d="M 84.000000 531.612803
  L 88.000000 318.816811
  L 92.000000 263.758334
  L 96.000000 265.074771
  L 100.000000 248.831175
  L 104.000000 232.555668
  L 108.000000 228.026468
  L 112.000000 227.239514
  L 116.000000 229.291276
  L 120.000000 228.853171
  L 124.000000 228.274856
  L 128.000000 226.437155
  L 132.000000 223.770401
  L 136.000000 221.384972
  L 140.000000 218.994678
  L 144.000000 218.867458
  L 148.000000 217.067230
  L 152.000000 215.246340
  L 156.000000 215.977299
  L 160.000000 215.164078
  L 164.000000 213.100528
  L 168.000000 211.211711
  L 172.000000 211.025032
  L 176.000000 208.570123
  L 180.000000 209.272869
  L 184.000000 207.496626
  L 188.000000 208.489604
  L 192.000000 207.726883
  L 196.000000 208.513497
  L 200.000000 207.759271
  L 204.000000 207.364497
  L 208.000000 206.534335
  L 212.000000 204.858254
  L 216.000000 204.208383
  L 220.000000 204.369189
  L 224.000000 202.305225
  L 228.000000 203.054198
  L 232.000000 203.970514
  L 236.000000 202.746978
  L 240.000000 202.936897
  L 244.000000 202.946171
  L 248.000000 202.722892
  L 252.000000 202.807494
  L 256.000000 202.637513
  L 260.000000 201.801486
  L 264.000000 201.121134
  L 268.000000 200.194871
  L 272.000000 201.316931
  L 276.000000 201.381126
  L 280.000000 201.651660
  L 284.000000 201.575127
  L 288.000000 202.854090
  L 292.000000 201.744247
  L 296.000000 201.091607
  L 300.000000 200.978121
  L 304.000000 199.908203
  L 308.000000 200.905124
  L 312.000000 200.310625
  L 316.000000 201.622930
  L 320.000000 200.727154
  L 324.000000 202.500538
  L 328.000000 201.999567
  L 332.000000 201.291493
  L 336.000000 199.882608
  L 340.000000 200.971228
  L 344.000000 200.464157
  L 348.000000 201.259901
  L 352.000000 200.247872
  L 356.000000 200.898827
  L 360.000000 201.464939
  L 364.000000 201.442422
  L 368.000000 201.710673
  L 372.000000 201.661593
  L 376.000000 200.781759
  L 380.000000 201.279888
  L 384.000000 200.918743
  L 388.000000 200.561209
  L 392.000000 201.144131
  L 396.000000 201.108350
  L 400.000000 201.783861
  L 404.000000 201.762547
  L 408.000000 201.910959
  L 412.000000 201.239453
  L 416.000000 201.498720
  L 420.000000 201.147190
  L 424.000000 200.979150
  L 428.000000 200.069245
  L 432.000000 200.608413
  L 436.000000 201.314445
  L 440.000000 201.098458
  L 444.000000 201.756305
  L 448.000000 202.547517
  L 452.000000 202.008681
  L 456.000000 201.933043
  L 460.000000 201.242735
  L 464.000000 200.695950
  L 468.000000 201.578598
  L 472.000000 200.753024
  L 476.000000 200.757147
  L 480.000000 200.713116
  L 484.000000 202.203574
  L 488.000000 201.963949
  L 492.000000 202.495159
  L 496.000000 202.778207
  L 500.000000 201.870444
  L 504.000000 200.756955
  L 508.000000 200.449275
  L 512.000000 200.384752
  L 516.000000 201.175850
  L 520.000000 201.015480
  L 524.000000 200.749916
  L 528.000000 201.530160
  L 532.000000 201.701298
  L 536.000000 201.749542
  L 540.000000 201.243051
  L 544.000000 201.240098
  L 548.000000 200.578738
  L 552.000000 199.234541
  L 556.000000 199.302937
  L 560.000000 199.940382
  L 564.000000 200.135039
  L 568.000000 199.982715
  L 572.000000 200.113525
  L 576.000000 197.760887
  L 580.000000 80.006863
  L 580.000000 80.000000
  L 576.000000 196.573507
  L 572.000000 198.943560
  L 568.000000 198.826030
  L 564.000000 198.983602
  L 560.000000 198.791453
  L 556.000000 198.160112
  L 552.000000 198.095396
  L 548.000000 199.429511
  L 544.000000 200.089474
  L 540.000000 200.097310
  L 536.000000 200.602668
  L 532.000000 200.556338
  L 528.000000 200.384627
  L 524.000000 199.607828
  L 520.000000 199.873455
  L 516.000000 200.031560
  L 512.000000 199.247538
  L 508.000000 199.312776
  L 504.000000 199.622006
  L 500.000000 200.724589
  L 496.000000 201.626945
  L 492.000000 201.348839
  L 488.000000 200.821465
  L 484.000000 201.063241
  L 480.000000 199.582121
  L 476.000000 199.625833
  L 472.000000 199.617586
  L 468.000000 200.440386
  L 464.000000 199.563984
  L 460.000000 200.111914
  L 456.000000 200.796642
  L 452.000000 200.875440
  L 448.000000 201.409068
  L 444.000000 200.619871
  L 440.000000 199.967448
  L 436.000000 200.183395
  L 432.000000 199.478083
  L 428.000000 198.943125
  L 424.000000 199.851235
  L 420.000000 200.018461
  L 416.000000 200.367370
  L 412.000000 200.113211
  L 408.000000 200.779710
  L 404.000000 200.631002
  L 400.000000 200.653201
  L 396.000000 199.978554
  L 392.000000 200.014557
  L 388.000000 199.436470
  L 384.000000 199.789841
  L 380.000000 200.151442
  L 376.000000 199.660274
  L 372.000000 200.534237
  L 368.000000 200.582632
  L 364.000000 200.316658
  L 360.000000 200.338876
  L 356.000000 199.777001
  L 352.000000 199.131936
  L 348.000000 200.131006
  L 344.000000 199.340576
  L 340.000000 199.847778
  L 336.000000 198.770293
  L 332.000000 200.168247
  L 328.000000 200.876147
  L 324.000000 201.370246
  L 320.000000 199.609880
  L 316.000000 200.496827
  L 312.000000 199.194192
  L 308.000000 199.782281
  L 304.000000 198.796668
  L 300.000000 199.857065
  L 296.000000 199.970104
  L 292.000000 200.619296
  L 288.000000 201.722216
  L 284.000000 200.451596
  L 280.000000 200.535160
  L 276.000000 200.262543
  L 272.000000 200.193721
  L 268.000000 199.083890
  L 264.000000 200.002734
  L 260.000000 200.674362
  L 256.000000 201.509426
  L 252.000000 201.676711
  L 248.000000 201.597623
  L 244.000000 201.826646
  L 240.000000 201.820500
  L 236.000000 201.626807
  L 232.000000 202.837191
  L 228.000000 201.931203
  L 224.000000 201.198054
  L 220.000000 203.236576
  L 216.000000 203.084589
  L 212.000000 203.730325
  L 208.000000 205.396779
  L 204.000000 206.219528
  L 200.000000 206.615713
  L 196.000000 207.369484
  L 192.000000 206.590744
  L 188.000000 207.341101
  L 184.000000 206.363091
  L 180.000000 208.126713
  L 176.000000 207.447127
  L 172.000000 209.880218
  L 168.000000 210.064389
  L 164.000000 211.944265
  L 160.000000 214.000620
  L 156.000000 214.804061
  L 152.000000 214.090283
  L 148.000000 215.899307
  L 144.000000 217.690312
  L 140.000000 217.818120
  L 136.000000 220.201823
  L 132.000000 222.575973
  L 128.000000 225.239113
  L 124.000000 227.078193
  L 120.000000 227.653357
  L 116.000000 228.053387
  L 112.000000 225.959599
  L 108.000000 226.812265
  L 104.000000 231.303538
  L 100.000000 247.575540
  L 96.000000 263.726681
  L 92.000000 262.130260
  L 88.000000 317.625323
  L 84.000000 530.913262
Z" fill="rgb(0,191,196)" fill-opacity="0.2"/>
<path d="M 84.000000 233.254629
  L 88.000000 207.902069
  L 92.000000 205.591345
  L 96.000000 206.667991
  L 100.000000 211.903433
  L 104.000000 208.088627
  L 108.000000 204.190236
  L 112.000000 208.313333
  L 116.000000 204.198249
  L 120.000000 201.833470
  L 124.000000 205.242551
  L 128.000000 207.255153
  L 132.000000 205.587493
  L 136.000000 204.274758
  L 140.000000 205.660620
  L 144.000000 205.219108
  L 148.000000 201.391603
  L 152.000000 205.475704
  L 156.000000 202.908723
  L 160.000000 203.299113
  L 164.000000 203.225104
  L 168.000000 205.450787
  L 172.000000 202.562611
  L 176.000000 203.078487
  L 180.000000 202.281673
  L 184.000000 203.164366
  L 188.000000 204.109872
  L 192.000000 200.483869
  L 196.000000 202.609346
  L 200.000000 202.548733
  L 204.000000 202.630451
  L 208.000000 201.857268
  L 212.000000 203.923731
  L 216.000000 198.139619
  L 220.000000 206.433744
  L 224.000000 200.988854
  L 228.000000 201.897298
  L 232.000000 203.258142
  L 236.000000 199.712694
  L 240.000000 199.325982
  L 244.000000 201.069052
  L 248.000000 204.141914
  L 252.000000 203.192855
  L 256.000000 202.785967
  L 260.000000 202.894659
  L 264.000000 198.449169
  L 268.000000 203.421697
  L 272.000000 201.617058
  L 276.000000 197.883339
  L 280.000000 200.737595
  L 284.000000 200.520376
  L 288.000000 200.449870
  L 292.000000 200.548082
  L 296.000000 202.219037
  L 300.000000 201.197762
  L 304.000000 199.498352
  L 308.000000 201.371963
  L 312.000000 200.474240
  L 316.000000 201.147161
  L 320.000000 199.010537
  L 324.000000 199.874724
  L 328.000000 200.322201
  L 332.000000 198.915962
  L 336.000000 199.013501
  L 340.000000 200.803900
  L 344.000000 199.932789
  L 348.000000 200.994498
  L 352.000000 199.171617
  L 356.000000 199.434502
  L 360.000000 197.948519
  L 364.000000 200.001696
  L 368.000000 197.872671
  L 372.000000 198.485661
  L 376.000000 200.082672
  L 380.000000 201.604372
  L 384.000000 199.886083
  L 388.000000 199.248748
  L 392.000000 198.970649
  L 396.000000 197.914835
  L 400.000000 199.803687
  L 404.000000 197.571598
  L 408.000000 198.325255
  L 412.000000 199.511400
  L 416.000000 199.649981
  L 420.000000 197.881851
  L 424.000000 199.280996
  L 428.000000 197.895610
  L 432.000000 198.805412
  L 436.000000 198.081819
  L 440.000000 196.255656
  L 444.000000 196.689054
  L 448.000000 198.195026
  L 452.000000 196.377009
  L 456.000000 197.521170
  L 460.000000 197.357657
  L 464.000000 199.641801
  L 468.000000 198.302341
  L 472.000000 199.763871
  L 476.000000 196.807952
  L 480.000000 196.058095
  L 484.000000 197.014387
  L 488.000000 196.342264
  L 492.000000 194.353039
  L 496.000000 197.649954
  L 500.000000 196.605931
  L 504.000000 197.606870
  L 508.000000 198.443633
  L 512.000000 196.607721
  L 516.000000 194.779475
  L 520.000000 194.409573
  L 524.000000 195.471348
  L 528.000000 193.951069
  L 532.000000 196.387448
  L 536.000000 196.112908
  L 540.000000 196.635687
  L 544.000000 197.866030
  L 548.000000 195.467182
  L 552.000000 196.527519
  L 556.000000 194.824970
  L 560.000000 192.192625
  L 564.000000 188.778551
  L 568.000000 192.543369
  L 572.000000 194.384483
  L 576.000000 180.709337
  L 580.000000 174.030794
" stroke="rgb(248,118,109)" stroke-width="2" fill-opacity="0"/>
<path d="M 84.000000 531.264152
  L 88.000000 318.221000
  L 92.000000 262.943531
  L 96.000000 264.400213
  L 100.000000 248.202780
  L 104.000000 231.928876
  L 108.000000 227.418639
  L 112.000000 226.598739
  L 116.000000 228.671588
  L 120.000000 228.252562
  L 124.000000 227.675820
  L 128.000000 225.837410
  L 132.000000 223.172441
  L 136.000000 220.792642
  L 140.000000 218.405627
  L 144.000000 218.278111
  L 148.000000 216.482488
  L 152.000000 214.667528
  L 156.000000 215.389881
  L 160.000000 214.581555
  L 164.000000 212.521590
  L 168.000000 210.637236
  L 172.000000 210.451813
  L 176.000000 208.007817
  L 180.000000 208.698957
  L 184.000000 206.929024
  L 188.000000 207.914507
  L 192.000000 207.157977
  L 196.000000 207.940652
  L 200.000000 207.186645
  L 204.000000 206.791159
  L 208.000000 205.964706
  L 212.000000 204.293433
  L 216.000000 203.645629
  L 220.000000 203.802013
  L 224.000000 201.750786
  L 228.000000 202.491831
  L 232.000000 203.402978
  L 236.000000 202.186024
  L 240.000000 202.377838
  L 244.000000 202.385544
  L 248.000000 202.159381
  L 252.000000 202.241218
  L 256.000000 202.072587
  L 260.000000 201.237034
  L 264.000000 200.561049
  L 268.000000 199.638497
  L 272.000000 200.754436
  L 276.000000 200.820952
  L 280.000000 201.092535
  L 284.000000 201.012474
  L 288.000000 202.287267
  L 292.000000 201.180884
  L 296.000000 200.529966
  L 300.000000 200.416703
  L 304.000000 199.351547
  L 308.000000 200.342808
  L 312.000000 199.751517
  L 316.000000 201.058987
  L 320.000000 200.167629
  L 324.000000 201.934505
  L 328.000000 201.436975
  L 332.000000 200.728979
  L 336.000000 199.325561
  L 340.000000 200.408608
  L 344.000000 199.901465
  L 348.000000 200.694553
  L 352.000000 199.689012
  L 356.000000 200.337021
  L 360.000000 200.901015
  L 364.000000 200.878647
  L 368.000000 201.145759
  L 372.000000 201.097023
  L 376.000000 200.220122
  L 380.000000 200.714766
  L 384.000000 200.353388
  L 388.000000 199.997937
  L 392.000000 200.578442
  L 396.000000 200.542549
  L 400.000000 201.217634
  L 404.000000 201.195876
  L 408.000000 201.344439
  L 412.000000 200.675436
  L 416.000000 200.932144
  L 420.000000 200.581925
  L 424.000000 200.414291
  L 428.000000 199.505275
  L 432.000000 200.042338
  L 436.000000 200.748017
  L 440.000000 200.532047
  L 444.000000 201.187182
  L 448.000000 201.977393
  L 452.000000 201.441163
  L 456.000000 201.363939
  L 460.000000 200.676421
  L 464.000000 200.129056
  L 468.000000 201.008581
  L 472.000000 200.184388
  L 476.000000 200.190580
  L 480.000000 200.146709
  L 484.000000 201.632501
  L 488.000000 201.391794
  L 492.000000 201.921087
  L 496.000000 202.201659
  L 500.000000 201.296597
  L 504.000000 200.188565
  L 508.000000 199.880104
  L 512.000000 199.815221
  L 516.000000 200.602779
  L 520.000000 200.443543
  L 524.000000 200.177945
  L 528.000000 200.956470
  L 532.000000 201.127898
  L 536.000000 201.175182
  L 540.000000 200.669254
  L 544.000000 200.663851
  L 548.000000 200.003183
  L 552.000000 198.664027
  L 556.000000 198.730577
  L 560.000000 199.364968
  L 564.000000 199.558370
  L 568.000000 199.403411
  L 572.000000 199.527561
  L 576.000000 197.166153
  L 580.000000 80.000000
" stroke="rgb(0,191,196)" stroke-width="2" fill-opacity="0"/>
<text x="650" y="650" text-anchor="end">--OB 2,124,12,124</text>
<line x1="88.000000" y1="580" x2="88.000000" y2="80" stroke-dasharray="5 1" stroke="rgb(248,118,109)" stroke-width="1" />
<line x1="576.000000" y1="580" x2="576.000000" y2="80" stroke-dasharray="5 1" stroke="rgb(248,118,109)" stroke-width="1" />
<line x1="128.000000" y1="580" x2="128.000000" y2="80" stroke-dasharray="5 1" stroke="rgb(0,191,196)" stroke-width="1" />
<line x1="576.000000" y1="580" x2="576.000000" y2="80" stroke-dasharray="5 1" stroke="rgb(0,191,196)" stroke-width="1" />
<rect x="590" y="310" width="20" height="20" fill="rgb(248,118,109)" />
<text x="615" y="320" text-anchor="start" dominant-baseline="middle">#1</text>
<rect x="590" y="330" width="20" height="20" fill="rgb(0,191,196)" />
<text x="615" y="340" text-anchor="start" dominant-baseline="middle">#2</text>
</svg>
