<svg height="660" width="660"
    xmlns="http://www.w3.org/2000/svg"
    xmlns:xlink="http://www.w3.org/1999/xlink"
    xmlns:ev="http://www.w3.org/2001/xml-events">
<title>Original Bottom Strand</title>
<rect x="0" y="0" width="660" height="660" fill="white" />
<text x="330" y="20" text-anchor="middle">Original Bottom Strand</text>
<line x1="80" y1="80" x2="80" y2="580" stroke="black" />
<line x1="80" y1="580" x2="580" y2="580" stroke="black" />
<text x="15" y="330" transform="rotate(270 15, 330)" text-anchor="middle" dominant-baseline="text-before-edge">CpG Methylation %</text>
<text x="330" y="620" text-anchor="middle">Position along mapped read (5'->3' of + strand)</text>
<line x1="80" y1="580" x2="80" y2="585" stroke="black" />
<text x="80" y="600" text-anchor="middle">0</text>
<line x1="120.000000" y1="80" x2="120.000000" y2="580" stroke-dasharray="5 5" stroke="grey" />
<line x1="120.000000" y1="580" x2="120.000000" y2="585" stroke="black" />
<text x="120.000000" y="600" text-anchor="middle">10</text>
<line x1="160.000000" y1="80" x2="160.000000" y2="580" stroke-dasharray="5 5" stroke="grey" />
<line x1="160.000000" y1="580" x2="160.000000" y2="585" stroke="black" />
<text x="160.000000" y="600" text-anchor="middle">20</text>
<line x1="200.000000" y1="80" x2="200.000000" y2="580" stroke-dasharray="5 5" stroke="grey" />
<line x1="200.000000" y1="580" x2="200.000000" y2="585" stroke="black" />
<text x="200.000000" y="600" text-anchor="middle">30</text>
<line x1="240.000000" y1="80" x2="240.000000" y2="580" stroke-dasharray="5 5" stroke="grey" />
<line x1="240.000000" y1="580" x2="240.000000" y2="585" stroke="black" />
<text x="240.000000" y="600" text-anchor="middle">40</text>
<line x1="280.000000" y1="80" x2="280.000000" y2="580" stroke-dasharray="5 5" stroke="grey" />
<line x1="280.000000" y1="580" x2="280.000000" y2="585" stroke="black" />
<text x="280.000000" y="600" text-anchor="middle">50</text>
<line x1="320.000000" y1="80" x2="320.000000" y2="580" stroke-dasharray="5 5" stroke="grey" />
<line x1="320.000000" y1="580" x2="320.000000" y2="585" stroke="black" />
<text x="320.000000" y="600" text-anchor="middle">60</text>
<line x1="360.000000" y1="80" x2="360.000000" y2="580" stroke-dasharray="5 5" stroke="grey" />
<line x1="360.000000" y1="580" x2="360.000000" y2="585" stroke="black" />
<text x="360.000000" y="600" text-anchor="middle">70</text>
<line x1="400.000000" y1="80" x2="400.000000" y2="580" stroke-dasharray="5 5" stroke="grey" />
<line x1="400.000000" y1="580" x2="400.000000" y2="585" stroke="black" />
<text x="400.000000" y="600" text-anchor="middle">80</text>
<line x1="440.000000" y1="80" x2="440.000000" y2="580" stroke-dasharray="5 5" stroke="grey" />
<line x1="440.000000" y1="580" x2="440.000000" y2="585" stroke="black" />
<text x="440.000000" y="600" text-anchor="middle">90</text>
<line x1="480.000000" y1="80" x2="480.000000" y2="580" stroke-dasharray="5 5" stroke="grey" />
<line x1="480.000000" y1="580" x2="480.000000" y2="585" stroke="black" />
<text x="480.000000" y="600" text-anchor="middle">100</text>
<line x1="520.000000" y1="80" x2="520.000000" y2="580" stroke-dasharray="5 5" stroke="grey" />
<line x1="520.000000" y1="580" x2="520.000000" y2="585" stroke="black" />
<text x="520.000000" y="600" text-anchor="middle">110</text>
<line x1="560.000000" y1="80" x2="560.000000" y2="580" stroke-dasharray="5 5" stroke="grey" />
<line x1="560.000000" y1="580" x2="560.000000" y2="585" stroke="black" />
<text x="560.000000" y="600" text-anchor="middle">120</text>
<line x1="80" y1="580.000000" x2="75" y2="580.000000" stroke="black" />
<text x="55" y="580.000000" text-anchor="middle" dominant-baseline="middle">0.00</text>
<line x1="80" y1="555.000000" x2="75" y2="555.000000" stroke="black" />
<text x="55" y="555.000000" text-anchor="middle" dominant-baseline="middle">0.05</text>
<line x1="80" y1="530.000000" x2="75" y2="530.000000" stroke="black" />
<text x="55" y="530.000000" text-anchor="middle" dominant-baseline="middle">0.10</text>
<line x1="80" y1="505.000000" x2="75" y2="505.000000" stroke="black" />
<text x="55" y="505.000000" text-anchor="middle" dominant-baseline="middle">0.15</text>
<line x1="80" y1="480.000000" x2="75" y2="480.000000" stroke="black" />
<text x="55" y="480.000000" text-anchor="middle" dominant-baseline="middle">0.20</text>
<line x1="80" y1="455.000000" x2="75" y2="455.000000" stroke="black" />
<text x="55" y="455.000000" text-anchor="middle" dominant-baseline="middle">0.25</text>
<line x1="80" y1="430.000000" x2="75" y2="430.000000" stroke="black" />
<text x="55" y="430.000000" text-anchor="middle" dominant-baseline="middle">0.30</text>
<line x1="80" y1="405.000000" x2="75" y2="405.000000" stroke="black" />
<text x="55" y="405.000000" text-anchor="middle" dominant-baseline="middle">0.35</text>
<line x1="80" y1="380.000000" x2="75" y2="380.000000" stroke="black" />
<text x="55" y="380.000000" text-anchor="middle" dominant-baseline="middle">0.40</text>
<line x1="80" y1="355.000000" x2="75" y2="355.000000" stroke="black" />
<text x="55" y="355.000000" text-anchor="middle" dominant-baseline="middle">0.45</text>
<line x1="80" y1="330.000000" x2="75" y2="330.000000" stroke="black" />
<text x="55" y="330.000000" text-anchor="middle" dominant-baseline="middle">0.50</text>
<line x1="80" y1="305.000000" x2="75" y2="305.000000" stroke="black" />
<text x="55" y="305.000000" text-anchor="middle" dominant-baseline="middle">0.55</text>
<line x1="80" y1="280.000000" x2="75" y2="280.000000" stroke="black" />
<text x="55" y="280.000000" text-anchor="middle" dominant-baseline="middle">0.60</text>
<line x1="80" y1="255.000000" x2="75" y2="255.000000" stroke="black" />
<text x="55" y="255.000000" text-anchor="middle" dominant-baseline="middle">0.65</text>
<line x1="80" y1="230.000000" x2="75" y2="230.000000" stroke="black" />
<text x="55" y="230.000000" text-anchor="middle" dominant-baseline="middle">0.70</text>
<line x1="80" y1="205.000000" x2="75" y2="205.000000" stroke="black" />
<text x="55" y="205.000000" text-anchor="middle" dominant-baseline="middle">0.75</text>
<line x1="80" y1="180.000000" x2="75" y2="180.000000" stroke="black" />
<text x="55" y="180.000000" text-anchor="middle" dominant-baseline="middle">0.80</text>
<line x1="80" y1="155.000000" x2="75" y2="155.000000" stroke="black" />
<text x="55" y="155.000000" text-anchor="middle" dominant-baseline="middle">0.85</text>
<line x1="80" y1="130.000000" x2="75" y2="130.000000" stroke="black" />
<text x="55" y="130.000000" text-anchor="middle" dominant-baseline="middle">0.90</text>
<line x1="80" y1="105.000000" x2="75" y2="105.000000" stroke="black" />
<text x="55" y="105.000000" text-anchor="middle" dominant-baseline="middle">0.95</text>
<line x1="80" y1="80.000000" x2="75" y2="80.000000" stroke="black" />
<text x="55" y="80.000000" text-anchor="middle" dominant-baseline="middle">1.00</text>
<path d="M 84.000000 237.240984
  L 88.000000 210.140433
  L 92.000000 207.728361
  L 96.000000 210.426301
  L 100.000000 216.002163
  L 104.000000 212.852478
  L 108.000000 209.988884
  L 112.000000 212.086612
  L 116.000000 208.467300
  L 120.000000 206.052512
  L 124.000000 209.061130
  L 128.000000 210.488458
  L 132.000000 209.206178
  L 136.000000 208.419684
  L 140.000000 209.295521
  L 144.000000 209.209238
  L 148.000000 205.614068
  L 152.000000 208.515849
  L 156.000000 206.180751
  L 160.000000 206.428406
  L 164.000000 206.361772
  L 168.000000 208.598692
  L 172.000000 205.572114
  L 176.000000 206.122546
  L 180.000000 205.290223
  L 184.000000 206.320015
  L 188.000000 206.941535
  L 192.000000 203.503845
  L 196.000000 205.024682
  L 200.000000 204.671517
  L 204.000000 204.958205
  L 208.000000 203.635731
  L 212.000000 205.748554
  L 216.000000 200.856927
  L 220.000000 208.030540
  L 224.000000 203.214687
  L 228.000000 204.036733
  L 232.000000 205.675889
  L 236.000000 202.088800
  L 240.000000 201.496788
  L 244.000000 202.273279
  L 248.000000 204.611673
  L 252.000000 204.148083
  L 256.000000 203.953442
  L 260.000000 204.278210
  L 264.000000 200.738345
  L 268.000000 204.780939
  L 272.000000 203.251972
  L 276.000000 200.514360
  L 280.000000 201.885556
  L 284.000000 202.558163
  L 288.000000 202.098153
  L 292.000000 201.619591
  L 296.000000 203.394865
  L 300.000000 202.536154
  L 304.000000 200.904582
  L 308.000000 203.022055
  L 312.000000 201.742419
  L 316.000000 201.914123
  L 320.000000 199.866488
  L 324.000000 201.136426
  L 328.000000 200.715051
  L 332.000000 199.357015
  L 336.000000 200.183674
  L 340.000000 201.222286
  L 344.000000 201.057600
  L 348.000000 201.745178
  L 352.000000 200.350550
  L 356.000000 200.846822
  L 360.000000 199.189913
  L 364.000000 200.711254
  L 368.000000 198.449301
  L 372.000000 199.033508
  L 376.000000 199.801106
  L 380.000000 202.217390
  L 384.000000 200.219018
  L 388.000000 199.197002
  L 392.000000 200.392191
  L 396.000000 198.408898
  L 400.000000 200.670479
  L 404.000000 198.251367
  L 408.000000 199.493395
  L 412.000000 198.609948
  L 416.000000 199.882147
  L 420.000000 199.162818
  L 424.000000 199.372234
  L 428.000000 198.660376
  L 432.000000 199.782858
  L 436.000000 198.372447
  L 440.000000 197.646781
  L 444.000000 197.177266
  L 448.000000 198.404327
  L 452.000000 196.610907
  L 456.000000 198.018153
  L 460.000000 197.403030
  L 464.000000 200.053281
  L 468.000000 199.168887
  L 472.000000 199.753156
  L 476.000000 197.992312
  L 480.000000 197.432774
  L 484.000000 197.269936
  L 488.000000 197.262423
  L 492.000000 194.422531
  L 496.000000 198.233982
  L 500.000000 197.733122
  L 504.000000 198.425902
  L 508.000000 198.462586
  L 512.000000 198.200953
  L 516.000000 196.269388
  L 520.000000 195.988565
  L 524.000000 196.117004
  L 528.000000 195.838417
  L 532.000000 197.011131
  L 536.000000 196.084938
  L 540.000000 197.490557
  L 544.000000 198.245964
  L 548.000000 197.163010
  L 552.000000 197.785740
  L 556.000000 195.446385
  L 560.000000 192.754499
  L 564.000000 189.276435
  L 568.000000 193.802028
  L 572.000000 195.248331
  L 576.000000 182.286527
  L 580.000000 172.558950
  L 580.000000 171.326118
  L 576.000000 180.981960
  L 572.000000 193.973157
  L 568.000000 192.613573
  L 564.000000 188.105267
  L 560.000000 191.567508
  L 556.000000 194.218539
  L 552.000000 196.550179
  L 548.000000 195.976181
  L 544.000000 197.056219
  L 540.000000 196.303274
  L 536.000000 194.913363
  L 532.000000 195.828515
  L 528.000000 194.671547
  L 524.000000 194.941630
  L 520.000000 194.821637
  L 516.000000 195.100478
  L 512.000000 197.017092
  L 508.000000 197.279354
  L 504.000000 197.243026
  L 500.000000 196.556625
  L 496.000000 197.051768
  L 492.000000 193.275050
  L 488.000000 196.091430
  L 484.000000 196.104172
  L 480.000000 196.258365
  L 476.000000 196.819595
  L 472.000000 198.568217
  L 468.000000 197.988642
  L 464.000000 198.860952
  L 460.000000 196.238039
  L 456.000000 196.839798
  L 452.000000 195.452559
  L 448.000000 197.236229
  L 444.000000 196.014881
  L 440.000000 196.480660
  L 436.000000 197.199080
  L 432.000000 198.600007
  L 428.000000 197.498597
  L 424.000000 198.199069
  L 420.000000 197.988063
  L 416.000000 198.695234
  L 412.000000 197.432948
  L 408.000000 198.313281
  L 404.000000 197.087518
  L 400.000000 199.476865
  L 396.000000 197.236855
  L 392.000000 199.210110
  L 388.000000 198.032434
  L 384.000000 199.042260
  L 380.000000 201.011474
  L 376.000000 198.623489
  L 372.000000 197.865648
  L 368.000000 197.290543
  L 364.000000 199.529277
  L 360.000000 198.018519
  L 356.000000 199.659218
  L 352.000000 199.180704
  L 348.000000 200.556617
  L 344.000000 199.871410
  L 340.000000 200.037514
  L 336.000000 199.014774
  L 332.000000 198.192189
  L 328.000000 199.539092
  L 324.000000 199.953658
  L 320.000000 198.689092
  L 316.000000 200.724855
  L 312.000000 200.555259
  L 308.000000 201.829346
  L 304.000000 199.741241
  L 300.000000 201.348481
  L 296.000000 202.193061
  L 292.000000 200.443746
  L 288.000000 200.912224
  L 284.000000 201.361312
  L 280.000000 200.701682
  L 276.000000 199.355190
  L 272.000000 202.052213
  L 268.000000 203.575229
  L 264.000000 199.571111
  L 260.000000 203.076361
  L 256.000000 202.754525
  L 252.000000 202.947058
  L 248.000000 203.399510
  L 244.000000 201.100888
  L 240.000000 200.324066
  L 236.000000 200.908727
  L 232.000000 204.464155
  L 228.000000 202.842018
  L 224.000000 202.036238
  L 220.000000 206.795227
  L 216.000000 199.700013
  L 212.000000 204.547130
  L 208.000000 202.453370
  L 204.000000 203.762916
  L 200.000000 203.469232
  L 196.000000 203.827818
  L 192.000000 202.319364
  L 188.000000 205.724624
  L 184.000000 205.115939
  L 180.000000 204.111070
  L 176.000000 204.922468
  L 172.000000 204.384049
  L 168.000000 207.370153
  L 164.000000 205.160985
  L 160.000000 205.230012
  L 156.000000 204.974591
  L 152.000000 207.286609
  L 148.000000 204.438638
  L 144.000000 207.984637
  L 140.000000 208.074046
  L 136.000000 207.215289
  L 132.000000 207.988079
  L 128.000000 209.254484
  L 124.000000 207.841388
  L 120.000000 204.873222
  L 116.000000 207.259363
  L 112.000000 210.841251
  L 108.000000 208.792395
  L 104.000000 211.599674
  L 100.000000 214.745445
  L 96.000000 209.198134
  L 92.000000 206.537985
  L 88.000000 209.041814
  L 84.000000 235.936496
Z" fill="rgb(248,118,109)" fill-opacity="0.2"/>
<path d="M 84.000000 529.211141
  L 88.000000 331.997219
  L 92.000000 279.053959
  L 96.000000 280.192716
  L 100.000000 263.521906
  L 104.000000 244.907407
  L 108.000000 240.424945
  L 112.000000 239.448698
  L 116.000000 241.407537
  L 120.000000 240.152154
  L 124.000000 238.704903
  L 128.000000 236.304395
  L 132.000000 233.436992
  L 136.000000 230.528555
  L 140.000000 227.580883
  L 144.000000 226.957745
  L 148.000000 224.653107
  L 152.000000 222.964664
  L 156.000000 222.708745
  L 160.000000 221.599357
  L 164.000000 219.200161
  L 168.000000 217.567790
  L 172.000000 216.866406
  L 176.000000 214.009582
  L 180.000000 214.795188
  L 184.000000 212.889315
  L 188.000000 213.139799
  L 192.000000 212.205048
  L 196.000000 212.419011
  L 200.000000 211.904864
  L 204.000000 211.170179
  L 208.000000 210.049434
  L 212.000000 208.330386
  L 216.000000 207.961157
  L 220.000000 208.343004
  L 224.000000 205.760595
  L 228.000000 206.918604
  L 232.000000 207.336481
  L 236.000000 206.351055
  L 240.000000 205.726973
  L 244.000000 206.138480
  L 248.000000 205.958415
  L 252.000000 205.560931
  L 256.000000 205.133893
  L 260.000000 204.684128
  L 264.000000 204.660018
  L 268.000000 203.769175
  L 272.000000 204.512284
  L 276.000000 204.524029
  L 280.000000 204.525342
  L 284.000000 204.750489
  L 288.000000 205.341645
  L 292.000000 204.075576
  L 296.000000 203.105096
  L 300.000000 203.928186
  L 304.000000 202.931880
  L 308.000000 203.388116
  L 312.000000 203.206741
  L 316.000000 204.015342
  L 320.000000 203.501857
  L 324.000000 204.284850
  L 328.000000 203.783354
  L 332.000000 203.381920
  L 336.000000 202.267185
  L 340.000000 203.012771
  L 344.000000 202.790440
  L 348.000000 203.362667
  L 352.000000 202.865844
  L 356.000000 203.522553
  L 360.000000 203.555435
  L 364.000000 203.870165
  L 368.000000 204.312219
  L 372.000000 203.323253
  L 376.000000 202.945010
  L 380.000000 202.594224
  L 384.000000 202.995883
  L 388.000000 202.613454
  L 392.000000 203.561344
  L 396.000000 203.421126
  L 400.000000 203.648922
  L 404.000000 204.133810
  L 408.000000 203.391007
  L 412.000000 203.202422
  L 416.000000 202.943633
  L 420.000000 202.867572
  L 424.000000 203.032021
  L 428.000000 202.962623
  L 432.000000 202.718985
  L 436.000000 203.174649
  L 440.000000 203.616169
  L 444.000000 203.262709
  L 448.000000 203.896251
  L 452.000000 203.880573
  L 456.000000 203.867069
  L 460.000000 203.327977
  L 464.000000 203.219287
  L 468.000000 203.088832
  L 472.000000 203.376397
  L 476.000000 203.119065
  L 480.000000 203.696726
  L 484.000000 204.147993
  L 488.000000 204.046127
  L 492.000000 204.133216
  L 496.000000 204.282866
  L 500.000000 203.797675
  L 504.000000 202.949895
  L 508.000000 203.351956
  L 512.000000 203.177908
  L 516.000000 203.579426
  L 520.000000 203.595713
  L 524.000000 203.310802
  L 528.000000 203.976154
  L 532.000000 203.652624
  L 536.000000 203.155103
  L 540.000000 203.235751
  L 544.000000 203.294834
  L 548.000000 202.530959
  L 552.000000 201.669983
  L 556.000000 202.635916
  L 560.000000 202.846132
  L 564.000000 202.885781
  L 568.000000 202.469442
  L 572.000000 202.640782
  L 576.000000 199.774535
  L 580.000000 80.007580
  L 580.000000 80.000000
  L 576.000000 198.525347
  L 572.000000 201.408482
  L 568.000000 201.251793
  L 564.000000 201.670072
  L 560.000000 201.634716
  L 556.000000 201.427793
  L 552.000000 200.467604
  L 548.000000 201.321549
  L 544.000000 202.084972
  L 540.000000 202.028416
  L 536.000000 201.950587
  L 532.000000 202.447057
  L 528.000000 202.767736
  L 524.000000 202.106676
  L 520.000000 202.390739
  L 516.000000 202.371722
  L 512.000000 201.976648
  L 508.000000 202.151068
  L 504.000000 201.752598
  L 500.000000 202.590951
  L 496.000000 203.073061
  L 492.000000 202.926371
  L 488.000000 202.844742
  L 484.000000 202.945896
  L 480.000000 202.499867
  L 476.000000 201.924784
  L 472.000000 202.177482
  L 468.000000 201.892842
  L 464.000000 202.024348
  L 460.000000 202.136424
  L 456.000000 202.669152
  L 452.000000 202.687884
  L 448.000000 202.701482
  L 444.000000 202.069418
  L 440.000000 202.419905
  L 436.000000 201.980121
  L 432.000000 201.526934
  L 428.000000 201.769633
  L 424.000000 201.840956
  L 420.000000 201.677163
  L 416.000000 201.752807
  L 412.000000 202.014994
  L 408.000000 202.199746
  L 404.000000 202.937033
  L 400.000000 202.453842
  L 396.000000 202.226703
  L 392.000000 202.365455
  L 388.000000 201.423255
  L 384.000000 201.802383
  L 380.000000 201.403610
  L 376.000000 201.756512
  L 372.000000 202.131467
  L 368.000000 203.116416
  L 364.000000 202.678557
  L 360.000000 202.362503
  L 356.000000 202.332878
  L 352.000000 201.681103
  L 348.000000 202.168308
  L 344.000000 201.599432
  L 340.000000 201.823126
  L 336.000000 201.084850
  L 332.000000 202.194414
  L 328.000000 202.593371
  L 324.000000 203.089280
  L 320.000000 202.315197
  L 316.000000 202.819584
  L 312.000000 202.019524
  L 308.000000 202.194666
  L 304.000000 201.748404
  L 300.000000 202.734255
  L 296.000000 201.911714
  L 292.000000 202.881967
  L 288.000000 204.139980
  L 284.000000 203.555541
  L 280.000000 203.337861
  L 276.000000 203.332518
  L 272.000000 203.314152
  L 268.000000 202.579895
  L 264.000000 203.465629
  L 260.000000 203.486456
  L 256.000000 203.937459
  L 252.000000 204.361009
  L 248.000000 204.760716
  L 244.000000 204.945431
  L 240.000000 204.539635
  L 236.000000 205.158040
  L 232.000000 206.129422
  L 228.000000 205.720867
  L 224.000000 204.581153
  L 220.000000 207.135755
  L 216.000000 206.763022
  L 212.000000 207.129314
  L 208.000000 208.836809
  L 204.000000 209.950477
  L 200.000000 210.684409
  L 196.000000 211.198264
  L 192.000000 210.993044
  L 188.000000 211.911314
  L 184.000000 211.673908
  L 180.000000 213.564544
  L 176.000000 212.802870
  L 172.000000 215.633890
  L 168.000000 216.324996
  L 164.000000 217.952565
  L 160.000000 220.347205
  L 156.000000 221.446555
  L 152.000000 221.713207
  L 148.000000 223.389568
  L 144.000000 225.681205
  L 140.000000 226.302721
  L 136.000000 229.244612
  L 132.000000 232.140310
  L 128.000000 235.003390
  L 124.000000 237.406857
  L 120.000000 238.845754
  L 116.000000 240.048977
  L 112.000000 238.050360
  L 108.000000 239.102812
  L 104.000000 243.554935
  L 100.000000 262.187696
  L 96.000000 278.762141
  L 92.000000 277.353146
  L 88.000000 330.789258
  L 84.000000 528.470701
Z" fill="rgb(0,191,196)" fill-opacity="0.2"/>
<path d="M 84.000000 236.588001
  L 88.000000 209.590366
  L 92.000000 207.132255
  L 96.000000 209.811274
  L 100.000000 215.372887
  L 104.000000 212.225126
  L 108.000000 209.389739
  L 112.000000 211.462983
  L 116.000000 207.862395
  L 120.000000 205.461946
  L 124.000000 208.450312
  L 128.000000 209.870519
  L 132.000000 208.596186
  L 136.000000 207.816555
  L 140.000000 208.683837
  L 144.000000 208.595985
  L 148.000000 205.025432
  L 152.000000 207.900260
  L 156.000000 205.576708
  L 160.000000 205.828262
  L 164.000000 205.760427
  L 168.000000 207.983455
  L 172.000000 204.977140
  L 176.000000 205.521553
  L 180.000000 204.699716
  L 184.000000 205.717020
  L 188.000000 206.332109
  L 192.000000 202.910643
  L 196.000000 204.425287
  L 200.000000 204.069399
  L 204.000000 204.359600
  L 208.000000 203.043594
  L 212.000000 205.146881
  L 216.000000 200.277520
  L 220.000000 207.411898
  L 224.000000 202.624507
  L 228.000000 203.438404
  L 232.000000 205.069044
  L 236.000000 201.497791
  L 240.000000 200.909459
  L 244.000000 201.686126
  L 248.000000 204.004599
  L 252.000000 203.546590
  L 256.000000 203.353004
  L 260.000000 203.676306
  L 264.000000 200.153759
  L 268.000000 204.177105
  L 272.000000 202.651102
  L 276.000000 199.933817
  L 280.000000 201.292637
  L 284.000000 201.958743
  L 288.000000 201.504206
  L 292.000000 201.030697
  L 296.000000 202.792971
  L 300.000000 201.941338
  L 304.000000 200.321951
  L 308.000000 202.424719
  L 312.000000 201.147850
  L 316.000000 201.318499
  L 320.000000 199.276793
  L 324.000000 200.544053
  L 328.000000 200.126088
  L 332.000000 198.773619
  L 336.000000 199.598245
  L 340.000000 200.628908
  L 344.000000 200.463508
  L 348.000000 201.149906
  L 352.000000 199.764649
  L 356.000000 200.252018
  L 360.000000 198.603219
  L 364.000000 200.119271
  L 368.000000 197.868938
  L 372.000000 198.448585
  L 376.000000 199.211298
  L 380.000000 201.613418
  L 384.000000 199.629647
  L 388.000000 198.613734
  L 392.000000 199.800152
  L 396.000000 197.821869
  L 400.000000 200.072658
  L 404.000000 197.668446
  L 408.000000 198.902331
  L 412.000000 198.020434
  L 416.000000 199.287677
  L 420.000000 198.574438
  L 424.000000 198.784654
  L 428.000000 198.078499
  L 432.000000 199.190425
  L 436.000000 197.784753
  L 440.000000 197.062712
  L 444.000000 196.595066
  L 448.000000 197.819277
  L 452.000000 196.030724
  L 456.000000 197.427951
  L 460.000000 196.819525
  L 464.000000 199.456096
  L 468.000000 198.577752
  L 472.000000 199.159675
  L 476.000000 197.404939
  L 480.000000 196.844544
  L 484.000000 196.686041
  L 488.000000 196.675905
  L 492.000000 193.847771
  L 496.000000 197.641847
  L 500.000000 197.143849
  L 504.000000 197.833438
  L 508.000000 197.869943
  L 512.000000 197.607991
  L 516.000000 195.683901
  L 520.000000 195.404069
  L 524.000000 195.528271
  L 528.000000 195.253948
  L 532.000000 196.418777
  L 536.000000 195.498111
  L 540.000000 196.895869
  L 544.000000 197.650050
  L 548.000000 196.568544
  L 552.000000 197.166829
  L 556.000000 194.831310
  L 560.000000 192.159887
  L 564.000000 188.689711
  L 568.000000 193.206697
  L 572.000000 194.609498
  L 576.000000 181.632684
  L 580.000000 171.940933
" stroke="rgb(248,118,109)" stroke-width="2" fill-opacity="0"/>
<path d="M 84.000000 528.842108
  L 88.000000 331.393246
  L 92.000000 278.202926
  L 96.000000 279.476997
  L 100.000000 262.854286
  L 104.000000 244.230460
  L 108.000000 239.763153
  L 112.000000 238.748705
  L 116.000000 240.727501
  L 120.000000 239.498243
  L 124.000000 238.055163
  L 128.000000 235.653148
  L 132.000000 232.787881
  L 136.000000 229.885798
  L 140.000000 226.940991
  L 144.000000 226.318659
  L 148.000000 224.020512
  L 152.000000 222.338107
  L 156.000000 222.076805
  L 160.000000 220.972437
  L 164.000000 218.575497
  L 168.000000 216.945515
  L 172.000000 216.249276
  L 176.000000 213.405358
  L 180.000000 214.178973
  L 184.000000 212.280718
  L 188.000000 212.524646
  L 192.000000 211.598149
  L 196.000000 211.807731
  L 200.000000 211.293723
  L 204.000000 210.559407
  L 208.000000 209.442197
  L 212.000000 207.728923
  L 216.000000 207.361162
  L 220.000000 207.738443
  L 224.000000 205.169949
  L 228.000000 206.318796
  L 232.000000 206.732002
  L 236.000000 205.753608
  L 240.000000 205.132366
  L 244.000000 205.541014
  L 248.000000 205.358614
  L 252.000000 204.960010
  L 256.000000 204.534716
  L 260.000000 204.084324
  L 264.000000 204.061860
  L 268.000000 203.173569
  L 272.000000 203.912247
  L 276.000000 203.927314
  L 280.000000 203.930648
  L 284.000000 204.152052
  L 288.000000 204.739846
  L 292.000000 203.477803
  L 296.000000 202.507423
  L 300.000000 203.330249
  L 304.000000 202.339175
  L 308.000000 202.790413
  L 312.000000 202.612163
  L 316.000000 203.416490
  L 320.000000 202.907562
  L 324.000000 203.686095
  L 328.000000 203.187395
  L 332.000000 202.787198
  L 336.000000 201.675043
  L 340.000000 202.416972
  L 344.000000 202.193955
  L 348.000000 202.764507
  L 352.000000 202.272503
  L 356.000000 202.926745
  L 360.000000 202.957994
  L 364.000000 203.273392
  L 368.000000 203.713347
  L 372.000000 202.726384
  L 376.000000 202.349786
  L 380.000000 201.997933
  L 384.000000 202.398150
  L 388.000000 202.017372
  L 392.000000 202.962420
  L 396.000000 202.822935
  L 400.000000 203.050405
  L 404.000000 203.534448
  L 408.000000 202.794402
  L 412.000000 202.607738
  L 416.000000 202.347240
  L 420.000000 202.271387
  L 424.000000 202.435510
  L 428.000000 202.365145
  L 432.000000 202.121975
  L 436.000000 202.576402
  L 440.000000 203.017058
  L 444.000000 202.665084
  L 448.000000 203.297893
  L 452.000000 203.283258
  L 456.000000 203.267132
  L 460.000000 202.731225
  L 464.000000 202.620835
  L 468.000000 202.489851
  L 472.000000 202.775952
  L 476.000000 202.520942
  L 480.000000 203.097317
  L 484.000000 203.545962
  L 488.000000 203.444452
  L 492.000000 203.528803
  L 496.000000 203.676971
  L 500.000000 203.193318
  L 504.000000 202.350256
  L 508.000000 202.750521
  L 512.000000 202.576285
  L 516.000000 202.974575
  L 520.000000 202.992232
  L 524.000000 202.707742
  L 528.000000 203.370950
  L 532.000000 203.048846
  L 536.000000 202.551845
  L 540.000000 202.631081
  L 544.000000 202.688896
  L 548.000000 201.925238
  L 552.000000 201.067777
  L 556.000000 202.030842
  L 560.000000 202.239409
  L 564.000000 202.276905
  L 568.000000 201.859587
  L 572.000000 202.023579
  L 576.000000 199.148816
  L 580.000000 80.000000
" stroke="rgb(0,191,196)" stroke-width="2" fill-opacity="0"/>
<text x="650" y="650" text-anchor="end">--OB 2,124,15,124</text>
<line x1="88.000000" y1="580" x2="88.000000" y2="80" stroke-dasharray="5 1" stroke="rgb(248,118,109)" stroke-width="1" />
<line x1="576.000000" y1="580" x2="576.000000" y2="80" stroke-dasharray="5 1" stroke="rgb(248,118,109)" stroke-width="1" />
<line x1="140.000000" y1="580" x2="140.000000" y2="80" stroke-dasharray="5 1" stroke="rgb(0,191,196)" stroke-width="1" />
<line x1="576.000000" y1="580" x2="576.000000" y2="80" stroke-dasharray="5 1" stroke="rgb(0,191,196)" stroke-width="1" />
<rect x="590" y="310" width="20" height="20" fill="rgb(248,118,109)" />
<text x="615" y="320" text-anchor="start" dominant-baseline="middle">#1</text>
<rect x="590" y="330" width="20" height="20" fill="rgb(0,191,196)" />
<text x="615" y="340" text-anchor="start" dominant-baseline="middle">#2</text>
</svg>
