<svg height="660" width="660"
    xmlns="http://www.w3.org/2000/svg"
    xmlns:xlink="http://www.w3.org/1999/xlink"
    xmlns:ev="http://www.w3.org/2001/xml-events">
<title>Original Bottom Strand</title>
<rect x="0" y="0" width="660" height="660" fill="white" />
<text x="330" y="20" text-anchor="middle">Original Bottom Strand</text>
<line x1="80" y1="80" x2="80" y2="580" stroke="black" />
<line x1="80" y1="580" x2="580" y2="580" stroke="black" />
<text x="15" y="330" transform="rotate(270 15, 330)" text-anchor="middle" dominant-baseline="text-before-edge">CpG Methylation %</text>
<text x="330" y="620" text-anchor="middle">Position along mapped read (5'->3' of + strand)</text>
<line x1="80" y1="580" x2="80" y2="585" stroke="black" />
<text x="80" y="600" text-anchor="middle">0</text>
<line x1="120.000000" y1="80" x2="120.000000" y2="580" stroke-dasharray="5 5" stroke="grey" />
<line x1="120.000000" y1="580" x2="120.000000" y2="585" stroke="black" />
<text x="120.000000" y="600" text-anchor="middle">10</text>
<line x1="160.000000" y1="80" x2="160.000000" y2="580" stroke-dasharray="5 5" stroke="grey" />
<line x1="160.000000" y1="580" x2="160.000000" y2="585" stroke="black" />
<text x="160.000000" y="600" text-anchor="middle">20</text>
<line x1="200.000000" y1="80" x2="200.000000" y2="580" stroke-dasharray="5 5" stroke="grey" />
<line x1="200.000000" y1="580" x2="200.000000" y2="585" stroke="black" />
<text x="200.000000" y="600" text-anchor="middle">30</text>
<line x1="240.000000" y1="80" x2="240.000000" y2="580" stroke-dasharray="5 5" stroke="grey" />
<line x1="240.000000" y1="580" x2="240.000000" y2="585" stroke="black" />
<text x="240.000000" y="600" text-anchor="middle">40</text>
<line x1="280.000000" y1="80" x2="280.000000" y2="580" stroke-dasharray="5 5" stroke="grey" />
<line x1="280.000000" y1="580" x2="280.000000" y2="585" stroke="black" />
<text x="280.000000" y="600" text-anchor="middle">50</text>
<line x1="320.000000" y1="80" x2="320.000000" y2="580" stroke-dasharray="5 5" stroke="grey" />
<line x1="320.000000" y1="580" x2="320.000000" y2="585" stroke="black" />
<text x="320.000000" y="600" text-anchor="middle">60</text>
<line x1="360.000000" y1="80" x2="360.000000" y2="580" stroke-dasharray="5 5" stroke="grey" />
<line x1="360.000000" y1="580" x2="360.000000" y2="585" stroke="black" />
<text x="360.000000" y="600" text-anchor="middle">70</text>
<line x1="400.000000" y1="80" x2="400.000000" y2="580" stroke-dasharray="5 5" stroke="grey" />
<line x1="400.000000" y1="580" x2="400.000000" y2="585" stroke="black" />
<text x="400.000000" y="600" text-anchor="middle">80</text>
<line x1="440.000000" y1="80" x2="440.000000" y2="580" stroke-dasharray="5 5" stroke="grey" />
<line x1="440.000000" y1="580" x2="440.000000" y2="585" stroke="black" />
<text x="440.000000" y="600" text-anchor="middle">90</text>
<line x1="480.000000" y1="80" x2="480.000000" y2="580" stroke-dasharray="5 5" stroke="grey" />
<line x1="480.000000" y1="580" x2="480.000000" y2="585" stroke="black" />
<text x="480.000000" y="600" text-anchor="middle">100</text>
<line x1="520.000000" y1="80" x2="520.000000" y2="580" stroke-dasharray="5 5" stroke="grey" />
<line x1="520.000000" y1="580" x2="520.000000" y2="585" stroke="black" />
<text x="520.000000" y="600" text-anchor="middle">110</text>
<line x1="560.000000" y1="80" x2="560.000000" y2="580" stroke-dasharray="5 5" stroke="grey" />
<line x1="560.000000" y1="580" x2="560.000000" y2="585" stroke="black" />
<text x="560.000000" y="600" text-anchor="middle">120</text>
<line x1="80" y1="580.000000" x2="75" y2="580.000000" stroke="black" />
<text x="55" y="580.000000" text-anchor="middle" dominant-baseline="middle">0.00</text>
<line x1="80" y1="555.000000" x2="75" y2="555.000000" stroke="black" />
<text x="55" y="555.000000" text-anchor="middle" dominant-baseline="middle">0.05</text>
<line x1="80" y1="530.000000" x2="75" y2="530.000000" stroke="black" />
<text x="55" y="530.000000" text-anchor="middle" dominant-baseline="middle">0.10</text>
<line x1="80" y1="505.000000" x2="75" y2="505.000000" stroke="black" />
<text x="55" y="505.000000" text-anchor="middle" dominant-baseline="middle">0.15</text>
<line x1="80" y1="480.000000" x2="75" y2="480.000000" stroke="black" />
<text x="55" y="480.000000" text-anchor="middle" dominant-baseline="middle">0.20</text>
<line x1="80" y1="455.000000" x2="75" y2="455.000000" stroke="black" />
<text x="55" y="455.000000" text-anchor="middle" dominant-baseline="middle">0.25</text>
<line x1="80" y1="430.000000" x2="75" y2="430.000000" stroke="black" />
<text x="55" y="430.000000" text-anchor="middle" dominant-baseline="middle">0.30</text>
<line x1="80" y1="405.000000" x2="75" y2="405.000000" stroke="black" />
<text x="55" y="405.000000" text-anchor="middle" dominant-baseline="middle">0.35</text>
<line x1="80" y1="380.000000" x2="75" y2="380.000000" stroke="black" />
<text x="55" y="380.000000" text-anchor="middle" dominant-baseline="middle">0.40</text>
<line x1="80" y1="355.000000" x2="75" y2="355.000000" stroke="black" />
<text x="55" y="355.000000" text-anchor="middle" dominant-baseline="middle">0.45</text>
<line x1="80" y1="330.000000" x2="75" y2="330.000000" stroke="black" />
<text x="55" y="330.000000" text-anchor="middle" dominant-baseline="middle">0.50</text>
<line x1="80" y1="305.000000" x2="75" y2="305.000000" stroke="black" />
<text x="55" y="305.000000" text-anchor="middle" dominant-baseline="middle">0.55</text>
<line x1="80" y1="280.000000" x2="75" y2="280.000000" stroke="black" />
<text x="55" y="280.000000" text-anchor="middle" dominant-baseline="middle">0.60</text>
<line x1="80" y1="255.000000" x2="75" y2="255.000000" stroke="black" />
<text x="55" y="255.000000" text-anchor="middle" dominant-baseline="middle">0.65</text>
<line x1="80" y1="230.000000" x2="75" y2="230.000000" stroke="black" />
<text x="55" y="230.000000" text-anchor="middle" dominant-baseline="middle">0.70</text>
<line x1="80" y1="205.000000" x2="75" y2="205.000000" stroke="black" />
<text x="55" y="205.000000" text-anchor="middle" dominant-baseline="middle">0.75</text>
<line x1="80" y1="180.000000" x2="75" y2="180.000000" stroke="black" />
<text x="55" y="180.000000" text-anchor="middle" dominant-baseline="middle">0.80</text>
<line x1="80" y1="155.000000" x2="75" y2="155.000000" stroke="black" />
<text x="55" y="155.000000" text-anchor="middle" dominant-baseline="middle">0.85</text>
<line x1="80" y1="130.000000" x2="75" y2="130.000000" stroke="black" />
<text x="55" y="130.000000" text-anchor="middle" dominant-baseline="middle">0.90</text>
<line x1="80" y1="105.000000" x2="75" y2="105.000000" stroke="black" />
<text x="55" y="105.000000" text-anchor="middle" dominant-baseline="middle">0.95</text>
<line x1="80" y1="80.000000" x2="75" y2="80.000000" stroke="black" />
<text x="55" y="80.000000" text-anchor="middle" dominant-baseline="middle">1.00</text>
<path d="M 84.000000 296.382457
  L 88.000000 265.923542
  L 92.000000 255.620582
  L 96.000000 260.372980
  L 100.000000 268.526116
  L 104.000000 264.260744
  L 108.000000 261.182426
  L 112.000000 262.038960
  L 116.000000 258.973884
  L 120.000000 257.127353
  L 124.000000 258.616950
  L 128.000000 261.254067
  L 132.000000 259.605251
  L 136.000000 258.157444
  L 140.000000 260.035769
  L 144.000000 259.202075
  L 148.000000 255.733308
  L 152.000000 258.587661
  L 156.000000 255.633405
  L 160.000000 256.616202
  L 164.000000 256.699554
  L 168.000000 258.820967
  L 172.000000 254.832988
  L 176.000000 254.959760
  L 180.000000 255.396104
  L 184.000000 256.321114
  L 188.000000 257.434683
  L 192.000000 253.921426
  L 196.000000 254.476056
  L 200.000000 254.738825
  L 204.000000 255.539320
  L 208.000000 253.698523
  L 212.000000 256.344001
  L 216.000000 250.812126
  L 220.000000 259.069351
  L 224.000000 254.148589
  L 228.000000 254.579843
  L 232.000000 255.546851
  L 236.000000 251.831299
  L 240.000000 252.122758
  L 244.000000 252.979419
  L 248.000000 255.112116
  L 252.000000 254.112314
  L 256.000000 254.031721
  L 260.000000 255.082002
  L 264.000000 251.553562
  L 268.000000 254.879274
  L 272.000000 253.503940
  L 276.000000 250.499615
  L 280.000000 252.489111
  L 284.000000 253.046793
  L 288.000000 253.359124
  L 292.000000 251.598635
  L 296.000000 253.034377
  L 300.000000 253.492465
  L 304.000000 251.064818
  L 308.000000 253.866925
  L 312.000000 253.320705
  L 316.000000 253.255430
  L 320.000000 250.883477
  L 324.000000 252.559069
  L 328.000000 251.239147
  L 332.000000 249.931454
  L 336.000000 251.600214
  L 340.000000 252.561142
  L 344.000000 251.878330
  L 348.000000 254.349583
  L 352.000000 251.557567
  L 356.000000 251.388049
  L 360.000000 249.789267
  L 364.000000 251.800298
  L 368.000000 249.090941
  L 372.000000 250.456272
  L 376.000000 251.469628
  L 380.000000 253.811243
  L 384.000000 252.321877
  L 388.000000 251.438441
  L 392.000000 251.717981
  L 396.000000 249.389758
  L 400.000000 251.502121
  L 404.000000 249.587949
  L 408.000000 251.060205
  L 412.000000 250.821893
  L 416.000000 251.091382
  L 420.000000 250.346620
  L 424.000000 251.349141
  L 428.000000 250.254943
  L 432.000000 251.337665
  L 436.000000 250.203194
  L 440.000000 249.451268
  L 444.000000 250.388839
  L 448.000000 250.453863
  L 452.000000 249.260072
  L 456.000000 249.609627
  L 460.000000 249.008111
  L 464.000000 251.580594
  L 468.000000 251.412625
  L 472.000000 251.182479
  L 476.000000 250.550723
  L 480.000000 248.591874
  L 484.000000 248.747536
  L 488.000000 248.852467
  L 492.000000 246.973903
  L 496.000000 248.937248
  L 500.000000 249.568434
  L 504.000000 249.331546
  L 508.000000 249.821547
  L 512.000000 248.725690
  L 516.000000 246.863366
  L 520.000000 246.051000
  L 524.000000 246.077186
  L 528.000000 245.887697
  L 532.000000 247.612688
  L 536.000000 246.637857
  L 540.000000 247.688145
  L 544.000000 248.104997
  L 548.000000 245.907071
  L 552.000000 246.332196
  L 556.000000 241.243828
  L 560.000000 239.842102
  L 564.000000 235.745251
  L 568.000000 243.540103
  L 572.000000 240.994277
  L 576.000000 224.309261
  L 580.000000 223.256376
  L 580.000000 221.737937
  L 576.000000 222.825665
  L 572.000000 239.542465
  L 568.000000 242.168301
  L 564.000000 234.417007
  L 560.000000 238.523429
  L 556.000000 239.901640
  L 552.000000 244.972783
  L 548.000000 244.581242
  L 544.000000 246.768133
  L 540.000000 246.347238
  L 536.000000 245.308744
  L 532.000000 246.270550
  L 528.000000 244.565952
  L 524.000000 244.747545
  L 520.000000 244.730724
  L 516.000000 245.539328
  L 512.000000 247.389540
  L 508.000000 248.481168
  L 504.000000 247.997459
  L 500.000000 248.239136
  L 496.000000 247.603555
  L 492.000000 245.660450
  L 488.000000 247.525144
  L 484.000000 247.424399
  L 480.000000 247.265158
  L 476.000000 249.217200
  L 472.000000 249.844293
  L 468.000000 250.077217
  L 464.000000 250.242432
  L 460.000000 247.695144
  L 456.000000 248.285066
  L 452.000000 247.943874
  L 448.000000 249.132660
  L 444.000000 249.059122
  L 440.000000 248.128590
  L 436.000000 248.877936
  L 432.000000 250.007948
  L 428.000000 248.938863
  L 424.000000 250.027194
  L 420.000000 249.028355
  L 416.000000 249.757954
  L 412.000000 249.495088
  L 408.000000 249.734652
  L 404.000000 248.279388
  L 400.000000 250.166771
  L 396.000000 248.072692
  L 392.000000 250.391292
  L 388.000000 250.123776
  L 384.000000 250.997326
  L 380.000000 252.464147
  L 376.000000 250.144653
  L 372.000000 249.143818
  L 368.000000 247.791263
  L 364.000000 250.475558
  L 360.000000 248.478610
  L 356.000000 250.060525
  L 352.000000 250.245667
  L 348.000000 253.014528
  L 344.000000 250.553857
  L 340.000000 251.236014
  L 336.000000 250.289727
  L 332.000000 248.625854
  L 328.000000 249.923075
  L 324.000000 251.236097
  L 320.000000 249.563629
  L 316.000000 251.923935
  L 312.000000 251.992141
  L 308.000000 252.541216
  L 304.000000 249.762505
  L 300.000000 252.166346
  L 296.000000 251.700607
  L 292.000000 250.288292
  L 288.000000 252.035660
  L 284.000000 251.713997
  L 280.000000 251.168064
  L 276.000000 249.206779
  L 272.000000 252.170739
  L 268.000000 253.541351
  L 264.000000 250.252236
  L 260.000000 253.744712
  L 256.000000 252.699026
  L 252.000000 252.774918
  L 248.000000 253.763240
  L 244.000000 251.670976
  L 240.000000 250.811711
  L 236.000000 250.517754
  L 232.000000 254.204762
  L 228.000000 253.252231
  L 224.000000 252.835954
  L 220.000000 257.701046
  L 216.000000 249.520222
  L 212.000000 255.012757
  L 208.000000 252.385032
  L 204.000000 254.212753
  L 200.000000 253.404454
  L 196.000000 253.146384
  L 192.000000 252.602349
  L 188.000000 256.085407
  L 184.000000 254.986007
  L 180.000000 254.086929
  L 176.000000 253.633713
  L 172.000000 253.518657
  L 168.000000 257.466402
  L 164.000000 255.367301
  L 160.000000 255.288557
  L 156.000000 254.298859
  L 152.000000 257.230352
  L 148.000000 254.427371
  L 144.000000 257.851800
  L 140.000000 258.689676
  L 136.000000 256.828360
  L 132.000000 258.257100
  L 128.000000 259.893286
  L 124.000000 257.271163
  L 120.000000 255.816687
  L 116.000000 257.634402
  L 112.000000 260.666309
  L 108.000000 259.855361
  L 104.000000 262.875580
  L 100.000000 267.136188
  L 96.000000 259.006042
  L 92.000000 254.297323
  L 88.000000 264.699248
  L 84.000000 294.996613
Z" fill="rgb(248,118,109)" fill-opacity="0.2"/>
<path d="M 84.000000 556.234553
  L 88.000000 360.970465
  L 92.000000 289.070164
  L 96.000000 301.730452
  L 100.000000 288.204512
  L 104.000000 270.399356
  L 108.000000 270.216831
  L 112.000000 270.763302
  L 116.000000 274.130532
  L 120.000000 274.826307
  L 124.000000 274.206475
  L 128.000000 272.397588
  L 132.000000 270.083911
  L 136.000000 268.336931
  L 140.000000 265.685858
  L 144.000000 267.357132
  L 148.000000 265.261274
  L 152.000000 264.224159
  L 156.000000 265.012625
  L 160.000000 264.842962
  L 164.000000 263.008061
  L 168.000000 261.619195
  L 172.000000 261.630707
  L 176.000000 260.806047
  L 180.000000 260.729883
  L 184.000000 258.495581
  L 188.000000 259.908869
  L 192.000000 260.966907
  L 196.000000 259.788679
  L 200.000000 259.965156
  L 204.000000 258.910158
  L 208.000000 257.703743
  L 212.000000 256.378807
  L 216.000000 257.054130
  L 220.000000 256.569960
  L 224.000000 256.478594
  L 228.000000 256.125830
  L 232.000000 256.712333
  L 236.000000 254.994103
  L 240.000000 256.145849
  L 244.000000 255.523058
  L 248.000000 255.169616
  L 252.000000 254.910602
  L 256.000000 254.656097
  L 260.000000 253.865419
  L 264.000000 254.060037
  L 268.000000 253.372113
  L 272.000000 254.063387
  L 276.000000 254.699418
  L 280.000000 255.067318
  L 284.000000 254.414064
  L 288.000000 254.613240
  L 292.000000 254.298351
  L 296.000000 253.619709
  L 300.000000 253.295569
  L 304.000000 253.353321
  L 308.000000 252.900354
  L 312.000000 253.025953
  L 316.000000 253.283050
  L 320.000000 253.634126
  L 324.000000 254.223687
  L 328.000000 253.934388
  L 332.000000 252.910676
  L 336.000000 252.641049
  L 340.000000 252.417714
  L 344.000000 253.002728
  L 348.000000 253.373102
  L 352.000000 252.920898
  L 356.000000 253.199007
  L 360.000000 253.004588
  L 364.000000 252.593838
  L 368.000000 253.271842
  L 372.000000 253.147403
  L 376.000000 252.968172
  L 380.000000 252.918049
  L 384.000000 252.928425
  L 388.000000 252.591096
  L 392.000000 252.794578
  L 396.000000 253.179914
  L 400.000000 253.111904
  L 404.000000 253.368902
  L 408.000000 252.900702
  L 412.000000 252.486218
  L 416.000000 252.799469
  L 420.000000 252.268897
  L 424.000000 252.882018
  L 428.000000 252.267863
  L 432.000000 251.857101
  L 436.000000 252.590439
  L 440.000000 252.591865
  L 444.000000 253.191253
  L 448.000000 254.013493
  L 452.000000 253.312585
  L 456.000000 253.121750
  L 460.000000 252.763044
  L 464.000000 252.200795
  L 468.000000 252.595128
  L 472.000000 252.931398
  L 476.000000 252.889316
  L 480.000000 253.442604
  L 484.000000 254.198872
  L 488.000000 253.960053
  L 492.000000 253.490941
  L 496.000000 253.357316
  L 500.000000 253.836825
  L 504.000000 253.531722
  L 508.000000 252.562044
  L 512.000000 252.654483
  L 516.000000 253.007839
  L 520.000000 253.407150
  L 524.000000 253.114635
  L 528.000000 253.752009
  L 532.000000 253.741644
  L 536.000000 253.576060
  L 540.000000 253.156528
  L 544.000000 252.799020
  L 548.000000 252.563315
  L 552.000000 252.136488
  L 556.000000 252.089445
  L 560.000000 251.797034
  L 564.000000 253.063495
  L 568.000000 253.030250
  L 572.000000 253.145990
  L 576.000000 250.253553
  L 580.000000 80.008762
  L 580.000000 80.000000
  L 576.000000 248.858658
  L 572.000000 251.774115
  L 568.000000 251.669033
  L 564.000000 251.709415
  L 560.000000 250.448462
  L 556.000000 250.746894
  L 552.000000 250.793951
  L 548.000000 251.218877
  L 544.000000 251.455636
  L 540.000000 251.815914
  L 536.000000 252.232505
  L 532.000000 252.399863
  L 528.000000 252.411658
  L 524.000000 251.775943
  L 520.000000 252.066496
  L 516.000000 251.667804
  L 512.000000 251.318762
  L 508.000000 251.228865
  L 504.000000 252.197415
  L 500.000000 252.496614
  L 496.000000 252.019041
  L 492.000000 252.154679
  L 488.000000 252.624397
  L 484.000000 252.862574
  L 480.000000 252.110259
  L 476.000000 251.557053
  L 472.000000 251.598154
  L 468.000000 251.264556
  L 464.000000 250.876145
  L 460.000000 251.438349
  L 456.000000 251.793443
  L 452.000000 251.982511
  L 448.000000 252.682054
  L 444.000000 251.860486
  L 440.000000 251.266550
  L 436.000000 251.264657
  L 432.000000 250.533676
  L 428.000000 250.943825
  L 424.000000 251.557640
  L 420.000000 250.945448
  L 416.000000 251.475047
  L 412.000000 251.164937
  L 408.000000 251.577439
  L 404.000000 252.042653
  L 400.000000 251.786940
  L 396.000000 251.854261
  L 392.000000 251.469494
  L 388.000000 251.269025
  L 384.000000 251.604525
  L 380.000000 251.594819
  L 376.000000 251.646201
  L 372.000000 251.825625
  L 368.000000 251.946145
  L 364.000000 251.274792
  L 360.000000 251.682179
  L 356.000000 251.877159
  L 352.000000 251.595823
  L 348.000000 252.044473
  L 344.000000 251.676087
  L 340.000000 251.095359
  L 336.000000 251.320356
  L 332.000000 251.587589
  L 328.000000 252.609116
  L 324.000000 252.896164
  L 320.000000 252.308605
  L 316.000000 251.957692
  L 312.000000 251.702680
  L 308.000000 251.576100
  L 304.000000 252.029639
  L 300.000000 251.971336
  L 296.000000 252.292015
  L 292.000000 252.966353
  L 288.000000 253.282463
  L 284.000000 253.086895
  L 280.000000 253.742981
  L 276.000000 253.369187
  L 272.000000 252.732098
  L 268.000000 252.051462
  L 264.000000 252.731557
  L 260.000000 252.537027
  L 256.000000 253.325041
  L 252.000000 253.578341
  L 248.000000 253.842754
  L 244.000000 254.198150
  L 240.000000 254.814932
  L 236.000000 253.669436
  L 232.000000 255.375018
  L 228.000000 254.790267
  L 224.000000 255.146356
  L 220.000000 255.233875
  L 216.000000 255.717754
  L 212.000000 255.049724
  L 208.000000 256.368692
  L 204.000000 257.568218
  L 200.000000 258.616004
  L 196.000000 258.441156
  L 192.000000 259.616568
  L 188.000000 258.561889
  L 184.000000 257.158386
  L 180.000000 259.380239
  L 176.000000 259.465332
  L 172.000000 260.281144
  L 168.000000 260.269923
  L 164.000000 261.650160
  L 160.000000 263.475499
  L 156.000000 263.641936
  L 152.000000 262.866884
  L 148.000000 263.895649
  L 144.000000 265.981726
  L 140.000000 264.316503
  L 136.000000 266.957138
  L 132.000000 268.700218
  L 128.000000 271.013558
  L 124.000000 272.825647
  L 120.000000 273.446597
  L 116.000000 272.724862
  L 112.000000 269.339086
  L 108.000000 268.872559
  L 104.000000 269.009626
  L 100.000000 286.795651
  L 96.000000 300.238222
  L 92.000000 287.408594
  L 88.000000 359.709218
  L 84.000000 555.748793
Z" fill="rgb(0,191,196)" fill-opacity="0.2"/>
<path d="M 84.000000 295.689266
  L 88.000000 265.310979
  L 92.000000 254.958375
  L 96.000000 259.688941
  L 100.000000 267.830640
  L 104.000000 263.567614
  L 108.000000 260.518363
  L 112.000000 261.352075
  L 116.000000 258.303582
  L 120.000000 256.471467
  L 124.000000 257.943487
  L 128.000000 260.573119
  L 132.000000 258.930614
  L 136.000000 257.492342
  L 140.000000 259.362166
  L 144.000000 258.526370
  L 148.000000 255.079778
  L 152.000000 257.908427
  L 156.000000 254.965544
  L 160.000000 255.951808
  L 164.000000 256.032852
  L 168.000000 258.143110
  L 172.000000 254.175245
  L 176.000000 254.296150
  L 180.000000 254.740949
  L 184.000000 255.652979
  L 188.000000 256.759461
  L 192.000000 253.261298
  L 196.000000 253.810626
  L 200.000000 254.071044
  L 204.000000 254.875455
  L 208.000000 253.041191
  L 212.000000 255.677801
  L 216.000000 250.165580
  L 220.000000 258.384614
  L 224.000000 253.491690
  L 228.000000 253.915446
  L 232.000000 254.875211
  L 236.000000 251.173923
  L 240.000000 251.466635
  L 244.000000 252.324609
  L 248.000000 254.437072
  L 252.000000 253.443012
  L 256.000000 253.364773
  L 260.000000 254.412762
  L 264.000000 250.902303
  L 268.000000 254.209715
  L 272.000000 252.836733
  L 276.000000 249.852600
  L 280.000000 251.827983
  L 284.000000 252.379785
  L 288.000000 252.696793
  L 292.000000 250.942861
  L 296.000000 252.366880
  L 300.000000 252.828806
  L 304.000000 250.413061
  L 308.000000 253.203474
  L 312.000000 252.655819
  L 316.000000 252.589075
  L 320.000000 250.222934
  L 324.000000 251.896977
  L 328.000000 250.580499
  L 332.000000 249.278039
  L 336.000000 250.944367
  L 340.000000 251.897970
  L 344.000000 251.215480
  L 348.000000 253.681455
  L 352.000000 250.901012
  L 356.000000 250.723666
  L 360.000000 249.133318
  L 364.000000 251.137313
  L 368.000000 248.440485
  L 372.000000 249.799429
  L 376.000000 250.806522
  L 380.000000 253.137079
  L 384.000000 251.658992
  L 388.000000 250.780500
  L 392.000000 251.054019
  L 396.000000 248.730595
  L 400.000000 250.833818
  L 404.000000 248.933048
  L 408.000000 250.396806
  L 412.000000 250.157864
  L 416.000000 250.424038
  L 420.000000 249.686865
  L 424.000000 250.687551
  L 428.000000 249.596282
  L 432.000000 250.672183
  L 436.000000 249.539935
  L 440.000000 248.789293
  L 444.000000 249.723347
  L 448.000000 249.792637
  L 452.000000 248.601342
  L 456.000000 248.946711
  L 460.000000 248.350998
  L 464.000000 250.910883
  L 468.000000 250.744292
  L 472.000000 250.512753
  L 476.000000 249.883326
  L 480.000000 247.927868
  L 484.000000 248.085325
  L 488.000000 248.188160
  L 492.000000 246.316526
  L 496.000000 248.269751
  L 500.000000 248.903145
  L 504.000000 248.663855
  L 508.000000 249.150709
  L 512.000000 248.056960
  L 516.000000 246.200685
  L 520.000000 245.390196
  L 524.000000 245.411690
  L 528.000000 245.226155
  L 532.000000 246.940946
  L 536.000000 245.972631
  L 540.000000 247.017021
  L 544.000000 247.435903
  L 548.000000 245.243483
  L 552.000000 245.651786
  L 556.000000 240.571995
  L 560.000000 239.182038
  L 564.000000 235.080346
  L 568.000000 242.853455
  L 572.000000 240.267503
  L 576.000000 223.566318
  L 580.000000 222.495940
" stroke="rgb(248,118,109)" stroke-width="2" fill-opacity="0"/>
<path d="M 84.000000 555.992839
  L 88.000000 360.340037
  L 92.000000 288.238905
  L 96.000000 300.984075
  L 100.000000 287.499734
  L 104.000000 269.703996
  L 108.000000 269.544231
  L 112.000000 270.050678
  L 116.000000 273.427226
  L 120.000000 274.136004
  L 124.000000 273.515607
  L 128.000000 271.705101
  L 132.000000 269.391571
  L 136.000000 267.646529
  L 140.000000 265.000658
  L 144.000000 266.668917
  L 148.000000 264.577938
  L 152.000000 263.544994
  L 156.000000 264.326750
  L 160.000000 264.158702
  L 164.000000 262.328572
  L 168.000000 260.944015
  L 172.000000 260.955381
  L 176.000000 260.135145
  L 180.000000 260.054508
  L 184.000000 257.826421
  L 188.000000 259.234821
  L 192.000000 260.291187
  L 196.000000 259.114358
  L 200.000000 259.290020
  L 204.000000 258.238624
  L 208.000000 257.035649
  L 212.000000 255.713690
  L 216.000000 256.385366
  L 220.000000 255.901337
  L 224.000000 255.811897
  L 228.000000 255.457465
  L 232.000000 256.043096
  L 236.000000 254.331185
  L 240.000000 255.479811
  L 244.000000 254.860024
  L 248.000000 254.505600
  L 252.000000 254.243879
  L 256.000000 253.989975
  L 260.000000 253.200624
  L 264.000000 253.395200
  L 268.000000 252.711191
  L 272.000000 253.397143
  L 276.000000 254.033710
  L 280.000000 254.404566
  L 284.000000 253.749887
  L 288.000000 253.947258
  L 292.000000 253.631754
  L 296.000000 252.955262
  L 300.000000 252.632852
  L 304.000000 252.690881
  L 308.000000 252.237623
  L 312.000000 252.363715
  L 316.000000 252.619770
  L 320.000000 252.970767
  L 324.000000 253.559331
  L 328.000000 253.271157
  L 332.000000 252.248530
  L 336.000000 251.980099
  L 340.000000 251.755930
  L 344.000000 252.338803
  L 348.000000 252.708184
  L 352.000000 252.257756
  L 356.000000 252.537484
  L 360.000000 252.342782
  L 364.000000 251.933713
  L 368.000000 252.608392
  L 372.000000 252.485915
  L 376.000000 252.306585
  L 380.000000 252.255831
  L 384.000000 252.265872
  L 388.000000 251.929456
  L 392.000000 252.131430
  L 396.000000 252.516485
  L 400.000000 252.448819
  L 404.000000 252.705176
  L 408.000000 252.238467
  L 412.000000 251.824972
  L 416.000000 252.136653
  L 420.000000 251.606563
  L 424.000000 252.219225
  L 428.000000 251.605234
  L 432.000000 251.194776
  L 436.000000 251.926940
  L 440.000000 251.928600
  L 444.000000 252.525262
  L 448.000000 253.347174
  L 452.000000 252.646942
  L 456.000000 252.456991
  L 460.000000 252.100091
  L 464.000000 251.537859
  L 468.000000 251.929230
  L 472.000000 252.264164
  L 476.000000 252.222573
  L 480.000000 252.775826
  L 484.000000 253.530120
  L 488.000000 253.291620
  L 492.000000 252.822200
  L 496.000000 252.687566
  L 500.000000 253.166110
  L 504.000000 252.863961
  L 508.000000 251.894839
  L 512.000000 251.986006
  L 516.000000 252.337204
  L 520.000000 252.736209
  L 524.000000 252.444674
  L 528.000000 253.081223
  L 532.000000 253.070141
  L 536.000000 252.903667
  L 540.000000 252.485604
  L 544.000000 252.126705
  L 548.000000 251.890470
  L 552.000000 251.464592
  L 556.000000 251.417541
  L 560.000000 251.122111
  L 564.000000 252.385825
  L 568.000000 252.349004
  L 572.000000 252.459407
  L 576.000000 249.555407
  L 580.000000 80.000000
" stroke="rgb(0,191,196)" stroke-width="2" fill-opacity="0"/>
<text x="650" y="650" text-anchor="end">--OB 2,123,6,124</text>
<line x1="88.000000" y1="580" x2="88.000000" y2="80" stroke-dasharray="5 1" stroke="rgb(248,118,109)" stroke-width="1" />
<line x1="572.000000" y1="580" x2="572.000000" y2="80" stroke-dasharray="5 1" stroke="rgb(248,118,109)" stroke-width="1" />
<line x1="104.000000" y1="580" x2="104.000000" y2="80" stroke-dasharray="5 1" stroke="rgb(0,191,196)" stroke-width="1" />
<line x1="576.000000" y1="580" x2="576.000000" y2="80" stroke-dasharray="5 1" stroke="rgb(0,191,196)" stroke-width="1" />
<rect x="590" y="310" width="20" height="20" fill="rgb(248,118,109)" />
<text x="615" y="320" text-anchor="start" dominant-baseline="middle">#1</text>
<rect x="590" y="330" width="20" height="20" fill="rgb(0,191,196)" />
<text x="615" y="340" text-anchor="start" dominant-baseline="middle">#2</text>
</svg>
