<svg height="660" width="660"
    xmlns="http://www.w3.org/2000/svg"
    xmlns:xlink="http://www.w3.org/1999/xlink"
    xmlns:ev="http://www.w3.org/2001/xml-events">
<title>Original Top Strand</title>
<rect x="0" y="0" width="660" height="660" fill="white" />
<text x="330" y="20" text-anchor="middle">Original Top Strand</text>
<line x1="80" y1="80" x2="80" y2="580" stroke="black" />
<line x1="80" y1="580" x2="580" y2="580" stroke="black" />
<text x="15" y="330" transform="rotate(270 15, 330)" text-anchor="middle" dominant-baseline="text-before-edge">CpG Methylation %</text>
<text x="330" y="620" text-anchor="middle">Position along mapped read (5'->3' of + strand)</text>
<line x1="80" y1="580" x2="80" y2="585" stroke="black" />
<text x="80" y="600" text-anchor="middle">0</text>
<line x1="120.000000" y1="80" x2="120.000000" y2="580" stroke-dasharray="5 5" stroke="grey" />
<line x1="120.000000" y1="580" x2="120.000000" y2="585" stroke="black" />
<text x="120.000000" y="600" text-anchor="middle">10</text>
<line x1="160.000000" y1="80" x2="160.000000" y2="580" stroke-dasharray="5 5" stroke="grey" />
<line x1="160.000000" y1="580" x2="160.000000" y2="585" stroke="black" />
<text x="160.000000" y="600" text-anchor="middle">20</text>
<line x1="200.000000" y1="80" x2="200.000000" y2="580" stroke-dasharray="5 5" stroke="grey" />
<line x1="200.000000" y1="580" x2="200.000000" y2="585" stroke="black" />
<text x="200.000000" y="600" text-anchor="middle">30</text>
<line x1="240.000000" y1="80" x2="240.000000" y2="580" stroke-dasharray="5 5" stroke="grey" />
<line x1="240.000000" y1="580" x2="240.000000" y2="585" stroke="black" />
<text x="240.000000" y="600" text-anchor="middle">40</text>
<line x1="280.000000" y1="80" x2="280.000000" y2="580" stroke-dasharray="5 5" stroke="grey" />
<line x1="280.000000" y1="580" x2="280.000000" y2="585" stroke="black" />
<text x="280.000000" y="600" text-anchor="middle">50</text>
<line x1="320.000000" y1="80" x2="320.000000" y2="580" stroke-dasharray="5 5" stroke="grey" />
<line x1="320.000000" y1="580" x2="320.000000" y2="585" stroke="black" />
<text x="320.000000" y="600" text-anchor="middle">60</text>
<line x1="360.000000" y1="80" x2="360.000000" y2="580" stroke-dasharray="5 5" stroke="grey" />
<line x1="360.000000" y1="580" x2="360.000000" y2="585" stroke="black" />
<text x="360.000000" y="600" text-anchor="middle">70</text>
<line x1="400.000000" y1="80" x2="400.000000" y2="580" stroke-dasharray="5 5" stroke="grey" />
<line x1="400.000000" y1="580" x2="400.000000" y2="585" stroke="black" />
<text x="400.000000" y="600" text-anchor="middle">80</text>
<line x1="440.000000" y1="80" x2="440.000000" y2="580" stroke-dasharray="5 5" stroke="grey" />
<line x1="440.000000" y1="580" x2="440.000000" y2="585" stroke="black" />
<text x="440.000000" y="600" text-anchor="middle">90</text>
<line x1="480.000000" y1="80" x2="480.000000" y2="580" stroke-dasharray="5 5" stroke="grey" />
<line x1="480.000000" y1="580" x2="480.000000" y2="585" stroke="black" />
<text x="480.000000" y="600" text-anchor="middle">100</text>
<line x1="520.000000" y1="80" x2="520.000000" y2="580" stroke-dasharray="5 5" stroke="grey" />
<line x1="520.000000" y1="580" x2="520.000000" y2="585" stroke="black" />
<text x="520.000000" y="600" text-anchor="middle">110</text>
<line x1="560.000000" y1="80" x2="560.000000" y2="580" stroke-dasharray="5 5" stroke="grey" />
<line x1="560.000000" y1="580" x2="560.000000" y2="585" stroke="black" />
<text x="560.000000" y="600" text-anchor="middle">120</text>
<line x1="80" y1="580.000000" x2="75" y2="580.000000" stroke="black" />
<text x="55" y="580.000000" text-anchor="middle" dominant-baseline="middle">0.00</text>
<line x1="80" y1="555.000000" x2="75" y2="555.000000" stroke="black" />
<text x="55" y="555.000000" text-anchor="middle" dominant-baseline="middle">0.05</text>
<line x1="80" y1="530.000000" x2="75" y2="530.000000" stroke="black" />
<text x="55" y="530.000000" text-anchor="middle" dominant-baseline="middle">0.10</text>
<line x1="80" y1="505.000000" x2="75" y2="505.000000" stroke="black" />
<text x="55" y="505.000000" text-anchor="middle" dominant-baseline="middle">0.15</text>
<line x1="80" y1="480.000000" x2="75" y2="480.000000" stroke="black" />
<text x="55" y="480.000000" text-anchor="middle" dominant-baseline="middle">0.20</text>
<line x1="80" y1="455.000000" x2="75" y2="455.000000" stroke="black" />
<text x="55" y="455.000000" text-anchor="middle" dominant-baseline="middle">0.25</text>
<line x1="80" y1="430.000000" x2="75" y2="430.000000" stroke="black" />
<text x="55" y="430.000000" text-anchor="middle" dominant-baseline="middle">0.30</text>
<line x1="80" y1="405.000000" x2="75" y2="405.000000" stroke="black" />
<text x="55" y="405.000000" text-anchor="middle" dominant-baseline="middle">0.35</text>
<line x1="80" y1="380.000000" x2="75" y2="380.000000" stroke="black" />
<text x="55" y="380.000000" text-anchor="middle" dominant-baseline="middle">0.40</text>
<line x1="80" y1="355.000000" x2="75" y2="355.000000" stroke="black" />
<text x="55" y="355.000000" text-anchor="middle" dominant-baseline="middle">0.45</text>
<line x1="80" y1="330.000000" x2="75" y2="330.000000" stroke="black" />
<text x="55" y="330.000000" text-anchor="middle" dominant-baseline="middle">0.50</text>
<line x1="80" y1="305.000000" x2="75" y2="305.000000" stroke="black" />
<text x="55" y="305.000000" text-anchor="middle" dominant-baseline="middle">0.55</text>
<line x1="80" y1="280.000000" x2="75" y2="280.000000" stroke="black" />
<text x="55" y="280.000000" text-anchor="middle" dominant-baseline="middle">0.60</text>
<line x1="80" y1="255.000000" x2="75" y2="255.000000" stroke="black" />
<text x="55" y="255.000000" text-anchor="middle" dominant-baseline="middle">0.65</text>
<line x1="80" y1="230.000000" x2="75" y2="230.000000" stroke="black" />
<text x="55" y="230.000000" text-anchor="middle" dominant-baseline="middle">0.70</text>
<line x1="80" y1="205.000000" x2="75" y2="205.000000" stroke="black" />
<text x="55" y="205.000000" text-anchor="middle" dominant-baseline="middle">0.75</text>
<line x1="80" y1="180.000000" x2="75" y2="180.000000" stroke="black" />
<text x="55" y="180.000000" text-anchor="middle" dominant-baseline="middle">0.80</text>
<line x1="80" y1="155.000000" x2="75" y2="155.000000" stroke="black" />
<text x="55" y="155.000000" text-anchor="middle" dominant-baseline="middle">0.85</text>
<line x1="80" y1="130.000000" x2="75" y2="130.000000" stroke="black" />
<text x="55" y="130.000000" text-anchor="middle" dominant-baseline="middle">0.90</text>
<line x1="80" y1="105.000000" x2="75" y2="105.000000" stroke="black" />
<text x="55" y="105.000000" text-anchor="middle" dominant-baseline="middle">0.95</text>
<line x1="80" y1="80.000000" x2="75" y2="80.000000" stroke="black" />
<text x="55" y="80.000000" text-anchor="middle" dominant-baseline="middle">1.00</text>
<path d="M 84.000000 168.308945
  L 88.000000 191.538669
  L 92.000000 197.717543
  L 96.000000 190.148502
  L 100.000000 184.029139
  L 104.000000 192.778793
  L 108.000000 195.108358
  L 112.000000 195.539678
  L 116.000000 194.191660
  L 120.000000 194.327913
  L 124.000000 194.228853
  L 128.000000 193.881177
  L 132.000000 192.988254
  L 136.000000 193.194567
  L 140.000000 193.390461
  L 144.000000 193.082859
  L 148.000000 192.605526
  L 152.000000 195.163349
  L 156.000000 195.806840
  L 160.000000 195.256843
  L 164.000000 194.687301
  L 168.000000 194.527726
  L 172.000000 191.745346
  L 176.000000 194.208465
  L 180.000000 192.901570
  L 184.000000 194.573697
  L 188.000000 194.851105
  L 192.000000 195.888114
  L 196.000000 196.515887
  L 200.000000 196.191796
  L 204.000000 195.634211
  L 208.000000 194.103436
  L 212.000000 194.023838
  L 216.000000 195.131460
  L 220.000000 193.016393
  L 224.000000 194.848847
  L 228.000000 196.033460
  L 232.000000 196.122406
  L 236.000000 195.400189
  L 240.000000 195.535547
  L 244.000000 196.684994
  L 248.000000 196.970101
  L 252.000000 196.359836
  L 256.000000 196.341270
  L 260.000000 195.719720
  L 264.000000 195.781752
  L 268.000000 196.763915
  L 272.000000 196.276507
  L 276.000000 196.650433
  L 280.000000 197.251646
  L 284.000000 198.049156
  L 288.000000 197.571420
  L 292.000000 197.165569
  L 296.000000 196.599612
  L 300.000000 195.892600
  L 304.000000 196.445649
  L 308.000000 196.032204
  L 312.000000 197.013453
  L 316.000000 197.428875
  L 320.000000 198.204812
  L 324.000000 198.385875
  L 328.000000 197.591008
  L 332.000000 196.656208
  L 336.000000 196.768532
  L 340.000000 197.269999
  L 344.000000 197.760765
  L 348.000000 197.368437
  L 352.000000 198.081690
  L 356.000000 198.647451
  L 360.000000 198.336599
  L 364.000000 198.568820
  L 368.000000 198.312512
  L 372.000000 198.162058
  L 376.000000 198.206920
  L 380.000000 197.526749
  L 384.000000 197.640609
  L 388.000000 198.344676
  L 392.000000 198.956485
  L 396.000000 198.769689
  L 400.000000 199.327908
  L 404.000000 199.136826
  L 408.000000 198.969446
  L 412.000000 199.401148
  L 416.000000 199.127454
  L 420.000000 199.143679
  L 424.000000 198.508622
  L 428.000000 198.608160
  L 432.000000 199.018862
  L 436.000000 199.229265
  L 440.000000 199.730649
  L 444.000000 200.653743
  L 448.000000 200.476623
  L 452.000000 200.181665
  L 456.000000 199.325833
  L 460.000000 199.180595
  L 464.000000 199.583291
  L 468.000000 199.750032
  L 472.000000 199.324624
  L 476.000000 199.870534
  L 480.000000 201.089768
  L 484.000000 201.501512
  L 488.000000 201.406388
  L 492.000000 202.167281
  L 496.000000 201.460615
  L 500.000000 200.536121
  L 504.000000 200.350281
  L 508.000000 200.956360
  L 512.000000 201.003246
  L 516.000000 201.626470
  L 520.000000 201.799992
  L 524.000000 202.283472
  L 528.000000 202.636052
  L 532.000000 202.992535
  L 536.000000 202.878766
  L 540.000000 203.247512
  L 544.000000 202.741014
  L 548.000000 202.453972
  L 552.000000 202.534827
  L 556.000000 202.875382
  L 560.000000 204.520658
  L 564.000000 206.739359
  L 568.000000 207.691585
  L 572.000000 209.300398
  L 576.000000 212.462307
  L 580.000000 212.245406
  L 580.000000 210.987688
  L 576.000000 211.241312
  L 572.000000 208.113747
  L 568.000000 206.522796
  L 564.000000 205.587053
  L 560.000000 203.374084
  L 556.000000 201.734618
  L 552.000000 201.396867
  L 548.000000 201.318975
  L 544.000000 201.601563
  L 540.000000 202.107817
  L 536.000000 201.742687
  L 532.000000 201.858382
  L 528.000000 201.504886
  L 524.000000 201.150924
  L 520.000000 200.669794
  L 516.000000 200.496104
  L 512.000000 199.872767
  L 508.000000 199.830320
  L 504.000000 199.230061
  L 500.000000 199.416424
  L 496.000000 200.332126
  L 492.000000 201.031277
  L 488.000000 200.276599
  L 484.000000 200.371590
  L 480.000000 199.965204
  L 476.000000 198.754711
  L 472.000000 198.209659
  L 468.000000 198.629005
  L 464.000000 198.463599
  L 460.000000 198.064606
  L 456.000000 198.210896
  L 452.000000 199.059079
  L 448.000000 199.354359
  L 444.000000 199.530625
  L 440.000000 198.609819
  L 436.000000 198.110936
  L 432.000000 197.902319
  L 428.000000 197.489947
  L 424.000000 197.393877
  L 420.000000 198.026047
  L 416.000000 198.008772
  L 412.000000 198.278794
  L 408.000000 197.850682
  L 404.000000 198.018339
  L 400.000000 198.209684
  L 396.000000 197.652852
  L 392.000000 197.835334
  L 388.000000 197.225028
  L 384.000000 196.528167
  L 380.000000 196.415041
  L 376.000000 197.090274
  L 372.000000 197.048940
  L 368.000000 197.196790
  L 364.000000 197.448146
  L 360.000000 197.219227
  L 356.000000 197.529111
  L 352.000000 196.966989
  L 348.000000 196.256988
  L 344.000000 196.640735
  L 340.000000 196.155312
  L 336.000000 195.661200
  L 332.000000 195.549765
  L 328.000000 196.476961
  L 324.000000 197.270940
  L 320.000000 197.088429
  L 316.000000 196.318073
  L 312.000000 195.897412
  L 308.000000 194.924611
  L 304.000000 195.334351
  L 300.000000 194.787443
  L 296.000000 195.488897
  L 292.000000 196.047553
  L 288.000000 196.451476
  L 284.000000 196.923066
  L 280.000000 196.138382
  L 276.000000 195.546661
  L 272.000000 195.166947
  L 268.000000 195.642048
  L 264.000000 194.670905
  L 260.000000 194.612289
  L 256.000000 195.223885
  L 252.000000 195.245500
  L 248.000000 195.850132
  L 244.000000 195.573172
  L 240.000000 194.435592
  L 236.000000 194.302537
  L 232.000000 195.010046
  L 228.000000 194.916700
  L 224.000000 193.742967
  L 220.000000 191.930343
  L 216.000000 194.023340
  L 212.000000 192.929004
  L 208.000000 193.007189
  L 204.000000 194.526661
  L 200.000000 195.077878
  L 196.000000 195.399721
  L 192.000000 194.774644
  L 188.000000 193.748102
  L 184.000000 193.463172
  L 180.000000 191.807704
  L 176.000000 193.104136
  L 172.000000 190.666109
  L 168.000000 193.423854
  L 164.000000 193.580037
  L 160.000000 194.147018
  L 156.000000 194.693582
  L 152.000000 194.048285
  L 148.000000 191.517502
  L 144.000000 191.986349
  L 140.000000 192.287371
  L 136.000000 192.089441
  L 132.000000 191.884082
  L 128.000000 192.773164
  L 124.000000 193.120756
  L 120.000000 193.233611
  L 116.000000 193.097659
  L 112.000000 194.400676
  L 108.000000 193.924649
  L 104.000000 191.657230
  L 100.000000 182.939600
  L 96.000000 189.063778
  L 92.000000 196.547600
  L 88.000000 190.182999
  L 84.000000 167.439971
Z" fill="rgb(248,118,109)" fill-opacity="0.2"/>
<path d="M 84.000000 130.029755
  L 88.000000 201.670753
  L 92.000000 198.532933
  L 96.000000 199.828769
  L 100.000000 198.530129
  L 104.000000 198.243104
  L 108.000000 198.412636
  L 112.000000 195.922735
  L 116.000000 198.543800
  L 120.000000 197.473938
  L 124.000000 198.929340
  L 128.000000 200.618733
  L 132.000000 197.718793
  L 136.000000 197.824460
  L 140.000000 200.860903
  L 144.000000 195.030394
  L 148.000000 198.511557
  L 152.000000 199.012852
  L 156.000000 198.721721
  L 160.000000 197.254637
  L 164.000000 200.383702
  L 168.000000 198.610841
  L 172.000000 199.279878
  L 176.000000 198.268967
  L 180.000000 198.315052
  L 184.000000 198.909287
  L 188.000000 197.720705
  L 192.000000 199.137589
  L 196.000000 197.998713
  L 200.000000 197.135979
  L 204.000000 197.539977
  L 208.000000 199.263452
  L 212.000000 199.442333
  L 216.000000 199.898801
  L 220.000000 197.610597
  L 224.000000 198.741996
  L 228.000000 198.166452
  L 232.000000 197.336620
  L 236.000000 197.809568
  L 240.000000 195.910000
  L 244.000000 199.646964
  L 248.000000 199.925190
  L 252.000000 198.390168
  L 256.000000 199.743777
  L 260.000000 197.596056
  L 264.000000 198.448529
  L 268.000000 198.927108
  L 272.000000 196.878668
  L 276.000000 197.446546
  L 280.000000 198.481816
  L 284.000000 198.964151
  L 288.000000 198.282190
  L 292.000000 198.973729
  L 296.000000 197.770127
  L 300.000000 197.994701
  L 304.000000 197.548394
  L 308.000000 198.854238
  L 312.000000 197.910473
  L 316.000000 197.455536
  L 320.000000 197.465530
  L 324.000000 197.349311
  L 328.000000 196.648749
  L 332.000000 198.605903
  L 336.000000 198.132836
  L 340.000000 198.524093
  L 344.000000 198.502334
  L 348.000000 198.579950
  L 352.000000 198.358431
  L 356.000000 196.435385
  L 360.000000 197.638940
  L 364.000000 198.122171
  L 368.000000 197.070839
  L 372.000000 199.222316
  L 376.000000 200.369878
  L 380.000000 199.231203
  L 384.000000 198.145556
  L 388.000000 200.298399
  L 392.000000 196.889389
  L 396.000000 197.960026
  L 400.000000 198.059576
  L 404.000000 199.815710
  L 408.000000 200.284440
  L 412.000000 200.418006
  L 416.000000 200.509383
  L 420.000000 200.050788
  L 424.000000 198.483250
  L 428.000000 202.056200
  L 432.000000 199.721445
  L 436.000000 200.282965
  L 440.000000 201.410443
  L 444.000000 200.867850
  L 448.000000 202.266400
  L 452.000000 203.160825
  L 456.000000 203.110470
  L 460.000000 205.624496
  L 464.000000 204.625712
  L 468.000000 206.192205
  L 472.000000 205.201518
  L 476.000000 205.684626
  L 480.000000 206.636645
  L 484.000000 206.743649
  L 488.000000 206.355008
  L 492.000000 208.943982
  L 496.000000 209.448138
  L 500.000000 212.433982
  L 504.000000 212.992962
  L 508.000000 213.676218
  L 512.000000 213.373223
  L 516.000000 215.582459
  L 520.000000 215.654816
  L 524.000000 216.785648
  L 528.000000 220.419409
  L 532.000000 222.599583
  L 536.000000 225.165013
  L 540.000000 226.868013
  L 544.000000 226.064861
  L 548.000000 226.718491
  L 552.000000 224.711423
  L 556.000000 229.634926
  L 560.000000 240.620503
  L 564.000000 258.331883
  L 568.000000 271.196765
  L 572.000000 309.086547
  L 576.000000 421.308602
  L 580.000000 531.888786
  L 580.000000 530.883528
  L 576.000000 420.163737
  L 572.000000 307.683167
  L 568.000000 269.726764
  L 564.000000 257.021725
  L 560.000000 239.363281
  L 556.000000 228.395014
  L 552.000000 223.477054
  L 548.000000 225.458515
  L 544.000000 224.859112
  L 540.000000 225.666047
  L 536.000000 223.967811
  L 532.000000 221.403788
  L 528.000000 219.231518
  L 524.000000 215.630172
  L 520.000000 214.491630
  L 516.000000 214.419948
  L 512.000000 212.218308
  L 508.000000 212.507944
  L 504.000000 211.834615
  L 500.000000 211.275099
  L 496.000000 208.309071
  L 492.000000 207.802462
  L 488.000000 205.238232
  L 484.000000 205.613901
  L 480.000000 205.505490
  L 476.000000 204.551442
  L 472.000000 204.073642
  L 468.000000 205.053518
  L 464.000000 203.501981
  L 460.000000 204.481877
  L 456.000000 201.995385
  L 452.000000 202.032694
  L 448.000000 201.147365
  L 444.000000 199.762751
  L 440.000000 200.295979
  L 436.000000 199.174256
  L 432.000000 198.615698
  L 428.000000 200.926080
  L 424.000000 197.394275
  L 420.000000 198.946550
  L 416.000000 199.395937
  L 412.000000 199.296253
  L 408.000000 199.163667
  L 404.000000 198.699621
  L 400.000000 196.960444
  L 396.000000 196.854968
  L 392.000000 195.801274
  L 388.000000 199.168506
  L 384.000000 197.048655
  L 380.000000 198.125381
  L 376.000000 199.242225
  L 372.000000 198.106136
  L 368.000000 195.977131
  L 364.000000 197.016556
  L 360.000000 196.536722
  L 356.000000 195.343461
  L 352.000000 197.247056
  L 348.000000 197.467027
  L 344.000000 197.393278
  L 340.000000 197.413354
  L 336.000000 197.026026
  L 332.000000 197.491877
  L 328.000000 195.559973
  L 324.000000 196.244397
  L 320.000000 196.364403
  L 316.000000 196.342508
  L 312.000000 196.806559
  L 308.000000 197.735218
  L 304.000000 196.448211
  L 300.000000 196.889073
  L 296.000000 196.670421
  L 292.000000 197.855690
  L 288.000000 197.168934
  L 284.000000 197.845586
  L 280.000000 197.364581
  L 276.000000 196.339996
  L 272.000000 195.783319
  L 268.000000 197.801584
  L 264.000000 197.334512
  L 260.000000 196.493617
  L 256.000000 198.617523
  L 252.000000 197.276439
  L 248.000000 198.797368
  L 244.000000 198.513137
  L 240.000000 194.829655
  L 236.000000 196.701025
  L 232.000000 196.222995
  L 228.000000 197.051696
  L 224.000000 197.621079
  L 220.000000 196.506306
  L 216.000000 198.767200
  L 212.000000 198.316840
  L 208.000000 198.145736
  L 204.000000 196.430701
  L 200.000000 196.038405
  L 196.000000 196.879163
  L 192.000000 198.008217
  L 188.000000 196.601102
  L 184.000000 197.786390
  L 180.000000 197.200422
  L 176.000000 197.158315
  L 172.000000 198.151204
  L 168.000000 197.487129
  L 164.000000 199.245133
  L 160.000000 196.144772
  L 156.000000 197.593290
  L 152.000000 197.883465
  L 148.000000 197.376627
  L 144.000000 193.945596
  L 140.000000 199.708820
  L 136.000000 196.707803
  L 132.000000 196.602971
  L 128.000000 199.472706
  L 124.000000 197.796338
  L 120.000000 196.357905
  L 116.000000 197.416881
  L 112.000000 194.818323
  L 108.000000 197.264612
  L 104.000000 197.140571
  L 100.000000 197.386783
  L 96.000000 198.681643
  L 92.000000 197.386013
  L 88.000000 200.512534
  L 84.000000 129.292112
Z" fill="rgb(0,191,196)" fill-opacity="0.2"/>
<path d="M 84.000000 167.873613
  L 88.000000 190.859352
  L 92.000000 197.131557
  L 96.000000 189.605175
  L 100.000000 183.483310
  L 104.000000 192.217015
  L 108.000000 194.515428
  L 112.000000 194.969187
  L 116.000000 193.643730
  L 120.000000 193.779834
  L 124.000000 193.673851
  L 128.000000 193.326213
  L 132.000000 192.435206
  L 136.000000 192.641043
  L 140.000000 192.837961
  L 144.000000 192.533656
  L 148.000000 192.060575
  L 152.000000 194.604864
  L 156.000000 195.249269
  L 160.000000 194.700988
  L 164.000000 194.132723
  L 168.000000 193.974848
  L 172.000000 191.204793
  L 176.000000 193.655354
  L 180.000000 192.353692
  L 184.000000 194.017482
  L 188.000000 194.298668
  L 192.000000 195.330438
  L 196.000000 195.956867
  L 200.000000 195.633899
  L 204.000000 195.079502
  L 208.000000 193.554378
  L 212.000000 193.475488
  L 216.000000 194.576458
  L 220.000000 192.472437
  L 224.000000 194.294965
  L 228.000000 195.474135
  L 232.000000 195.565290
  L 236.000000 194.850443
  L 240.000000 194.984647
  L 244.000000 196.128154
  L 248.000000 196.409179
  L 252.000000 195.801731
  L 256.000000 195.781636
  L 260.000000 195.165072
  L 264.000000 195.225391
  L 268.000000 196.202038
  L 272.000000 195.720798
  L 276.000000 196.097632
  L 280.000000 196.694091
  L 284.000000 197.485176
  L 288.000000 197.010517
  L 292.000000 196.605628
  L 296.000000 196.043327
  L 300.000000 195.339095
  L 304.000000 195.889070
  L 308.000000 195.477478
  L 312.000000 196.454501
  L 316.000000 196.872557
  L 320.000000 197.645704
  L 324.000000 197.827495
  L 328.000000 197.033064
  L 332.000000 196.102067
  L 336.000000 196.213946
  L 340.000000 196.711730
  L 344.000000 197.199822
  L 348.000000 196.811794
  L 352.000000 197.523424
  L 356.000000 198.087367
  L 360.000000 197.776997
  L 364.000000 198.007564
  L 368.000000 197.753737
  L 372.000000 197.604587
  L 376.000000 197.647680
  L 380.000000 196.969978
  L 384.000000 197.083471
  L 388.000000 197.783932
  L 392.000000 198.394994
  L 396.000000 198.210360
  L 400.000000 198.767890
  L 404.000000 198.576674
  L 408.000000 198.409153
  L 412.000000 198.839059
  L 416.000000 198.567204
  L 420.000000 198.583956
  L 424.000000 197.950339
  L 428.000000 198.048139
  L 432.000000 198.459684
  L 436.000000 198.669193
  L 440.000000 199.169329
  L 444.000000 200.091286
  L 448.000000 199.914592
  L 452.000000 199.619469
  L 456.000000 198.767464
  L 460.000000 198.621697
  L 464.000000 199.022540
  L 468.000000 199.188613
  L 472.000000 198.766241
  L 476.000000 199.311727
  L 480.000000 200.526591
  L 484.000000 200.935652
  L 488.000000 200.840594
  L 492.000000 201.598379
  L 496.000000 200.895474
  L 500.000000 199.975378
  L 504.000000 199.789274
  L 508.000000 200.392441
  L 512.000000 200.437101
  L 516.000000 201.060389
  L 520.000000 201.233998
  L 524.000000 201.716305
  L 528.000000 202.069582
  L 532.000000 202.424571
  L 536.000000 202.309835
  L 540.000000 202.676771
  L 544.000000 202.170390
  L 548.000000 201.885578
  L 552.000000 201.964948
  L 556.000000 202.304100
  L 560.000000 203.946482
  L 564.000000 206.162335
  L 568.000000 207.106305
  L 572.000000 208.706179
  L 576.000000 211.850902
  L 580.000000 211.615582
" stroke="rgb(248,118,109)" stroke-width="2" fill-opacity="0"/>
<path d="M 84.000000 129.659715
  L 88.000000 201.090702
  L 92.000000 197.958509
  L 96.000000 199.254259
  L 100.000000 197.957499
  L 104.000000 197.690944
  L 108.000000 197.837657
  L 112.000000 195.369603
  L 116.000000 197.979410
  L 120.000000 196.914996
  L 124.000000 198.361904
  L 128.000000 200.044784
  L 132.000000 197.159961
  L 136.000000 197.265209
  L 140.000000 200.283919
  L 144.000000 194.487092
  L 148.000000 197.943149
  L 152.000000 198.447230
  L 156.000000 198.156575
  L 160.000000 196.698787
  L 164.000000 199.813491
  L 168.000000 198.048061
  L 172.000000 198.714617
  L 176.000000 197.712734
  L 180.000000 197.756825
  L 184.000000 198.346920
  L 188.000000 197.159975
  L 192.000000 198.571976
  L 196.000000 197.438014
  L 200.000000 196.586293
  L 204.000000 196.984426
  L 208.000000 198.703688
  L 212.000000 198.878670
  L 216.000000 199.332079
  L 220.000000 197.057547
  L 224.000000 198.180620
  L 228.000000 197.608159
  L 232.000000 196.778885
  L 236.000000 197.254388
  L 240.000000 195.368942
  L 244.000000 199.079123
  L 248.000000 199.360365
  L 252.000000 197.832394
  L 256.000000 199.179736
  L 260.000000 197.043935
  L 264.000000 197.890611
  L 268.000000 198.363424
  L 272.000000 196.330095
  L 276.000000 196.892361
  L 280.000000 197.922283
  L 284.000000 198.403958
  L 288.000000 197.724652
  L 292.000000 198.413799
  L 296.000000 197.219379
  L 300.000000 197.440985
  L 304.000000 196.997404
  L 308.000000 198.293815
  L 312.000000 197.357616
  L 316.000000 196.898102
  L 320.000000 196.914065
  L 324.000000 196.795946
  L 328.000000 196.103471
  L 332.000000 198.047982
  L 336.000000 197.578529
  L 340.000000 197.967820
  L 344.000000 197.946905
  L 348.000000 198.022582
  L 352.000000 197.801836
  L 356.000000 195.888525
  L 360.000000 197.086931
  L 364.000000 197.568463
  L 368.000000 196.523091
  L 372.000000 198.663322
  L 376.000000 199.805142
  L 380.000000 198.677405
  L 384.000000 197.596220
  L 388.000000 199.732539
  L 392.000000 196.344445
  L 396.000000 197.406596
  L 400.000000 197.509120
  L 404.000000 199.256769
  L 408.000000 199.723155
  L 412.000000 199.856231
  L 416.000000 199.951776
  L 420.000000 199.497794
  L 424.000000 197.937894
  L 428.000000 201.490248
  L 432.000000 199.167690
  L 436.000000 199.727731
  L 440.000000 200.852336
  L 444.000000 200.314434
  L 448.000000 201.706011
  L 452.000000 202.595884
  L 456.000000 202.552071
  L 460.000000 205.052317
  L 464.000000 204.062994
  L 468.000000 205.622004
  L 472.000000 204.636728
  L 476.000000 205.117179
  L 480.000000 206.070227
  L 484.000000 206.177938
  L 488.000000 205.795797
  L 492.000000 208.372391
  L 496.000000 208.877783
  L 500.000000 211.853723
  L 504.000000 212.412978
  L 508.000000 213.091264
  L 512.000000 212.794964
  L 516.000000 215.000415
  L 520.000000 215.072434
  L 524.000000 216.207143
  L 528.000000 219.824691
  L 532.000000 222.000926
  L 536.000000 224.565677
  L 540.000000 226.266306
  L 544.000000 225.461250
  L 548.000000 226.087705
  L 552.000000 224.093452
  L 556.000000 229.014228
  L 560.000000 239.991238
  L 564.000000 257.676262
  L 568.000000 270.461219
  L 572.000000 308.384686
  L 576.000000 420.736717
  L 580.000000 531.388475
" stroke="rgb(0,191,196)" stroke-width="2" fill-opacity="0"/>
<text x="650" y="650" text-anchor="end">--OT 2,0,2,113</text>
<line x1="88.000000" y1="580" x2="88.000000" y2="80" stroke-dasharray="5 1" stroke="rgb(248,118,109)" stroke-width="1" />
<line x1="88.000000" y1="580" x2="88.000000" y2="80" stroke-dasharray="5 1" stroke="rgb(0,191,196)" stroke-width="1" />
<line x1="532.000000" y1="580" x2="532.000000" y2="80" stroke-dasharray="5 1" stroke="rgb(0,191,196)" stroke-width="1" />
<rect x="590" y="310" width="20" height="20" fill="rgb(248,118,109)" />
<text x="615" y="320" text-anchor="start" dominant-baseline="middle">#1</text>
<rect x="590" y="330" width="20" height="20" fill="rgb(0,191,196)" />
<text x="615" y="340" text-anchor="start" dominant-baseline="middle">#2</text>
</svg>
